<?xml version="1.0" encoding="UTF-8" standalone="no"?>
<!-- Created with Inkscape (http://www.inkscape.org/) -->

<svg
   width="55mm"
   height="55mm"
   viewBox="0 0 55 55"
   version="1.1"
   id="svg1"
   xmlns:xlink="http://www.w3.org/1999/xlink"
   xmlns="http://www.w3.org/2000/svg"
   xmlns:svg="http://www.w3.org/2000/svg">
  <defs
     id="defs1">
    <linearGradient
       id="linearGradient2">
      <stop
         style="stop-color:#57a0db;stop-opacity:1;"
         offset="0"
         id="stop2" />
      <stop
         style="stop-color:#64a7dd;stop-opacity:1;"
         offset="1"
         id="stop3" />
    </linearGradient>
    <linearGradient
       id="linearGradient4211-1">
      <stop
         style="stop-color:#806600;stop-opacity:0;"
         offset="0"
         id="stop4213-2" />
      <stop
         style="stop-color:#806600;stop-opacity:1;"
         offset="1"
         id="stop4215-6" />
    </linearGradient>
    <radialGradient
       xlink:href="#linearGradient4211-1"
       id="radialGradient1"
       cx="74.261223"
       cy="205.63583"
       fx="74.261223"
       fy="205.63583"
       r="15.358513"
       gradientTransform="matrix(1.8807521,-0.25355285,0.24022262,1.7818739,-115.6527,-142.09606)"
       gradientUnits="userSpaceOnUse" />
    <radialGradient
       xlink:href="#linearGradient4211-1"
       id="radialGradient2"
       cx="74.261223"
       cy="205.63583"
       fx="74.261223"
       fy="205.63583"
       r="15.358513"
       gradientTransform="matrix(1.8807521,-0.25355285,0.24022262,1.7818739,-115.6527,-142.09606)"
       gradientUnits="userSpaceOnUse" />
    <radialGradient
       xlink:href="#linearGradient4211-1"
       id="radialGradient4"
       cx="74.261223"
       cy="205.63583"
       fx="74.261223"
       fy="205.63583"
       r="15.358513"
       gradientTransform="matrix(1.8807521,-0.25355285,0.24022262,1.7818739,-115.6527,-142.09606)"
       gradientUnits="userSpaceOnUse" />
    <radialGradient
       xlink:href="#linearGradient4211-1"
       id="radialGradient6"
       cx="74.261223"
       cy="205.63583"
       fx="74.261223"
       fy="205.63583"
       r="15.358513"
       gradientTransform="matrix(1.8807521,-0.25355285,0.24022262,1.7818739,-115.6527,-142.09606)"
       gradientUnits="userSpaceOnUse" />
    <radialGradient
       xlink:href="#linearGradient4211-1"
       id="radialGradient8"
       cx="74.261223"
       cy="205.63583"
       fx="74.261223"
       fy="205.63583"
       r="15.358513"
       gradientTransform="matrix(1.8807521,-0.25355285,0.24022262,1.7818739,-115.6527,-142.09606)"
       gradientUnits="userSpaceOnUse" />
    <radialGradient
       xlink:href="#linearGradient4211-1"
       id="radialGradient11"
       cx="74.261223"
       cy="205.63583"
       fx="74.261223"
       fy="205.63583"
       r="15.358513"
       gradientTransform="matrix(1.8807521,-0.25355285,0.24022262,1.7818739,-115.6527,-142.09606)"
       gradientUnits="userSpaceOnUse" />
    <radialGradient
       xlink:href="#linearGradient4211-1"
       id="radialGradient12"
       cx="74.261223"
       cy="205.63583"
       fx="74.261223"
       fy="205.63583"
       r="15.358513"
       gradientTransform="matrix(1.8807521,-0.25355285,0.24022262,1.7818739,-115.6527,-142.09606)"
       gradientUnits="userSpaceOnUse" />
    <radialGradient
       xlink:href="#linearGradient4211-1"
       id="radialGradient14"
       cx="74.261223"
       cy="205.63583"
       fx="74.261223"
       fy="205.63583"
       r="15.358513"
       gradientTransform="matrix(1.8807521,-0.25355285,0.24022262,1.7818739,-115.6527,-142.09606)"
       gradientUnits="userSpaceOnUse" />
    <radialGradient
       xlink:href="#linearGradient4211-1"
       id="radialGradient16"
       cx="74.261223"
       cy="205.63583"
       fx="74.261223"
       fy="205.63583"
       r="15.358513"
       gradientTransform="matrix(1.8807521,-0.25355285,0.24022262,1.7818739,-115.6527,-142.09606)"
       gradientUnits="userSpaceOnUse" />
    <radialGradient
       xlink:href="#linearGradient4211-1"
       id="radialGradient18"
       cx="74.261223"
       cy="205.63583"
       fx="74.261223"
       fy="205.63583"
       r="15.358513"
       gradientTransform="matrix(1.8807521,-0.25355285,0.24022262,1.7818739,-115.6527,-142.09606)"
       gradientUnits="userSpaceOnUse" />
    <radialGradient
       xlink:href="#linearGradient4211-1"
       id="radialGradient20"
       cx="74.261223"
       cy="205.63583"
       fx="74.261223"
       fy="205.63583"
       r="15.358513"
       gradientTransform="matrix(1.8807521,-0.25355285,0.24022262,1.7818739,-115.6527,-142.09606)"
       gradientUnits="userSpaceOnUse" />
    <linearGradient
       id="linearGradient4199">
      <stop
         style="stop-color:#d4d4d4;stop-opacity:1"
         offset="0"
         id="stop4201" />
      <stop
         style="stop-color:#000000;stop-opacity:1"
         offset="1"
         id="stop4203" />
    </linearGradient>
    <radialGradient
       xlink:href="#linearGradient4211-1"
       id="radialGradient1-4"
       cx="74.261223"
       cy="205.63583"
       fx="74.261223"
       fy="205.63583"
       r="15.358513"
       gradientTransform="matrix(1.8807521,-0.25355285,0.24022262,1.7818739,-115.6527,-142.09606)"
       gradientUnits="userSpaceOnUse" />
    <radialGradient
       xlink:href="#linearGradient4211-1"
       id="radialGradient2-2"
       cx="74.261223"
       cy="205.63583"
       fx="74.261223"
       fy="205.63583"
       r="15.358513"
       gradientTransform="matrix(1.8807521,-0.25355285,0.24022262,1.7818739,-115.6527,-142.09606)"
       gradientUnits="userSpaceOnUse" />
    <radialGradient
       xlink:href="#linearGradient4211-1"
       id="radialGradient4-8"
       cx="74.261223"
       cy="205.63583"
       fx="74.261223"
       fy="205.63583"
       r="15.358513"
       gradientTransform="matrix(1.8807521,-0.25355285,0.24022262,1.7818739,-115.6527,-142.09606)"
       gradientUnits="userSpaceOnUse" />
    <radialGradient
       xlink:href="#linearGradient4211-1"
       id="radialGradient6-1"
       cx="74.261223"
       cy="205.63583"
       fx="74.261223"
       fy="205.63583"
       r="15.358513"
       gradientTransform="matrix(1.8807521,-0.25355285,0.24022262,1.7818739,-115.6527,-142.09606)"
       gradientUnits="userSpaceOnUse" />
    <radialGradient
       xlink:href="#linearGradient4211-1"
       id="radialGradient8-6"
       cx="74.261223"
       cy="205.63583"
       fx="74.261223"
       fy="205.63583"
       r="15.358513"
       gradientTransform="matrix(1.8807521,-0.25355285,0.24022262,1.7818739,-115.6527,-142.09606)"
       gradientUnits="userSpaceOnUse" />
    <radialGradient
       xlink:href="#linearGradient4211-1"
       id="radialGradient11-7"
       cx="74.261223"
       cy="205.63583"
       fx="74.261223"
       fy="205.63583"
       r="15.358513"
       gradientTransform="matrix(1.8807521,-0.25355285,0.24022262,1.7818739,-115.6527,-142.09606)"
       gradientUnits="userSpaceOnUse" />
    <radialGradient
       xlink:href="#linearGradient4211-1"
       id="radialGradient12-0"
       cx="74.261223"
       cy="205.63583"
       fx="74.261223"
       fy="205.63583"
       r="15.358513"
       gradientTransform="matrix(1.8807521,-0.25355285,0.24022262,1.7818739,-115.6527,-142.09606)"
       gradientUnits="userSpaceOnUse" />
    <radialGradient
       xlink:href="#linearGradient4211-1"
       id="radialGradient14-6"
       cx="74.261223"
       cy="205.63583"
       fx="74.261223"
       fy="205.63583"
       r="15.358513"
       gradientTransform="matrix(1.8807521,-0.25355285,0.24022262,1.7818739,-115.6527,-142.09606)"
       gradientUnits="userSpaceOnUse" />
    <radialGradient
       xlink:href="#linearGradient4211-1"
       id="radialGradient16-1"
       cx="74.261223"
       cy="205.63583"
       fx="74.261223"
       fy="205.63583"
       r="15.358513"
       gradientTransform="matrix(1.8807521,-0.25355285,0.24022262,1.7818739,-115.6527,-142.09606)"
       gradientUnits="userSpaceOnUse" />
    <radialGradient
       xlink:href="#linearGradient4211-1"
       id="radialGradient18-7"
       cx="74.261223"
       cy="205.63583"
       fx="74.261223"
       fy="205.63583"
       r="15.358513"
       gradientTransform="matrix(1.8807521,-0.25355285,0.24022262,1.7818739,-115.6527,-142.09606)"
       gradientUnits="userSpaceOnUse" />
    <radialGradient
       xlink:href="#linearGradient4211-1"
       id="radialGradient20-3"
       cx="74.261223"
       cy="205.63583"
       fx="74.261223"
       fy="205.63583"
       r="15.358513"
       gradientTransform="matrix(1.8807521,-0.25355285,0.24022262,1.7818739,-115.6527,-142.09606)"
       gradientUnits="userSpaceOnUse" />
    <linearGradient
       id="linearGradient49">
      <stop
         style="stop-color:#c28231;stop-opacity:1"
         offset="0"
         id="stop49" />
      <stop
         style="stop-color:#e1b986;stop-opacity:1;"
         offset="1"
         id="stop48" />
    </linearGradient>
    <linearGradient
       xlink:href="#linearGradient2"
       id="linearGradient3"
       x1="27.317568"
       y1="55.047298"
       x2="27.317568"
       y2="0.18243244"
       gradientUnits="userSpaceOnUse" />
    <linearGradient
       xlink:href="#linearGradient4211"
       id="linearGradient4217"
       x1="792.99518"
       y1="-328.26901"
       x2="792.99518"
       y2="-396.33221"
       gradientUnits="userSpaceOnUse"
       gradientTransform="matrix(0.0230829,0.09056201,-0.09283829,0.02366309,68.44159,104.34159)" />
    <linearGradient
       id="linearGradient4211">
      <stop
         style="stop-color:#806600;stop-opacity:1;"
         offset="0"
         id="stop4213" />
      <stop
         style="stop-color:#806600;stop-opacity:0;"
         offset="1"
         id="stop4215" />
    </linearGradient>
    <filter
       style="color-interpolation-filters:sRGB"
       id="filter4377-0-0-2-8"
       x="-0.24121349"
       width="1.482427"
       y="-0.067215401"
       height="1.1344308">
      <feGaussianBlur
         stdDeviation="4.2277418"
         id="feGaussianBlur4379-3-9-5-4" />
    </filter>
    <linearGradient
       xlink:href="#linearGradient49"
       id="linearGradient4"
       gradientUnits="userSpaceOnUse"
       gradientTransform="matrix(0.09976984,-0.02501379,0.02506671,0.09997413,67.926205,114.99159)"
       x1="312.56305"
       y1="553.90613"
       x2="366.26276"
       y2="557.1507" />
    <linearGradient
       xlink:href="#linearGradient4199"
       id="linearGradient5"
       gradientUnits="userSpaceOnUse"
       gradientTransform="matrix(0.09976984,-0.02501379,0.02506671,0.09997413,67.926205,114.99159)"
       x1="336.49805"
       y1="485.99902"
       x2="361.36771"
       y2="488.61685" />
    <filter
       style="color-interpolation-filters:sRGB"
       id="filter49"
       x="-0.1066144"
       y="-0.041720917"
       width="1.2132288"
       height="1.0834418">
      <feGaussianBlur
         stdDeviation="0.52309459"
         id="feGaussianBlur49" />
    </filter>
  </defs>
  <g
     id="layer2">
    <rect
       style="fill:url(#linearGradient3);fill-opacity:1;stroke:none;stroke-width:0"
       id="rect1"
       width="55"
       height="55"
       x="0"
       y="0" />
  </g>
  <g
     id="layer1"
     transform="translate(-100.7027,-137.91892)"
     style="display:inline">
    <path
       id="rect43"
       style="fill:#a8df86;fill-opacity:1;stroke-width:0.954609;-inkscape-stroke:none"
       d="M 134.83395 157.7606 C 134.4392 157.7848 134.06668 157.9578 133.77717 158.24016 L 133.77407 158.23809 C 132.97301 159.05877 132.17184 159.87899 131.3706 160.69944 L 131.37576 160.70358 C 131.17384 160.89818 131.00888 161.1427 130.91068 161.43686 L 120.57177 192.4081 C 120.51532 192.57722 120.49201 192.7485 120.48289 192.91866 L 139.28639 192.91866 L 148.67858 164.78085 C 148.99678 163.82762 148.53158 162.7878 147.63575 162.44921 L 135.50884 157.86499 C 135.2849 157.78029 135.05549 157.748 134.83292 157.76164 L 134.83395 157.7606 z " />
    <path
       id="rect11"
       style="fill:#8dd35f;stroke-width:0.954976;-inkscape-stroke:none"
       d="M 176.53418 103.13317 C 175.88269 103.40782 175.4274 104.05158 175.4274 104.80528 L 175.42728 137.45663 C 175.42728 137.63462 175.46046 137.80313 175.50781 137.96542 L 191.85002 131.87407 L 191.84995 104.80532 C 191.84995 103.80038 191.04089 102.9912 190.03595 102.9912 L 177.24128 102.9911 C 176.99005 102.9911 176.75135 103.04162 176.53418 103.13317 z "
       transform="matrix(0.93541248,0.35355833,-0.31664229,0.94854502,0,0)" />
    <path
       id="rect45"
       style="fill:#e3dedb;stroke-width:0.954609;-inkscape-stroke:none"
       d="M 134.08102 158.48356 L 134.08102 158.48407 C 133.72842 158.50567 133.39495 158.64693 133.12088 158.87733 C 133.46951 158.75531 133.85518 158.74445 134.22934 158.8856 L 146.35676 163.46982 C 147.25258 163.80841 147.71729 164.84823 147.39907 165.80146 L 138.34743 192.91866 L 138.77531 192.91866 L 147.92669 165.50277 C 148.24489 164.54954 147.77969 163.50972 146.88386 163.17113 L 134.75644 158.58691 C 134.53248 158.50221 134.3036 158.46987 134.08102 158.48356 z " />
    <path
       id="path52"
       style="fill:#447821;stroke-width:0.954609;-inkscape-stroke:none"
       d="M 142.57301 178.32369 L 137.70148 192.91866 L 139.28536 192.91866 L 144.11504 178.45185 L 142.57301 178.32369 z " />
    <path
       id="path48"
       style="opacity:0.5;fill:#1a2d0d;fill-opacity:1;stroke:none;stroke-width:0.264583px;stroke-linecap:butt;stroke-linejoin:miter;stroke-opacity:1;filter:url(#filter49)"
       d="M 148.86628 198.26949 L 146.78412 201.39466 C 146.95268 201.79796 146.98328 202.26138 146.82477 202.70762 L 137.71267 228.36056 L 139.39709 228.36056 L 149.38216 200.24796 C 149.64019 199.52153 149.41091 198.7473 148.86628 198.26949 z "
       transform="matrix(0.9406235,0,0,1.0008968,8.166216,-35.646693)" />
    <path
       id="rect51"
       style="fill:#447821;stroke-width:0.954609;-inkscape-stroke:none"
       d="M 127.21374 172.51112 L 121.75723 188.85741 L 132.50179 192.91866 L 137.70148 192.91866 L 142.5756 178.31749 L 127.21374 172.51112 z " />
    <g
       id="g7">
      <path
         id="rect4341"
         style="display:inline;overflow:visible;fill:#ffe083;fill-rule:evenodd;stroke-width:0.283874;stroke-opacity:0.690476;enable-background:accumulate"
         d="M 123.31786 156.51313 L 112.27719 159.32743 L 112.33196 159.38531 L 112.0095 160.5656 L 120.25551 192.91866 L 133.1555 192.91866 L 124.12091 157.4738 L 123.42638 156.84025 L 123.31786 156.51313 z " />
      <path
         id="rect4464"
         style="display:inline;overflow:visible;fill:#fff0c1;fill-rule:evenodd;stroke-width:0.283874;stroke-opacity:0.690476;enable-background:accumulate"
         d="M 114.63363 158.72644 L 112.27719 159.32743 L 112.33196 159.38531 L 112.0095 160.5656 L 120.25551 192.91866 L 123.37677 192.91866 L 114.66464 158.73832 C 114.66164 158.72772 114.64823 158.72274 114.63363 158.72644 z " />
      <path
         id="rect4466"
         style="display:inline;overflow:visible;fill:#d6a000;fill-rule:evenodd;stroke-width:0.283874;stroke-opacity:0.690476;enable-background:accumulate"
         d="M 123.31786 156.51313 L 121.79702 156.90071 C 121.78252 156.90471 121.77282 156.91623 121.77532 156.92603 L 130.94943 192.91866 L 133.1555 192.91866 L 124.12143 157.4738 L 123.42638 156.84025 L 123.31786 156.51313 z " />
      <path
         style="font-size:4.93334px;line-height:1.25;letter-spacing:0px;word-spacing:0px;fill:url(#linearGradient4217);stroke-width:0.0946246px"
         d="m 119.74024,166.90961 q -0.21439,0.0547 -0.44697,0.0174 -0.23202,-0.0351 -0.41855,-0.15939 -0.2028,-0.13668 -0.35182,-0.35065 -0.14843,-0.21175 -0.23296,-0.54339 -0.0907,-0.35598 -0.0895,-0.66004 0.002,-0.30187 0.0722,-0.63298 l 0.61116,-0.15578 0.008,0.0309 q -0.16796,0.30888 -0.21024,0.66814 -0.0423,0.35926 0.031,0.64669 0.10369,0.40682 0.33121,0.589 0.2281,0.18439 0.51149,0.11216 0.24397,-0.0622 0.33218,-0.20005 0.0888,-0.13565 0.0971,-0.37087 0.007,-0.17839 -0.0105,-0.38111 -0.017,-0.20052 -0.0229,-0.42977 -0.008,-0.46415 0.18672,-0.73985 0.19782,-0.27412 0.5995,-0.3765 0.46084,-0.11746 0.84313,0.15713 0.38477,0.27396 0.52171,0.81124 0.0885,0.34712 0.0883,0.65561 -1.4e-4,0.30849 -0.0516,0.55943 l -0.57666,0.14698 -0.008,-0.0309 q 0.12953,-0.23317 0.16703,-0.57002 0.0405,-0.33526 -0.0412,-0.65585 -0.0896,-0.35155 -0.30691,-0.52456 -0.21676,-0.17079 -0.47305,-0.10547 -0.22918,0.0584 -0.33274,0.19783 -0.10356,0.13942 -0.10437,0.42454 0.002,0.15029 0.0188,0.42375 0.0172,0.27347 0.0116,0.46796 -0.0149,0.39466 -0.18687,0.63629 -0.17199,0.24162 -0.56629,0.34212 z m 2.45075,0.56443 -0.11947,-0.46873 0.48055,-0.12248 0.11947,0.46873 z m -3.22025,0.79255 -0.10595,-0.41567 2.75266,-0.70161 0.10595,0.41567 z m 0.31671,1.24257 -0.10595,-0.41567 3.83451,-0.97736 0.10595,0.41567 z m 2.06483,2.5512 -0.4638,-1.81964 q -0.25383,0.0647 -0.4261,0.18162 -0.16982,0.1163 -0.26015,0.26645 -0.089,0.14512 -0.10811,0.31718 -0.0186,0.17426 0.0299,0.3644 0.0643,0.25206 0.23995,0.47805 0.17874,0.22759 0.31478,0.30828 l 0.006,0.0221 -0.50519,0.12877 q -0.15216,-0.1849 -0.27444,-0.38685 -0.12229,-0.20194 -0.18371,-0.44293 -0.15667,-0.61465 0.12507,-1.05379 0.28419,-0.43976 0.96682,-0.61375 0.67522,-0.17211 1.15595,0.0562 0.4813,0.23052 0.6188,0.77 0.12737,0.49968 -0.12917,0.85233 -0.25598,0.35487 -0.85481,0.5075 z m 0.25174,-0.49506 q 0.36425,-0.0948 0.52207,-0.30966 0.15846,-0.21228 0.0739,-0.54393 -0.0851,-0.33386 -0.35513,-0.47695 -0.26948,-0.14087 -0.60154,-0.0845 z m -0.89305,3.52881 -0.10595,-0.41566 1.56732,-0.39949 q 0.18975,-0.0484 0.34979,-0.11037 0.1625,-0.0626 0.24262,-0.13955 0.0894,-0.0816 0.11221,-0.19812 0.0253,-0.11712 -0.017,-0.28294 -0.0434,-0.17025 -0.18434,-0.33211 -0.14094,-0.16186 -0.32976,-0.29505 l -2.05526,0.52386 -0.10595,-0.41566 2.75267,-0.70161 0.10594,0.41566 -0.30558,0.0779 q 0.22949,0.14872 0.3835,0.33081 0.15405,0.18206 0.20984,0.40095 0.10201,0.40019 -0.11308,0.6787 -0.21507,0.2785 -0.72026,0.40727 z m 0.55552,2.07647 q -0.0644,-0.1084 -0.12205,-0.24203 -0.0571,-0.13143 -0.0847,-0.23976 -0.0964,-0.37808 0.0802,-0.63265 0.17655,-0.25457 0.67682,-0.38208 l 1.46381,-0.3731 -0.0716,-0.28079 0.38937,-0.0993 0.0716,0.28079 0.79105,-0.20162 0.10595,0.41567 -0.79105,0.20162 0.21865,0.85787 -0.38936,0.0992 -0.21866,-0.85786 -1.25435,0.31971 q -0.21686,0.0553 -0.33774,0.0959 -0.11841,0.04 -0.21092,0.11974 -0.0862,0.0738 -0.11159,0.16972 -0.0224,0.0975 0.0221,0.27222 0.0259,0.10171 0.0861,0.20409 0.0627,0.10176 0.0973,0.14475 l 0.006,0.0221 z m 0.75191,3.05301 -0.13807,-0.54169 2.88464,-2.39761 -3.28251,0.83666 -0.10425,-0.40903 3.6694,-0.93528 0.17301,0.67877 -2.63371,2.18767 2.99663,-0.7638 0.10426,0.40904 z m 2.1263,2.59676 q -0.67276,0.17148 -1.14102,-0.0388 -0.46827,-0.21029 -0.6007,-0.72987 -0.13356,-0.52401 0.17691,-0.93279 0.31103,-0.40657 0.9838,-0.57805 0.67276,-0.17147 1.14046,0.0366 0.47073,0.20966 0.60429,0.73367 0.13244,0.51958 -0.1805,0.92899 -0.31047,0.40878 -0.98324,0.58026 z m -0.10932,-0.42894 q 0.53476,-0.1363 0.74561,-0.39018 0.21332,-0.25452 0.12822,-0.58837 -0.0862,-0.33829 -0.39534,-0.45964 -0.3061,-0.11977 -0.84086,0.0165 -0.51751,0.1319 -0.73822,0.38831 -0.21824,0.25577 -0.13258,0.59184 0.0845,0.33165 0.39612,0.45237 0.3146,0.12231 0.83705,-0.0109 z m -0.75028,2.69891 q -0.0644,-0.10839 -0.12205,-0.24202 -0.0571,-0.13142 -0.0847,-0.23977 -0.0964,-0.37807 0.0802,-0.63264 0.17656,-0.25456 0.67682,-0.38207 l 1.46382,-0.37311 -0.0716,-0.28079 0.38937,-0.0992 0.0716,0.28079 0.79105,-0.20163 0.10595,0.41567 -0.79105,0.20163 0.21866,0.85785 -0.38937,0.0992 -0.21865,-0.85786 -1.25435,0.31972 q -0.21687,0.0553 -0.33774,0.0959 -0.11841,0.04 -0.21095,0.11965 -0.0862,0.0738 -0.11159,0.16972 -0.0224,0.0976 0.0221,0.27222 0.0259,0.1017 0.0861,0.20409 0.0627,0.10176 0.0973,0.14474 l 0.006,0.0221 z m 1.95847,2.2369 -0.4638,-1.81964 q -0.25382,0.0647 -0.4261,0.18162 -0.16982,0.1163 -0.26014,0.26645 -0.089,0.14512 -0.10812,0.31718 -0.0186,0.17426 0.0299,0.3644 0.0642,0.25206 0.23995,0.47805 0.17873,0.22759 0.31478,0.30828 l 0.006,0.0221 -0.50519,0.12877 q -0.15216,-0.1849 -0.27444,-0.38685 -0.12228,-0.20193 -0.18371,-0.44293 -0.15666,-0.61465 0.12507,-1.05378 0.2842,-0.43977 0.96683,-0.61376 0.67522,-0.17211 1.15595,0.0562 0.48129,0.23052 0.6188,0.77 0.12736,0.49969 -0.12918,0.85234 -0.25598,0.35487 -0.85481,0.5075 z m 0.25174,-0.49507 q 0.36425,-0.0948 0.52207,-0.30966 0.15846,-0.21228 0.0739,-0.54392 -0.0851,-0.33386 -0.35513,-0.47695 -0.26948,-0.14088 -0.60154,-0.0845 z m -0.17618,3.02586 q -0.37705,0.0961 -0.69011,-0.12314 -0.31252,-0.21702 -0.43593,-0.70123 -0.0699,-0.27416 -0.057,-0.52233 0.0159,-0.24659 0.0627,-0.42333 l 0.51997,-0.13254 0.006,0.0221 q -0.11495,0.23887 -0.1521,0.505 -0.0346,0.26547 0.0217,0.48657 0.0699,0.27417 0.20795,0.4038 0.13807,0.12963 0.34996,0.0756 0.16264,-0.0415 0.22502,-0.1468 0.0624,-0.10534 0.0607,-0.35923 -3.5e-4,-0.0941 -0.007,-0.24535 -0.007,-0.14904 -0.002,-0.27501 0.0133,-0.34953 0.16315,-0.5337 0.15292,-0.18261 0.424,-0.2517 0.17003,-0.0434 0.33615,-0.0197 0.16668,0.0258 0.31765,0.12389 0.14737,0.0943 0.26237,0.26748 0.11809,0.17476 0.17839,0.41133 0.0563,0.2211 0.0523,0.46232 -0.001,0.2428 -0.049,0.41514 l -0.49533,0.12625 -0.006,-0.0221 q 0.09,-0.19248 0.1207,-0.44282 0.0331,-0.25097 -0.0227,-0.46986 -0.058,-0.22773 -0.19657,-0.3596 -0.13618,-0.13247 -0.32835,-0.0835 -0.17003,0.0433 -0.23205,0.1604 -0.0626,0.11484 -0.0638,0.33649 -2.6e-4,0.12252 0.006,0.27155 0.007,0.15125 0.007,0.25261 -1.4e-4,0.30849 -0.13999,0.51132 -0.14235,0.20346 -0.443,0.28009 z"
         id="text4207"
         aria-label="SilentNotes" />
      <path
         id="path4348-0-3-4-5"
         style="fill:url(#linearGradient4);fill-opacity:1;fill-rule:evenodd;stroke:none;stroke-width:0.0994808px;stroke-linecap:butt;stroke-linejoin:miter;stroke-opacity:1"
         d="m 124.12665,157.49501 c -3.36212,-4.82419 -6.72427,-9.64837 -10.08639,-14.47257 -0.67955,5.8375 -1.35888,11.67495 -2.03844,17.51245 0,0 0.0375,-0.003 0.0393,-0.003 0.16907,-0.52832 0.49961,-0.87308 0.91164,-0.91702 0.41204,-0.0439 0.99576,-0.14167 1.64048,0.2392 0.0674,0.0398 0.47943,0.35367 0.47943,0.35367 0,0 1.40478,-1.55717 2.97382,-1.95559 1.40244,-0.3492 2.98048,-0.33401 4.0696,-0.007 0.0467,-0.54199 0.14149,-0.98685 0.53065,-1.15489 0.44273,-0.18612 0.99365,-0.0271 1.44963,0.41844 8.9e-4,-5.5e-4 0.0303,-0.0139 0.0303,-0.0139 z" />
      <path
         style="fill:url(#linearGradient5);fill-opacity:1;fill-rule:evenodd;stroke:none;stroke-width:0.0994808px;stroke-linecap:butt;stroke-linejoin:miter;stroke-opacity:1"
         d="m 114.04018,143.02209 c -0.26736,2.29646 -0.5347,4.59291 -0.80206,6.88937 0.82192,0.0955 1.67508,0.0386 2.50169,-0.1669 0.82033,-0.20806 1.59461,-0.55743 2.2709,-1.02532 -1.32352,-1.89905 -2.64703,-3.7981 -3.97053,-5.69716 z"
         id="path4392-3-8-1-5" />
      <path
         id="path4235-4-6-9-0"
         style="opacity:0.4;fill:#ffffff;fill-rule:evenodd;stroke:none;stroke-width:1px;stroke-linecap:butt;stroke-linejoin:miter;stroke-opacity:1;filter:url(#filter4377-0-0-2-8)"
         d="m 317.93475,600.89255 42.06473,-148.52781 c -6.64517,47.95271 -13.29114,95.90156 -19.93631,143.85426 a 53.881344,27.435267 0 0 0 -20.92304,7.10192 14.138656,18.821853 11.542312 0 0 -1.20538,-2.42837 z"
         transform="matrix(-0.0931347,0.02335026,0.02506671,0.09997413,136.55499,90.448879)" />
    </g>
  </g>
</svg>
