<?xml version="1.0" encoding="UTF-8" standalone="no"?>
<!-- Created with Inkscape (http://www.inkscape.org/) -->

<svg
   width="210mm"
   height="297mm"
   viewBox="0 0 210 297"
   version="1.1"
   id="svg1"
   sodipodi:docname="SilentNotesLogo.svg"
   inkscape:version="1.3 (0e150ed6c4, 2023-07-21)"
   xmlns:inkscape="http://www.inkscape.org/namespaces/inkscape"
   xmlns:sodipodi="http://sodipodi.sourceforge.net/DTD/sodipodi-0.dtd"
   xmlns:xlink="http://www.w3.org/1999/xlink"
   xmlns="http://www.w3.org/2000/svg"
   xmlns:svg="http://www.w3.org/2000/svg">
  <sodipodi:namedview
     id="namedview1"
     pagecolor="#ffffff"
     bordercolor="#666666"
     borderopacity="1.0"
     inkscape:showpageshadow="2"
     inkscape:pageopacity="0.0"
     inkscape:pagecheckerboard="0"
     inkscape:deskcolor="#d1d1d1"
     inkscape:document-units="mm"
     inkscape:zoom="0.72515432"
     inkscape:cx="711.57268"
     inkscape:cy="479.20834"
     inkscape:window-width="1704"
     inkscape:window-height="893"
     inkscape:window-x="224"
     inkscape:window-y="11"
     inkscape:window-maximized="0"
     inkscape:current-layer="layer1" />
  <defs
     id="defs1">
    <inkscape:path-effect
       effect="bspline"
       id="path-effect189"
       is_visible="true"
       lpeversion="1.3"
       weight="33.333333"
       steps="2"
       helper_size="0"
       apply_no_weight="true"
       apply_with_weight="true"
       only_selected="false"
       uniform="false" />
    <inkscape:path-effect
       effect="bspline"
       id="path-effect147"
       is_visible="true"
       lpeversion="1.3"
       weight="33.333333"
       steps="2"
       helper_size="0"
       apply_no_weight="true"
       apply_with_weight="true"
       only_selected="false"
       uniform="false" />
    <inkscape:path-effect
       effect="bspline"
       id="path-effect85"
       is_visible="true"
       lpeversion="1.3"
       weight="33.333333"
       steps="2"
       helper_size="0"
       apply_no_weight="true"
       apply_with_weight="true"
       only_selected="false"
       uniform="false" />
    <inkscape:path-effect
       effect="bspline"
       id="path-effect83"
       is_visible="true"
       lpeversion="1.3"
       weight="33.333333"
       steps="2"
       helper_size="0"
       apply_no_weight="true"
       apply_with_weight="true"
       only_selected="false"
       uniform="false" />
    <inkscape:path-effect
       effect="skeletal"
       id="path-effect61"
       is_visible="true"
       lpeversion="1"
       pattern="M 0,0 H 1"
       copytype="single_stretched"
       prop_scale="1"
       scale_y_rel="false"
       spacing="0"
       normal_offset="0"
       tang_offset="0"
       prop_units="false"
       vertical_pattern="false"
       hide_knot="false"
       fuse_tolerance="0" />
    <inkscape:path-effect
       effect="bspline"
       id="path-effect12"
       is_visible="true"
       lpeversion="1.3"
       weight="33.333333"
       steps="2"
       helper_size="0"
       apply_no_weight="true"
       apply_with_weight="true"
       only_selected="false"
       uniform="false" />
    <inkscape:path-effect
       effect="bspline"
       id="path-effect4"
       is_visible="true"
       lpeversion="1.3"
       weight="33.333333"
       steps="2"
       helper_size="0"
       apply_no_weight="true"
       apply_with_weight="true"
       only_selected="false"
       uniform="false" />
    <inkscape:path-effect
       effect="bspline"
       id="path-effect1"
       is_visible="true"
       lpeversion="1.3"
       weight="33.333333"
       steps="2"
       helper_size="0"
       apply_no_weight="true"
       apply_with_weight="true"
       only_selected="false"
       uniform="false" />
    <inkscape:path-effect
       effect="bspline"
       id="path-effect1-9"
       is_visible="true"
       lpeversion="1.3"
       weight="33.333333"
       steps="2"
       helper_size="0"
       apply_no_weight="true"
       apply_with_weight="true"
       only_selected="false"
       uniform="false" />
    <inkscape:path-effect
       effect="bspline"
       id="path-effect1-3"
       is_visible="true"
       lpeversion="1.3"
       weight="33.333333"
       steps="2"
       helper_size="0"
       apply_no_weight="true"
       apply_with_weight="true"
       only_selected="false"
       uniform="false" />
    <inkscape:path-effect
       effect="bspline"
       id="path-effect1-7"
       is_visible="true"
       lpeversion="1.3"
       weight="33.333333"
       steps="2"
       helper_size="0"
       apply_no_weight="true"
       apply_with_weight="true"
       only_selected="false"
       uniform="false" />
    <inkscape:path-effect
       effect="bspline"
       id="path-effect1-4"
       is_visible="true"
       lpeversion="1.3"
       weight="33.333333"
       steps="2"
       helper_size="0"
       apply_no_weight="true"
       apply_with_weight="true"
       only_selected="false"
       uniform="false" />
    <linearGradient
       inkscape:collect="always"
       xlink:href="#linearGradient4199"
       id="linearGradient4205"
       x1="336.49805"
       y1="485.99902"
       x2="361.36771"
       y2="488.61685"
       gradientUnits="userSpaceOnUse"
       gradientTransform="matrix(0,-0.09874091,0.09874091,0,72.187703,86.395435)" />
    <linearGradient
       inkscape:collect="always"
       id="linearGradient4199">
      <stop
         style="stop-color:#d4d4d4;stop-opacity:1"
         offset="0"
         id="stop4201" />
      <stop
         style="stop-color:#000000;stop-opacity:1"
         offset="1"
         id="stop4203" />
    </linearGradient>
    <linearGradient
       inkscape:collect="always"
       xlink:href="#linearGradient4165"
       id="linearGradient4171"
       x1="349.34433"
       y1="532.36218"
       x2="420"
       y2="532.36218"
       gradientUnits="userSpaceOnUse"
       gradientTransform="matrix(0,-0.09874091,0.09874091,0,72.187703,86.395435)" />
    <linearGradient
       inkscape:collect="always"
       id="linearGradient4165">
      <stop
         style="stop-color:#e1b986;stop-opacity:1;"
         offset="0"
         id="stop4167" />
      <stop
         style="stop-color:#c28231;stop-opacity:1"
         offset="1"
         id="stop4169" />
    </linearGradient>
    <filter
       inkscape:collect="always"
       style="color-interpolation-filters:sRGB"
       id="filter4377"
       x="-0.24121349"
       width="1.482427"
       y="-0.067215401"
       height="1.1344308">
      <feGaussianBlur
         inkscape:collect="always"
         stdDeviation="4.2277418"
         id="feGaussianBlur4379" />
    </filter>
    <linearGradient
       inkscape:collect="always"
       xlink:href="#linearGradient4211"
       id="linearGradient1256"
       gradientUnits="userSpaceOnUse"
       gradientTransform="matrix(0.1271473,0,-0.00793514,0.12714727,-5.1942762,60.743487)"
       x1="792.99518"
       y1="-328.26901"
       x2="792.99518"
       y2="-396.33221" />
    <linearGradient
       inkscape:collect="always"
       id="linearGradient4211">
      <stop
         style="stop-color:#806600;stop-opacity:1;"
         offset="0"
         id="stop4213" />
      <stop
         style="stop-color:#806600;stop-opacity:0;"
         offset="1"
         id="stop4215" />
    </linearGradient>
    <linearGradient
       inkscape:collect="always"
       xlink:href="#linearGradient4211"
       id="linearGradient12"
       gradientUnits="userSpaceOnUse"
       gradientTransform="matrix(0.1271473,0,-0.00793514,0.12714727,-5.1942762,60.743487)"
       x1="792.99518"
       y1="-328.26901"
       x2="792.99518"
       y2="-396.33221" />
    <linearGradient
       inkscape:collect="always"
       xlink:href="#linearGradient4211"
       id="linearGradient13"
       gradientUnits="userSpaceOnUse"
       gradientTransform="matrix(0.1271473,0,-0.00793514,0.12714727,-5.1942762,60.743487)"
       x1="792.99518"
       y1="-328.26901"
       x2="792.99518"
       y2="-396.33221" />
    <linearGradient
       inkscape:collect="always"
       xlink:href="#linearGradient4211"
       id="linearGradient14"
       gradientUnits="userSpaceOnUse"
       gradientTransform="matrix(0.1271473,0,-0.00793514,0.12714727,-5.1942762,60.743487)"
       x1="792.99518"
       y1="-328.26901"
       x2="792.99518"
       y2="-396.33221" />
    <linearGradient
       inkscape:collect="always"
       xlink:href="#linearGradient4211"
       id="linearGradient15"
       gradientUnits="userSpaceOnUse"
       gradientTransform="matrix(0.1271473,0,-0.00793514,0.12714727,-5.1942762,60.743487)"
       x1="792.99518"
       y1="-328.26901"
       x2="792.99518"
       y2="-396.33221" />
    <linearGradient
       inkscape:collect="always"
       xlink:href="#linearGradient4211"
       id="linearGradient16"
       gradientUnits="userSpaceOnUse"
       gradientTransform="matrix(0.1271473,0,-0.00793514,0.12714727,-5.1942762,60.743487)"
       x1="792.99518"
       y1="-328.26901"
       x2="792.99518"
       y2="-396.33221" />
    <linearGradient
       inkscape:collect="always"
       xlink:href="#linearGradient4211"
       id="linearGradient17"
       gradientUnits="userSpaceOnUse"
       gradientTransform="matrix(0.1271473,0,-0.00793514,0.12714727,-5.1942762,60.743487)"
       x1="792.99518"
       y1="-328.26901"
       x2="792.99518"
       y2="-396.33221" />
    <linearGradient
       inkscape:collect="always"
       xlink:href="#linearGradient4211"
       id="linearGradient18"
       gradientUnits="userSpaceOnUse"
       gradientTransform="matrix(0.1271473,0,-0.00793514,0.12714727,-5.1942762,60.743487)"
       x1="792.99518"
       y1="-328.26901"
       x2="792.99518"
       y2="-396.33221" />
    <linearGradient
       inkscape:collect="always"
       xlink:href="#linearGradient4211"
       id="linearGradient19"
       gradientUnits="userSpaceOnUse"
       gradientTransform="matrix(0.1271473,0,-0.00793514,0.12714727,-5.1942762,60.743487)"
       x1="792.99518"
       y1="-328.26901"
       x2="792.99518"
       y2="-396.33221" />
    <linearGradient
       inkscape:collect="always"
       xlink:href="#linearGradient4211"
       id="linearGradient20"
       gradientUnits="userSpaceOnUse"
       gradientTransform="matrix(0.1271473,0,-0.00793514,0.12714727,-5.1942762,60.743487)"
       x1="792.99518"
       y1="-328.26901"
       x2="792.99518"
       y2="-396.33221" />
    <linearGradient
       inkscape:collect="always"
       xlink:href="#linearGradient4211"
       id="linearGradient21"
       gradientUnits="userSpaceOnUse"
       gradientTransform="matrix(0.1271473,0,-0.00793514,0.12714727,-5.1942762,60.743487)"
       x1="792.99518"
       y1="-328.26901"
       x2="792.99518"
       y2="-396.33221" />
    <linearGradient
       inkscape:collect="always"
       xlink:href="#linearGradient4211"
       id="linearGradient161"
       gradientUnits="userSpaceOnUse"
       x1="142.03613"
       y1="75.739288"
       x2="136.14973"
       y2="64.596214"
       gradientTransform="translate(5.2916667,-26.458334)" />
    <linearGradient
       inkscape:collect="always"
       xlink:href="#linearGradient4211"
       id="linearGradient162"
       gradientUnits="userSpaceOnUse"
       x1="142.74562"
       y1="76.513283"
       x2="136.24648"
       y2="64.82196"
       gradientTransform="translate(5.2916667,-26.458334)" />
    <linearGradient
       inkscape:collect="always"
       xlink:href="#linearGradient4211"
       id="linearGradient163"
       gradientUnits="userSpaceOnUse"
       x1="143.42287"
       y1="77.351776"
       x2="136.47223"
       y2="65.402458"
       gradientTransform="translate(5.2916667,-26.458334)" />
    <linearGradient
       inkscape:collect="always"
       xlink:href="#linearGradient4211"
       id="linearGradient164"
       gradientUnits="userSpaceOnUse"
       x1="143.42287"
       y1="77.351776"
       x2="136.47223"
       y2="65.402458"
       gradientTransform="translate(5.2916667,-26.458334)" />
    <linearGradient
       inkscape:collect="always"
       xlink:href="#linearGradient4211"
       id="linearGradient165"
       gradientUnits="userSpaceOnUse"
       x1="143.42287"
       y1="77.351776"
       x2="136.47223"
       y2="65.402458"
       gradientTransform="translate(5.2916667,-26.458334)" />
    <linearGradient
       inkscape:collect="always"
       xlink:href="#linearGradient4211"
       id="linearGradient166"
       gradientUnits="userSpaceOnUse"
       x1="143.42287"
       y1="77.351776"
       x2="136.47223"
       y2="65.402458"
       gradientTransform="translate(5.2916667,-26.458334)" />
    <linearGradient
       inkscape:collect="always"
       xlink:href="#linearGradient4211"
       id="linearGradient167"
       gradientUnits="userSpaceOnUse"
       x1="143.42287"
       y1="77.351776"
       x2="136.47223"
       y2="65.402458"
       gradientTransform="translate(5.2916667,-26.458334)" />
    <linearGradient
       inkscape:collect="always"
       xlink:href="#linearGradient4211"
       id="linearGradient168"
       gradientUnits="userSpaceOnUse"
       x1="143.42287"
       y1="77.351776"
       x2="136.47223"
       y2="65.402458"
       gradientTransform="translate(5.2916667,-26.458334)" />
    <linearGradient
       inkscape:collect="always"
       xlink:href="#linearGradient4211"
       id="linearGradient169"
       gradientUnits="userSpaceOnUse"
       x1="143.42287"
       y1="77.351776"
       x2="136.47223"
       y2="65.402458"
       gradientTransform="translate(5.2916667,-26.458334)" />
    <linearGradient
       inkscape:collect="always"
       xlink:href="#linearGradient4211"
       id="linearGradient170"
       gradientUnits="userSpaceOnUse"
       x1="143.42287"
       y1="77.351776"
       x2="136.47223"
       y2="65.402458"
       gradientTransform="translate(5.2916667,-26.458334)" />
    <linearGradient
       inkscape:collect="always"
       xlink:href="#linearGradient4211"
       id="linearGradient171"
       gradientUnits="userSpaceOnUse"
       x1="143.42287"
       y1="77.351776"
       x2="136.47223"
       y2="65.402458"
       gradientTransform="translate(5.2916667,-26.458334)" />
    <linearGradient
       inkscape:collect="always"
       xlink:href="#linearGradient4165"
       id="linearGradient205"
       gradientUnits="userSpaceOnUse"
       gradientTransform="matrix(0,-0.09874091,0.09874091,0,71.478584,59.96935)"
       x1="349.34433"
       y1="532.36218"
       x2="420"
       y2="532.36218" />
    <linearGradient
       inkscape:collect="always"
       xlink:href="#linearGradient4199"
       id="linearGradient206"
       gradientUnits="userSpaceOnUse"
       gradientTransform="matrix(0,-0.09874091,0.09874091,0,71.478584,59.96935)"
       x1="336.49805"
       y1="485.99902"
       x2="361.36771"
       y2="488.61685" />
    <linearGradient
       inkscape:collect="always"
       xlink:href="#linearGradient4165"
       id="linearGradient282"
       gradientUnits="userSpaceOnUse"
       gradientTransform="matrix(0,-0.09874091,0.09874091,0,72.187703,86.395435)"
       x1="349.34433"
       y1="532.36218"
       x2="420"
       y2="532.36218" />
    <linearGradient
       inkscape:collect="always"
       xlink:href="#linearGradient4199"
       id="linearGradient283"
       gradientUnits="userSpaceOnUse"
       gradientTransform="matrix(0,-0.09874091,0.09874091,0,72.187703,86.395435)"
       x1="336.49805"
       y1="485.99902"
       x2="361.36771"
       y2="488.61685" />
    <linearGradient
       inkscape:collect="always"
       xlink:href="#linearGradient4211"
       id="linearGradient284"
       gradientUnits="userSpaceOnUse"
       gradientTransform="translate(5.2916667,-26.458334)"
       x1="142.03613"
       y1="75.739288"
       x2="136.14973"
       y2="64.596214" />
    <linearGradient
       inkscape:collect="always"
       xlink:href="#linearGradient4211"
       id="linearGradient285"
       gradientUnits="userSpaceOnUse"
       gradientTransform="translate(5.2916667,-26.458334)"
       x1="142.74562"
       y1="76.513283"
       x2="136.24648"
       y2="64.82196" />
    <linearGradient
       inkscape:collect="always"
       xlink:href="#linearGradient4211"
       id="linearGradient286"
       gradientUnits="userSpaceOnUse"
       gradientTransform="translate(5.2916667,-26.458334)"
       x1="143.42287"
       y1="77.351776"
       x2="136.47223"
       y2="65.402458" />
    <linearGradient
       inkscape:collect="always"
       xlink:href="#linearGradient4211"
       id="linearGradient287"
       gradientUnits="userSpaceOnUse"
       gradientTransform="translate(5.2916667,-26.458334)"
       x1="143.42287"
       y1="77.351776"
       x2="136.47223"
       y2="65.402458" />
    <linearGradient
       inkscape:collect="always"
       xlink:href="#linearGradient4211"
       id="linearGradient288"
       gradientUnits="userSpaceOnUse"
       gradientTransform="translate(5.2916667,-26.458334)"
       x1="143.42287"
       y1="77.351776"
       x2="136.47223"
       y2="65.402458" />
    <linearGradient
       inkscape:collect="always"
       xlink:href="#linearGradient4211"
       id="linearGradient289"
       gradientUnits="userSpaceOnUse"
       gradientTransform="translate(5.2916667,-26.458334)"
       x1="143.42287"
       y1="77.351776"
       x2="136.47223"
       y2="65.402458" />
    <linearGradient
       inkscape:collect="always"
       xlink:href="#linearGradient4211"
       id="linearGradient290"
       gradientUnits="userSpaceOnUse"
       gradientTransform="translate(5.2916667,-26.458334)"
       x1="143.42287"
       y1="77.351776"
       x2="136.47223"
       y2="65.402458" />
    <linearGradient
       inkscape:collect="always"
       xlink:href="#linearGradient4211"
       id="linearGradient291"
       gradientUnits="userSpaceOnUse"
       gradientTransform="translate(5.2916667,-26.458334)"
       x1="143.42287"
       y1="77.351776"
       x2="136.47223"
       y2="65.402458" />
    <linearGradient
       inkscape:collect="always"
       xlink:href="#linearGradient4211"
       id="linearGradient292"
       gradientUnits="userSpaceOnUse"
       gradientTransform="translate(5.2916667,-26.458334)"
       x1="143.42287"
       y1="77.351776"
       x2="136.47223"
       y2="65.402458" />
    <linearGradient
       inkscape:collect="always"
       xlink:href="#linearGradient4211"
       id="linearGradient293"
       gradientUnits="userSpaceOnUse"
       gradientTransform="translate(5.2916667,-26.458334)"
       x1="143.42287"
       y1="77.351776"
       x2="136.47223"
       y2="65.402458" />
    <linearGradient
       inkscape:collect="always"
       xlink:href="#linearGradient4211"
       id="linearGradient294"
       gradientUnits="userSpaceOnUse"
       gradientTransform="translate(5.2916667,-26.458334)"
       x1="143.42287"
       y1="77.351776"
       x2="136.47223"
       y2="65.402458" />
  </defs>
  <g
     inkscape:label="Layer 1"
     inkscape:groupmode="layer"
     id="layer1">
    <path
       style="fill:none;stroke:#ffe083;stroke-width:12;stroke-linecap:butt;stroke-linejoin:miter;stroke-dasharray:none;stroke-opacity:1"
       d="m 50,50 c 6.666668,0 13.333198,0 17.499949,-2.500051 C 71.666701,44.999898 73.3333,40.0001 78.3334,37.50005 83.3335,35 91.666666,35 100,35"
       id="path1"
       inkscape:path-effect="#path-effect1"
       inkscape:original-d="m 50,50 c 6.666668,0 13.333198,0 20,0 1.666701,-5.000102 3.3333,-9.9999 5,-15 8.3335,0 16.666666,0 25,0"
       sodipodi:nodetypes="cccc" />
    <circle
       style="fill:#57b0e3;fill-opacity:1;stroke:none;stroke-width:0;stroke-dasharray:none;stroke-opacity:1"
       id="path2"
       cx="127.35881"
       cy="161.72943"
       r="29.423483" />
    <path
       id="path5"
       style="color:#000000;fill:#ffa683;fill-opacity:1;-inkscape-stroke:none"
       d="m 245.6563,31.099609 c -5.52632,0.10114 -11.35999,0.559772 -16.31641,3.31571 -3.78686,2.013421 -6.13304,5.730463 -9.05468,8.723353 -1.41196,1.380574 -3.35941,1.980949 -5.27795,2.204151 -3.11237,0.543898 -6.2775,0.672235 -9.43104,0.731396 L 197.18433,46 v 7.8 l 8.39189,0.09844 c 4.93737,0.03899 9.98019,0.103209 14.65914,-1.724761 3.74217,-1.382283 6.65619,-4.295057 9.00725,-7.428013 1.74354,-2.163272 4.00179,-4.201574 6.86152,-4.590822 5.00614,-1.08275 10.15339,-1.115713 15.25139,-1.250545 3.27348,-0.100981 7.09756,-0.0043 7.09756,-0.0043 l 0.18944,-7.8 c 0,0 -1.54973,-0.07276 -7.3003,0.0074 -1.89519,-0.01275 -3.79034,-0.01222 -5.68555,-0.0078 z"
       sodipodi:nodetypes="ccccccccccccccccc" />
    <g
       id="g21">
      <path
         d="m 73.685886,16.125658 q -0.0171,0.274102 -0.16109,0.541903 -0.14087,0.267801 -0.37908,0.453687 -0.26092,0.201638 -0.60015,0.315059 -0.33612,0.113422 -0.80174,0.113422 -0.49978,0 -0.89432,-0.09452 -0.39144,-0.09452 -0.79269,-0.280403 l 0.0487,-0.781348 h 0.0434 q 0.33228,0.296156 0.78167,0.456836 0.44939,0.16068 0.85294,0.16068 0.57117,0 0.90136,-0.217391 0.3333,-0.21739 0.35591,-0.579709 0.0195,-0.311909 -0.12339,-0.459987 -0.13976,-0.148078 -0.44197,-0.229995 -0.22887,-0.06301 -0.49949,-0.103969 -0.26751,-0.04096 -0.56778,-0.103969 -0.60637,-0.132326 -0.88451,-0.450537 -0.27485,-0.321361 -0.2428,-0.834908 0.0367,-0.589164 0.55063,-0.964084 0.51406,-0.378071 1.26838,-0.378071 0.48735,0 0.8881,0.09452 0.40075,0.09452 0.70562,0.233144 l -0.046,0.73724 h -0.0434 q -0.2497,-0.226845 -0.67194,-0.374923 -0.41894,-0.151228 -0.86904,-0.151228 -0.49356,0 -0.80765,0.207939 -0.31098,0.207939 -0.33143,0.535602 -0.0183,0.293006 0.1203,0.459989 0.13857,0.166981 0.50867,0.255197 0.19592,0.04411 0.55828,0.10712 0.36236,0.06302 0.61277,0.129175 0.50664,0.138626 0.7499,0.41903 0.24325,0.280404 0.21179,0.784499 z"
         style="font-size:52.1359px;line-height:1.25;letter-spacing:0px;word-spacing:0px;fill:url(#linearGradient12);stroke-width:0.122847px"
         id="path806" />
      <path
         d="m 75.426346,13.356283 h -0.6581 l 0.0383,-0.614369 h 0.65809 z m -0.29365,4.108379 h -0.5836 l 0.21964,-3.519218 h 0.58358 z"
         style="font-size:52.1359px;line-height:1.25;letter-spacing:0px;word-spacing:0px;fill:url(#linearGradient13);stroke-width:0.122847px"
         id="path808" />
      <path
         d="m 76.877246,17.464662 h -0.5836 l 0.30595,-4.90233 h 0.5836 z"
         style="font-size:52.1359px;line-height:1.25;letter-spacing:0px;word-spacing:0px;fill:url(#linearGradient14);stroke-width:0.122847px"
         id="path810" />
      <path
         d="m 81.040386,15.766491 h -2.55474 q -0.0203,0.324512 0.0608,0.567106 0.0813,0.239445 0.23928,0.393826 0.15198,0.151228 0.36765,0.226842 0.21879,0.07562 0.48575,0.07562 0.35388,0 0.7197,-0.141778 0.36914,-0.144928 0.52989,-0.283554 h 0.0311 l -0.0403,0.645872 q -0.30276,0.126024 -0.61539,0.21109 -0.31261,0.08507 -0.65097,0.08507 -0.86296,0 -1.31773,-0.472589 -0.45456,-0.475741 -0.40009,-1.348456 0.0539,-0.863265 0.54806,-1.370511 0.49728,-0.507248 1.2547,-0.507248 0.70155,0 1.0543,0.415879 0.35586,0.41588 0.30808,1.181475 z m -0.53975,-0.453687 q 0.026,-0.466289 -0.18779,-0.721488 -0.21068,-0.255198 -0.6763,-0.255198 -0.46874,0 -0.76561,0.280403 -0.29377,0.280403 -0.35698,0.696283 z"
         style="font-size:52.1359px;line-height:1.25;letter-spacing:0px;word-spacing:0px;fill:url(#linearGradient15);stroke-width:0.122847px"
         id="path812" />
      <path
         d="m 84.718406,17.464662 h -0.58359 l 0.12506,-2.00378 q 0.0152,-0.242597 3.8e-4,-0.453687 -0.0146,-0.214241 -0.0816,-0.333964 -0.0693,-0.132325 -0.21132,-0.195336 -0.14176,-0.06617 -0.37457,-0.06617 -0.23903,0 -0.50725,0.119725 -0.26823,0.119722 -0.51884,0.305607 l -0.164,2.627599 h -0.58358 l 0.21963,-3.519219 h 0.58359 l -0.0244,0.390675 q 0.28753,-0.229993 0.58738,-0.359169 0.29985,-0.129175 0.60717,-0.129175 0.56185,0 0.83532,0.343416 0.27346,0.343416 0.23316,0.989288 z"
         style="font-size:52.1359px;line-height:1.25;letter-spacing:0px;word-spacing:0px;fill:url(#linearGradient16);stroke-width:0.122847px"
         id="path814" />
      <path
         d="m 87.644506,17.433156 q -0.16726,0.04412 -0.36461,0.07247 -0.19422,0.02836 -0.34633,0.02836 -0.53081,0 -0.78899,-0.289855 -0.25818,-0.289856 -0.21827,-0.929426 l 0.11679,-1.871455 h -0.39423 l 0.0311,-0.497795 h 0.39424 l 0.0631,-1.011342 h 0.58358 l -0.0631,1.011342 h 1.20443 l -0.0311,0.497795 h -1.20442 l -0.10008,1.603655 q -0.0173,0.277252 -0.0147,0.43478 0.002,0.15438 0.0688,0.289855 0.0604,0.126025 0.17465,0.185888 0.11752,0.05671 0.36275,0.05671 0.14279,0 0.30055,-0.04096 0.15797,-0.04412 0.22803,-0.07247 h 0.0311 z"
         style="font-size:52.1359px;line-height:1.25;letter-spacing:0px;word-spacing:0px;fill:url(#linearGradient17);stroke-width:0.122847px"
         id="path816" />
      <path
         d="m 91.920106,17.464662 h -0.76052 l -1.92965,-4.196596 -0.2619,4.196596 h -0.57428 l 0.29278,-4.691242 h 0.95298 l 1.76,3.831129 0.23909,-3.831129 h 0.57428 z"
         style="font-size:52.1359px;line-height:1.25;letter-spacing:0px;word-spacing:0px;fill:url(#linearGradient18);stroke-width:0.122847px"
         id="path818" />
      <path
         d="m 96.167696,15.706629 q -0.0537,0.860113 -0.51933,1.357907 -0.46565,0.497796 -1.19512,0.497796 -0.7357,0 -1.13922,-0.497796 -0.40042,-0.497794 -0.34673,-1.357907 0.0537,-0.860114 0.51622,-1.35791 0.46585,-0.500945 1.20154,-0.500945 0.72949,0 1.13281,0.500945 0.40352,0.497796 0.34983,1.35791 z m -0.6022,0 q 0.0427,-0.68368 -0.20055,-1.014493 -0.243,-0.333963 -0.71174,-0.333963 -0.47494,0 -0.75964,0.333963 -0.2814,0.330813 -0.32407,1.014493 -0.0413,0.661626 0.20114,1.005041 0.24261,0.340265 0.71446,0.340265 0.46562,0 0.75051,-0.337115 0.28819,-0.340266 0.32989,-1.008191 z"
         style="font-size:52.1359px;line-height:1.25;letter-spacing:0px;word-spacing:0px;fill:url(#linearGradient19);stroke-width:0.122847px"
         id="path820" />
      <path
         d="m 98.763696,17.433156 q -0.16727,0.04412 -0.36461,0.07247 -0.19423,0.02836 -0.34633,0.02836 -0.53082,0 -0.789,-0.289855 -0.25818,-0.289856 -0.21827,-0.929426 l 0.1168,-1.871455 h -0.39423 l 0.0311,-0.497795 h 0.39422 l 0.0631,-1.011342 h 0.5836 l -0.0631,1.011342 h 1.20443 l -0.0311,0.497795 h -1.20441 l -0.10009,1.603655 q -0.0173,0.277252 -0.0147,0.43478 0.002,0.15438 0.0688,0.289855 0.0604,0.126025 0.17465,0.185888 0.11752,0.05671 0.36276,0.05671 0.14279,0 0.30056,-0.04096 0.15795,-0.04412 0.22802,-0.07247 h 0.0311 z"
         style="font-size:52.1359px;line-height:1.25;letter-spacing:0px;word-spacing:0px;fill:url(#linearGradient20);stroke-width:0.122847px"
         id="path822" />
      <path
         d="m 102.47477,15.766491 h -2.554734 q -0.0202,0.324512 0.0608,0.567106 0.0813,0.239445 0.239284,0.393826 0.15198,0.151228 0.36765,0.226842 0.21879,0.07562 0.48575,0.07562 0.35387,0 0.7197,-0.141778 0.36914,-0.144928 0.52989,-0.283554 h 0.0311 l -0.0403,0.645872 q -0.30276,0.126024 -0.61538,0.21109 -0.31263,0.08507 -0.65098,0.08507 -0.86297,0 -1.317724,-0.472589 -0.45456,-0.475741 -0.4001,-1.348456 0.0539,-0.863265 0.54805,-1.370511 0.497294,-0.507248 1.254714,-0.507248 0.70154,0 1.0543,0.415879 0.35586,0.41588 0.30808,1.181475 z m -0.53975,-0.453687 q 0.026,-0.466289 -0.18778,-0.721488 -0.21068,-0.255198 -0.6763,-0.255198 -0.46874,0 -0.76561,0.280403 -0.29378,0.280403 -0.356984,0.696283 z"
         style="font-size:52.1359px;line-height:1.25;letter-spacing:0px;word-spacing:0px;fill:url(#linearGradient21);stroke-width:0.122847px"
         id="path824" />
      <path
         d="m 105.79394,16.45017 q -0.0301,0.482041 -0.44358,0.7908 -0.4104,0.308759 -1.09022,0.308759 -0.38492,0 -0.70205,-0.09137 -0.31383,-0.09452 -0.52424,-0.204789 l 0.0415,-0.664777 h 0.0311 q 0.26309,0.21109 0.59358,0.337114 0.33069,0.122874 0.64111,0.122874 0.38492,0 0.61008,-0.126025 0.22515,-0.126024 0.24206,-0.396975 0.013,-0.207939 -0.0983,-0.31506 -0.11126,-0.10712 -0.44181,-0.182735 -0.12239,-0.02836 -0.3218,-0.06617 -0.1963,-0.03781 -0.35808,-0.08192 -0.44864,-0.122872 -0.62636,-0.359167 -0.17441,-0.239446 -0.15278,-0.586013 0.0136,-0.217391 0.11248,-0.409577 0.10202,-0.192187 0.29149,-0.343415 0.18308,-0.148078 0.45535,-0.233145 0.27557,-0.08822 0.60772,-0.08822 0.31042,0 0.62213,0.07877 0.315,0.07562 0.51921,0.185886 l -0.0395,0.63327 h -0.0311 q -0.21308,-0.166982 -0.52573,-0.280404 -0.31246,-0.116572 -0.61977,-0.116572 -0.31973,0 -0.548,0.126024 -0.22806,0.122873 -0.2434,0.368622 -0.0136,0.217389 0.11303,0.327661 0.12349,0.11027 0.41097,0.179584 0.15905,0.03781 0.35536,0.07562 0.19941,0.03781 0.33093,0.06932 0.40074,0.09452 0.60678,0.324511 0.20585,0.233145 0.18187,0.617518 z"
         style="font-size:52.1359px;line-height:1.25;letter-spacing:0px;word-spacing:0px;fill:url(#linearGradient1256);stroke-width:0.122847px"
         id="path826" />
    </g>
    <g
       id="g264">
      <path
         id="path232"
         style="color:#000000;fill:#ffe083;-inkscape-stroke:none"
         d="m 167.80164,28.970325 c -6.28929,0.01566 -12.5293,0.393177 -18.06814,3.162597 -3.69254,1.84627 -6.00941,4.549476 -7.65587,6.525183 -1.64646,1.975708 -2.70934,3.173729 -3.58221,3.697449 -1.68619,1.011713 -7.34928,1.597453 -13.74076,1.636593 l -0.67128,0.254765 v 11.467 l 0.78393,0.290938 c 6.45786,0.03681 13.46918,0.440353 19.80396,-3.360518 3.29387,-1.976322 5.14638,-4.528253 6.62492,-6.302458 1.47854,-1.774205 2.49739,-2.820949 3.80494,-3.474723 2.61505,-1.307524 10.64899,-1.86707 18.9823,-1.86707 V 28.99978 c -2.08332,0 -4.18535,-0.03468 -6.28179,-0.02946 z" />
      <path
         id="path229"
         style="fill:#e8ae00;fill-opacity:1"
         d="m 174.08343,38.867912 c -0.69906,0.0065 -1.41157,0.01485 -2.10271,0.03617 -1.2745,0.03371 -2.55258,0.06128 -3.83026,0.100253 -0.63884,0.01948 -1.27764,0.0417 -1.91616,0.06925 -0.63852,0.02755 -1.27664,0.06066 -1.9141,0.100769 -0.63745,0.04011 -1.27431,0.08752 -1.90996,0.144694 -0.63565,0.05717 -1.27014,0.123842 -1.90324,0.202572 -0.6331,0.07873 -1.26465,0.169614 -1.89446,0.274402 -0.6298,0.104785 -1.25784,0.22329 -1.88361,0.358634 -0.17873,0.02433 -0.35511,0.05515 -0.52916,0.09198 -0.17406,0.03684 -0.3458,0.08007 -0.51522,0.128674 -0.16942,0.04861 -0.33643,0.102635 -0.50126,0.162264 -0.16482,0.05963 -0.32755,0.124915 -0.48782,0.19482 -0.32055,0.139815 -0.63171,0.29896 -0.93431,0.475424 -0.30261,0.176462 -0.59661,0.370067 -0.8816,0.577225 -0.285,0.20716 -0.56117,0.428008 -0.82889,0.659908 -0.26772,0.231903 -0.52694,0.474846 -0.77773,0.725538 -0.25079,0.250689 -0.49289,0.509036 -0.72709,0.772562 -0.2342,0.263527 -0.46057,0.532126 -0.67851,0.802535 -0.29388,0.391619 -0.59648,0.780026 -0.90847,1.162203 -0.312,0.382179 -0.63315,0.758409 -0.96429,1.12603 -0.33113,0.367619 -0.67187,0.726408 -1.02319,1.074353 -0.35132,0.347942 -0.71318,0.685058 -1.08572,1.008207 -0.37254,0.323149 -0.75604,0.632289 -1.15084,0.925525 -0.39477,0.293234 -0.80096,0.570169 -1.21904,0.828373 -0.20904,0.129102 -0.42108,0.253719 -0.63614,0.373104 -0.21506,0.119384 -0.43302,0.233588 -0.65422,0.342615 -0.22121,0.109024 -0.44587,0.213062 -0.67335,0.311092 -0.22748,0.09803 -0.45806,0.190076 -0.69194,0.276469 -0.29244,0.114246 -0.58593,0.220977 -0.88109,0.32091 -0.29516,0.09993 -0.59169,0.193015 -0.88935,0.27957 -0.29766,0.08656 -0.59667,0.166699 -0.89658,0.240812 -0.29994,0.07411 -0.60082,0.142548 -0.90279,0.205155 -0.60395,0.125214 -1.2119,0.228351 -1.82263,0.31316 -0.61073,0.08481 -1.22451,0.151196 -1.8402,0.203088 -0.61568,0.05189 -1.23327,0.08929 -1.85208,0.115755 -0.61881,0.02647 -1.23871,0.04211 -1.8588,0.05064 -1.24019,0.01706 -2.4812,0.0056 -3.71554,-0.0041 l -2.1177,-0.02481 v 1.840198 l 0.78393,0.290938 c 1.42106,0.0081 2.85663,0.03176 4.31912,0.02687 0.86397,-0.0029 1.73244,-0.01667 2.60346,-0.05116 0.43551,-0.01724 0.8717,-0.03981 1.30793,-0.06873 0.43623,-0.02891 0.87269,-0.06439 1.30896,-0.107487 0.43627,-0.0431 0.87232,-0.09369 1.30793,-0.153479 0.43562,-0.0598 0.87108,-0.128735 1.30535,-0.20774 0.43428,-0.079 0.86742,-0.167989 1.29966,-0.268717 0.43225,-0.100728 0.86343,-0.213 1.29295,-0.337964 0.42952,-0.124964 0.85753,-0.262731 1.28364,-0.414445 0.42611,-0.151714 0.85026,-0.317703 1.27227,-0.498677 0.42201,-0.180977 0.84162,-0.376876 1.25884,-0.589629 0.41722,-0.212751 0.83212,-0.442321 1.24385,-0.689363 0.41174,-0.247041 0.80066,-0.502936 1.16944,-0.765328 0.36878,-0.262392 0.71749,-0.531113 1.04748,-0.803569 0.32999,-0.272453 0.64152,-0.548559 0.9369,-0.825789 0.29537,-0.27723 0.5743,-0.555793 0.83922,-0.832507 0.26492,-0.276717 0.51583,-0.551775 0.75448,-0.822689 0.23864,-0.270914 0.46508,-0.537546 0.68161,-0.797367 0.43306,-0.519647 0.82616,-1.011657 1.19579,-1.455209 0.36964,-0.44355 0.71072,-0.841576 1.03456,-1.19941 0.32385,-0.357832 0.63027,-0.675504 0.93173,-0.958081 0.15073,-0.141288 0.30058,-0.27399 0.4501,-0.398425 0.14952,-0.124436 0.29887,-0.240443 0.4501,-0.349333 0.15124,-0.10889 0.30405,-0.210755 0.45992,-0.305408 0.15588,-0.09465 0.31508,-0.182344 0.47853,-0.264066 0.16344,-0.08172 0.34789,-0.160238 0.55242,-0.236161 0.20452,-0.07592 0.42868,-0.149407 0.67179,-0.219625 0.24311,-0.07022 0.50525,-0.137449 0.78445,-0.202055 0.2792,-0.06461 0.57553,-0.126436 0.88832,-0.185518 0.62557,-0.11817 1.31594,-0.225308 2.06085,-0.321945 0.74492,-0.09664 1.54474,-0.182543 2.38901,-0.258382 0.84424,-0.07584 1.73307,-0.141627 2.65668,-0.197404 0.92361,-0.05578 1.88198,-0.101527 2.86494,-0.137976 0.98296,-0.03645 1.99043,-0.06379 3.01274,-0.08165 1.02231,-0.01786 2.05944,-0.02636 3.1011,-0.02636 z" />
      <path
         id="path231"
         style="fill:#fff0c1;fill-opacity:1"
         d="m 167.80164,28.970325 c -1.04821,0.0026 -2.09482,0.01543 -3.13727,0.04754 -0.52123,0.01606 -1.04146,0.03661 -1.56011,0.06356 -0.51865,0.02696 -1.03601,0.06005 -1.55133,0.100252 -0.51532,0.0402 -1.02871,0.08786 -1.53996,0.143661 -0.51124,0.0558 -1.02011,0.119518 -1.52652,0.19327 -0.50641,0.07375 -1.0102,0.157098 -1.51102,0.251147 -0.50082,0.09405 -0.99897,0.199046 -1.49345,0.315743 -0.49448,0.116698 -0.98539,0.245362 -1.47278,0.387057 -0.48738,0.141694 -0.97102,0.296562 -1.45055,0.465604 -0.47954,0.169042 -0.95483,0.352132 -1.42576,0.550871 -0.47092,0.198739 -0.93782,0.413104 -1.39939,0.643888 -0.46157,0.230784 -0.9014,0.474681 -1.32137,0.729155 -0.41997,0.254474 -0.81985,0.519193 -1.20096,0.791166 -0.38112,0.271973 -0.74329,0.551294 -1.08831,0.834574 -0.34501,0.283282 -0.67276,0.570981 -0.98443,0.859379 -0.31167,0.2884 -0.60724,0.577737 -0.88832,0.865064 -0.28108,0.287327 -0.54776,0.572598 -0.80098,0.852661 -0.50648,0.560126 -0.95988,1.099258 -1.3715,1.593184 -0.41161,0.493928 -0.78691,0.93959 -1.13171,1.337903 -0.3448,0.398314 -0.65952,0.74929 -0.94981,1.055233 -0.2903,0.305943 -0.55599,0.566599 -0.80409,0.783415 -0.12405,0.108407 -0.24386,0.205755 -0.35967,0.292488 -0.11581,0.08673 -0.22782,0.162945 -0.33693,0.22841 -0.1091,0.06546 -0.23474,0.129293 -0.3762,0.191203 -0.14147,0.06191 -0.2987,0.122067 -0.47077,0.180351 -0.34415,0.116568 -0.748,0.225475 -1.20407,0.327112 -0.45605,0.101635 -0.96427,0.195506 -1.51825,0.281636 -0.55397,0.08613 -1.15375,0.16456 -1.79162,0.234611 -0.63787,0.07005 -1.31383,0.13212 -2.02158,0.185519 -0.70776,0.0534 -1.44709,0.09819 -2.21072,0.134358 -0.76363,0.03617 -1.55148,0.06379 -2.35696,0.08217 -0.58603,0.01337 -1.1893,0.01656 -1.79111,0.02015 l -0.67076,0.254248 v 1.808675 l 2.1177,0.0186 c 0.78839,-0.01479 1.57744,-0.03368 2.36627,-0.06253 0.78882,-0.02885 1.57745,-0.06771 2.36471,-0.12144 0.78726,-0.05373 1.57328,-0.122432 2.35696,-0.211873 0.39184,-0.04472 0.783,-0.0947 1.17357,-0.150379 0.39057,-0.05568 0.7804,-0.117014 1.16944,-0.185001 0.23982,-0.0279 0.48024,-0.06185 0.71985,-0.10232 0.23962,-0.04047 0.47851,-0.08749 0.71572,-0.14211 0.23722,-0.05462 0.47278,-0.116725 0.70539,-0.187068 0.2326,-0.07034 0.46253,-0.149037 0.68833,-0.236679 0.22579,-0.08764 0.44726,-0.184425 0.66404,-0.290938 0.21677,-0.106512 0.42851,-0.222891 0.63407,-0.349849 0.20555,-0.126958 0.40525,-0.264434 0.59738,-0.413412 0.19212,-0.148977 0.37696,-0.309569 0.55345,-0.482141 0.36521,-0.37411 0.72113,-0.759352 1.07229,-1.151351 0.35116,-0.391998 0.69732,-0.790738 1.04231,-1.191142 0.34499,-0.400402 0.6889,-0.80267 1.0356,-1.201993 0.34669,-0.399325 0.69637,-0.795663 1.05265,-1.184424 0.35627,-0.388762 0.71922,-0.769716 1.09295,-1.138432 0.37374,-0.368716 0.75797,-0.724831 1.15704,-1.064018 0.19953,-0.169593 0.40295,-0.335144 0.6103,-0.495577 0.20734,-0.160433 0.41896,-0.316034 0.6351,-0.466121 0.21614,-0.150087 0.43658,-0.294493 0.66249,-0.433049 0.22592,-0.138554 0.45734,-0.271036 0.69402,-0.396875 0.30977,-0.172245 0.62262,-0.335637 0.93896,-0.490409 0.31634,-0.154772 0.63575,-0.301005 0.95808,-0.43925 0.32232,-0.138245 0.64792,-0.268525 0.97565,-0.39119 0.32773,-0.122665 0.65807,-0.237683 0.99064,-0.345716 0.33256,-0.108031 0.66726,-0.208993 1.00407,-0.30334 0.33681,-0.09435 0.67547,-0.181941 1.01596,-0.26355 0.34048,-0.08161 0.68271,-0.157558 1.02629,-0.227376 0.34358,-0.06982 0.68847,-0.133779 1.03456,-0.192753 0.69219,-0.117948 1.38895,-0.215334 2.08773,-0.29559 0.69878,-0.08026 1.39991,-0.14313 2.10065,-0.193269 0.70074,-0.05014 1.40102,-0.08712 2.0991,-0.114722 0.69808,-0.0276 1.39383,-0.04627 2.08462,-0.05891 h 5.2e-4 c 1.89521,-0.0044 3.79025,-0.005 5.68544,0.0078 0.85296,-0.01189 1.43938,-0.01477 2.11615,-0.02067 V 28.99978 c -2.08333,0 -4.18535,-0.03468 -6.28179,-0.02946 z" />
      <g
         id="g227">
        <path
           id="path4348"
           style="fill:url(#linearGradient4171);fill-opacity:1;fill-rule:evenodd;stroke:none;stroke-width:0.095401px;stroke-linecap:butt;stroke-linejoin:miter;stroke-opacity:1"
           d="m 124.7774,43.987496 c -5.26618,2.004345 -10.53235,4.008724 -15.79852,6.01307 5.26617,1.99565 10.53234,3.991063 15.79852,5.986714 0,0 0.006,-0.03568 0.007,-0.03721 a 1.8525248,1.2113422 5.9041812 0 1 -0.63975,-1.062984 1.8525248,1.2113422 5.9041812 0 1 0.97048,-0.896586 c 0.0115,-0.07419 0.0225,-0.14167 0.0341,-0.218075 a 2.7089832,4.9664698 0 0 1 -1.08417,-3.946529 2.7089832,4.9664698 0 0 1 0.87798,-3.647839 1.3061171,1.8543636 80.731807 0 1 -0.88573,-0.906921 1.3061171,1.8543636 80.731807 0 1 0.72657,-1.25212 c -2.4e-4,-0.0012 -0.006,-0.03152 -0.006,-0.03152 z" />
        <path
           style="fill:url(#linearGradient4205);fill-opacity:1;fill-rule:evenodd;stroke:none;stroke-width:0.095401px;stroke-linecap:butt;stroke-linejoin:miter;stroke-opacity:1"
           d="m 108.97853,50.000555 c 2.07169,0.7851 4.14339,1.570202 6.21508,2.355303 0.28027,-0.743026 0.42615,-1.550736 0.42775,-2.368417 -0.002,-0.812435 -0.14648,-1.614974 -0.4237,-2.353934 -2.07304,0.789016 -4.14609,1.578032 -6.21913,2.367048 z"
           id="path4392"
           inkscape:connector-curvature="0"
           sodipodi:nodetypes="ccccc" />
        <path
           id="path4235"
           style="opacity:0.4;fill:#ffffff;fill-rule:evenodd;stroke:none;stroke-width:1px;stroke-linecap:butt;stroke-linejoin:miter;stroke-opacity:1;filter:url(#filter4377)"
           d="m 317.93475,600.89255 42.06473,-148.52781 c -6.64517,47.95271 -13.29114,95.90156 -19.93631,143.85426 a 53.881344,27.435267 0 0 0 -20.92304,7.10192 14.138656,18.821853 11.542312 0 0 -1.20538,-2.42837 z"
           transform="matrix(0,0.0921742,0.09874091,0,65.370305,16.761574)" />
      </g>
      <g
         id="g263">
        <path
           d="m 131.79167,50.908066 c 0.003,0.1831 -0.036,0.3673 -0.118,0.5528 -0.08,0.1852 -0.27,0.3455 -0.424,0.4754 -0.169,0.1411 -0.364,0.2537 -0.588,0.338 -0.221,0.0842 -0.486,0.1322 -0.796,0.1442 -0.333,0.0128 -0.707,-0.0025 -0.971,-0.0635 -0.261,-0.0609 -0.526,-0.1523 -0.795,-0.2741 l 0.043,-0.7817 0.043,-3e-4 c 0.223,0.1956 0.485,0.3459 0.785,0.4506 0.301,0.1048 0.645,0.1395 0.914,0.1291 0.38,-0.0146 0.678,-0.0986 0.892,-0.2519 0.216,-0.1534 0.327,-0.351 0.333,-0.593 0.005,-0.2083 -0.042,-0.3599 -0.141,-0.4549 -0.097,-0.095 -0.247,-0.1659 -0.45,-0.2127 -0.154,-0.0361 -0.322,-0.0644 -0.503,-0.0847 -0.18,-0.0204 -0.37,-0.0478 -0.572,-0.082 -0.407,-0.0726 -0.708,-0.2208 -0.895,-0.4314 -0.185,-0.2128 -0.268,-0.4905 -0.25,-0.833 0.022,-0.3929 0.203,-0.7157 0.543,-0.9683 0.341,-0.2548 0.69,-0.4001 1.192,-0.4195 0.325,-0.0125 0.622,0.0076 0.891,0.0602 0.27,0.0527 0.424,0.1238 0.634,0.2002 l 0.011,0.7385 -0.044,0.0034 c -0.177,-0.1378 -0.349,-0.2571 -0.634,-0.3449 -0.283,-0.09 -0.574,-0.1292 -0.874,-0.1176 -0.329,0.0126 -0.595,0.0923 -0.799,0.2388 -0.202,0.1465 -0.265,0.3258 -0.277,0.5443 -0.011,0.1954 0.008,0.351 0.104,0.4587 0.097,0.1077 0.27,0.1861 0.519,0.2354 0.131,0.0243 0.319,0.0528 0.562,0.0855 0.243,0.0327 0.448,0.0679 0.617,0.1055 0.341,0.0793 0.6,0.2136 0.776,0.3874 0.176,0.1737 0.267,0.4289 0.272,0.7656 z"
           style="font-size:52.1359px;line-height:1.25;letter-spacing:0px;word-spacing:0px;fill:url(#linearGradient161);stroke:none;stroke-width:0.122847px"
           id="path4873" />
        <path
           d="m 133.31267,48.012166 -0.657,0.0511 -0.01,-0.6154 0.657,-0.0512 z m 0.026,4.1184 -0.582,0.0453 -0.055,-3.5253 0.583,-0.0453 z"
           style="font-size:52.1359px;line-height:1.25;letter-spacing:0px;word-spacing:0px;fill:url(#linearGradient162);stroke:none;stroke-width:0.122847px"
           id="path4669" />
        <path
           d="m 135.20567,51.917166 -0.578,0.0782 -0.353,-4.8982 0.577,-0.0781 z"
           style="font-size:52.1359px;line-height:1.25;letter-spacing:0px;word-spacing:0px;fill:url(#linearGradient163);stroke:none;stroke-width:0.122847px"
           id="path5884" />
        <path
           d="m 139.14967,49.346766 -2.543,0.6378 c 0.028,0.215 0.083,0.3967 0.167,0.5453 0.083,0.1465 0.187,0.2603 0.31,0.3414 0.118,0.0798 0.335,0.1146 0.487,0.13 0.153,0.0149 0.316,0.0015 0.489,-0.0401 0.23,-0.0551 0.549,-0.1853 0.756,-0.3453 0.209,-0.1627 0.351,-0.3035 0.427,-0.4226 l 0.03,-0.0088 0.145,0.6305 c -0.169,0.138 -0.346,0.2639 -0.53,0.3776 -0.183,0.1136 -0.513,0.2244 -0.732,0.2771 -0.559,0.1345 -1.131,0.0867 -1.488,-0.1653 -0.358,-0.254 -0.644,-0.6654 -0.686,-1.2468 -0.041,-0.575 0.057,-1.0564 0.316,-1.4508 0.262,-0.3948 0.585,-0.6349 1.076,-0.7529 0.454,-0.1093 0.768,-0.0642 1.072,0.1346 0.306,0.1982 0.517,0.5464 0.632,1.0447 z m -0.646,-0.2812 c -0.072,-0.3029 -0.201,-0.5156 -0.386,-0.6381 -0.183,-0.1231 -0.388,-0.1572 -0.69,-0.0846 -0.303,0.0731 -0.501,0.2186 -0.66,0.4396 -0.157,0.2206 -0.23,0.471 -0.219,0.7512 z"
           style="font-size:52.1359px;line-height:1.25;letter-spacing:0px;word-spacing:0px;fill:url(#linearGradient164);stroke:none;stroke-width:0.122847px"
           id="path265" />
        <path
           d="m 143.56367,49.070566 -0.487,0.3215 -0.998,-1.7411 c -0.081,-0.1405 -0.164,-0.2668 -0.25,-0.3788 -0.087,-0.1138 -0.171,-0.1918 -0.252,-0.2338 -0.087,-0.0482 -0.181,-0.0638 -0.284,-0.0467 -0.103,0.0152 -0.18,0.0237 -0.316,0.0977 -0.14,0.0761 -0.269,0.1918 -0.388,0.3473 -0.119,0.1555 -0.208,0.296 -0.31,0.4771 l 0.919,2.4665 -0.694,0.2845 -0.998,-3.3811 0.462,-0.207 0.137,0.3667 c 0.112,-0.218 0.173,-0.3706 0.307,-0.5416 0.135,-0.1711 0.292,-0.3055 0.472,-0.4033 0.329,-0.1788 0.525,-0.2006 0.803,-0.1098 0.278,0.0907 0.502,0.3339 0.746,0.6899 z"
           style="font-size:52.1359px;line-height:1.25;letter-spacing:0px;word-spacing:0px;fill:url(#linearGradient165);stroke:none;stroke-width:0.122847px"
           id="path8213" />
        <path
           d="m 146.19467,46.705266 c -0.052,0.1028 -0.214,0.3071 -0.293,0.4134 -0.079,0.105 -0.154,0.1932 -0.225,0.2649 -0.25,0.2502 -0.612,0.4462 -0.869,0.417 -0.257,-0.0293 -0.518,-0.2116 -0.782,-0.5471 l -1.161,-1.4724 -0.265,0.2323 -0.281,-0.4117 0.237,-0.2118 -0.627,-0.7957 0.345,-0.3126 0.671,0.7597 0.793,-0.8196 0.351,0.3545 -0.814,0.839 1.02,1.2387 c 0.114,0.1454 0.207,0.2567 0.279,0.3338 0.069,0.0758 0.151,0.1325 0.244,0.1701 0.086,0.0358 0.243,-0.0301 0.325,-0.0557 0.082,-0.0287 0.181,-0.1008 0.297,-0.2164 0.067,-0.0673 0.128,-0.1478 0.183,-0.2414 0.054,-0.0953 0.159,-0.2474 0.176,-0.2948 l 0.021,-0.0231 z"
           style="font-size:52.1359px;line-height:1.25;letter-spacing:0px;word-spacing:0px;fill:url(#linearGradient166);stroke:none;stroke-width:0.122847px"
           id="path3860" />
        <path
           d="m 149.03467,43.455966 -0.496,0.5758 -4.397,-1.2812 2.958,2.988 -0.383,0.4287 -3.306,-3.3402 0.576,-0.6611 4.057,1.1227 -2.747,-2.6812 0.375,-0.4348 z"
           style="font-size:52.1359px;line-height:1.25;letter-spacing:0px;word-spacing:0px;fill:url(#linearGradient167);stroke:none;stroke-width:0.122847px"
           id="path2979" />
        <path
           d="m 150.61567,39.412466 c 0.321,0.4761 0.536,0.8637 0.521,1.3178 -0.015,0.4542 -0.109,0.7451 -0.457,1.0851 -0.351,0.3429 -0.658,0.4266 -1.084,0.3959 -0.424,-0.0322 -0.834,-0.2575 -1.227,-0.6757 -0.394,-0.4183 -0.607,-0.8534 -0.638,-1.3053 -0.031,-0.455 0.167,-0.8896 0.518,-1.2325 0.348,-0.34 0.845,-0.5486 1.262,-0.4479 0.415,0.0989 0.784,0.3864 1.105,0.8626 z m -0.437,0.3517 c -0.279,-0.3614 -0.552,-0.5715 -0.819,-0.6304 -0.269,-0.0605 -0.554,0.0327 -0.777,0.2511 -0.226,0.2214 -0.329,0.478 -0.31,0.7698 0.021,0.2889 0.194,0.6091 0.507,0.9416 0.303,0.3217 0.594,0.5019 0.871,0.5406 0.276,0.0371 0.47,0.0112 0.695,-0.2087 0.222,-0.217 0.256,-0.3945 0.25,-0.6886 -0.005,-0.2972 -0.144,-0.6223 -0.417,-0.9754 z"
           style="font-size:52.1359px;line-height:1.25;letter-spacing:0px;word-spacing:0px;fill:url(#linearGradient168);stroke:none;stroke-width:0.122847px"
           id="path6597" />
        <path
           d="m 153.55067,39.581166 c -0.083,0.0796 -0.178,0.1595 -0.284,0.2396 -0.104,0.0791 -0.2,0.1432 -0.289,0.1922 -0.31,0.171 -0.413,0.1376 -0.663,0.0712 -0.25,-0.0664 -0.482,-0.2848 -0.694,-0.6553 l -0.934,-1.6258 -0.329,0.2174 -0.248,-0.4325 0.329,-0.2175 -0.504,-0.8786 0.634,-0.4017 0.433,0.9156 1.143,-0.6079 0.176,0.4664 -1.147,0.6175 0.8,1.3932 c 0.092,0.1606 0.168,0.2842 0.227,0.3708 0.058,0.0852 0.13,0.1532 0.217,0.204 0.08,0.0479 0.039,0.1467 0.125,0.1448 0.087,-0.0048 0.202,-0.0467 0.345,-0.1257 0.083,-0.046 0.165,-0.1063 0.243,-0.181 0.078,-0.0767 0.133,-0.1345 0.165,-0.1736 l -0.105,0.0529 z"
           style="font-size:52.1359px;line-height:1.25;letter-spacing:0px;word-spacing:0px;fill:url(#linearGradient169);stroke:none;stroke-width:0.122847px"
           id="path7502" />
        <path
           d="m 156.05867,36.944266 -2.355,0.7512 c 0.062,0.2077 0.147,0.3782 0.253,0.5114 0.106,0.1311 0.226,0.2268 0.36,0.2871 0.13,0.0597 0.271,0.0885 0.423,0.0862 0.155,-0.0029 0.199,-8e-4 0.37,-0.0517 0.226,-0.0676 0.442,-0.1815 0.649,-0.3419 0.208,-0.163 0.268,-0.2773 0.351,-0.3923 l 0.03,-0.0073 0.113,0.6371 c -0.177,0.1292 -0.238,0.2251 -0.421,0.3391 -0.183,0.114 -0.383,0.2032 -0.599,0.2678 -0.551,0.1647 -0.714,0.0729 -1.12,-0.0896 -0.406,-0.1645 -0.713,-0.5193 -0.919,-1.0645 -0.203,-0.5392 -0.208,-1.0605 -0.016,-1.4914 0.195,-0.4317 0.593,-0.7778 1.077,-0.9223 0.448,-0.1339 0.877,-0.1255 1.171,0.0885 0.295,0.2135 0.488,0.572 0.577,1.0755 z m -0.616,-0.3072 c -0.072,-0.3028 -0.201,-0.5153 -0.387,-0.6374 -0.183,-0.1228 -0.423,-0.1398 -0.721,-0.0509 -0.299,0.0894 -0.545,0.2913 -0.666,0.5349 -0.119,0.243 -0.151,0.5018 -0.095,0.7765 z"
           style="font-size:52.1359px;line-height:1.25;letter-spacing:0px;word-spacing:0px;fill:url(#linearGradient170);stroke:none;stroke-width:0.122847px"
           id="path2466" />
        <path
           d="m 159.36367,37.000666 c 0.03,0.3206 -0.076,0.6039 -0.316,0.8498 -0.239,0.2456 -0.489,0.383 -0.934,0.4699 -0.252,0.0493 -0.488,0.0643 -0.707,0.0451 -0.217,-0.0217 -0.301,-0.0694 -0.455,-0.1078 l -0.116,-0.6557 0.031,-0.0075 c 0.203,0.0954 0.346,0.1809 0.578,0.2211 0.232,0.0381 0.45,0.0373 0.653,-0.0024 0.251,-0.0492 0.371,-0.1094 0.507,-0.2156 0.135,-0.1062 0.194,-0.2494 0.178,-0.4296 -0.013,-0.1383 -0.062,-0.237 -0.146,-0.2961 -0.085,-0.0591 -0.239,-0.0965 -0.465,-0.1123 -0.083,-0.0061 -0.157,-0.012 -0.293,-0.0112 -0.133,3e-4 -0.255,-0.0036 -0.367,-0.0117 -0.309,-0.023 -0.537,-0.1005 -0.683,-0.2323 -0.145,-0.1344 -0.226,-0.31 -0.267,-0.5379 -0.025,-0.143 -0.021,-0.2845 0.013,-0.4245 0.036,-0.1406 0.139,-0.2767 0.243,-0.3998 0.101,-0.1203 0.235,-0.2257 0.403,-0.3162 0.169,-0.093 0.406,-0.175 0.624,-0.2092 0.205,-0.0319 0.414,-0.038 0.627,-0.0182 0.215,0.0174 0.396,0.0519 0.542,0.1035 l 0.059,0.6318 -0.032,0.0049 c -0.157,-0.0881 -0.345,-0.1534 -0.562,-0.1959 -0.218,-0.0446 -0.456,-0.0533 -0.657,-0.014 -0.209,0.0409 -0.38,0.1171 -0.513,0.2288 -0.134,0.1096 -0.19,0.2457 -0.168,0.4084 0.018,0.144 0.076,0.244 0.173,0.2999 0.095,0.0563 0.241,0.0888 0.438,0.0974 0.109,0.0044 0.216,0.0062 0.35,0.0109 0.135,0.0044 0.247,0.0102 0.337,0.0174 0.274,0.0211 0.49,0.0967 0.65,0.227 0.159,0.1324 0.251,0.3264 0.275,0.582 z"
           style="font-size:52.1359px;line-height:1.25;letter-spacing:0px;word-spacing:0px;fill:url(#linearGradient171);stroke:none;stroke-width:0.122847px"
           id="path6544" />
      </g>
    </g>
    <path
       style="fill:none;stroke:#9083ff;stroke-width:0.1;stroke-linecap:butt;stroke-linejoin:miter;stroke-dasharray:none;stroke-opacity:1"
       d="m 50,50 c 6.666668,0 13.333198,0 17.499949,-2.500051 C 71.666701,44.999898 73.3333,40.0001 78.3334,37.50005 83.3335,35 91.666666,35 100,35"
       id="path82"
       inkscape:path-effect="#path-effect83"
       inkscape:original-d="m 50,50 c 6.666668,0 13.333198,0 20,0 1.666701,-5.000102 3.3333,-9.9999 5,-15 8.3335,0 16.666666,0 25,0"
       sodipodi:nodetypes="cccc"
       transform="translate(0,26.458334)" />
    <path
       style="fill:url(#linearGradient205);fill-opacity:1;fill-rule:evenodd;stroke:none;stroke-width:0.095401px;stroke-linecap:butt;stroke-linejoin:miter;stroke-opacity:1"
       d="m 124.06804,29.561428 c -5.26618,-1.995653 -10.53236,-3.991306 -15.79854,-5.986958 5.26618,-2.004348 10.53236,-4.008695 15.79854,-6.013042 0,0 0.76471,3.80722 0.77545,5.737649 0.0117,2.103839 -0.77545,6.262351 -0.77545,6.262351 z"
       id="path205"
       inkscape:connector-curvature="0"
       sodipodi:nodetypes="cccsc" />
    <path
       style="fill:url(#linearGradient206);fill-opacity:1;fill-rule:evenodd;stroke:none;stroke-width:0.095401px;stroke-linecap:butt;stroke-linejoin:miter;stroke-opacity:1"
       d="m 108.26941,23.57447 c 2.07169,0.7851 4.14339,1.570202 6.21508,2.355303 0.28027,-0.743026 0.42615,-1.550736 0.42775,-2.368417 -0.002,-0.812435 -0.14648,-1.614974 -0.4237,-2.353934 -2.07304,0.789016 -4.14609,1.578032 -6.21913,2.367048 z"
       id="path206"
       inkscape:connector-curvature="0"
       sodipodi:nodetypes="ccccc" />
    <path
       style="opacity:0.4;fill:#ffffff;fill-rule:evenodd;stroke:none;stroke-width:1px;stroke-linecap:butt;stroke-linejoin:miter;stroke-opacity:1;filter:url(#filter4377)"
       d="m 359.99998,452.3622 c -7.6712,55.35666 -15.34239,110.71333 -23.01359,166.06999 -7.4345,-2.02334 -14.86901,-4.04667 -22.30351,-6.07001 15.1057,-53.33333 30.2114,-106.66665 45.3171,-159.99998 z"
       id="path207"
       inkscape:connector-curvature="0"
       transform="matrix(0,0.0921742,0.09874091,0,64.661186,-9.6645097)"
       sodipodi:nodetypes="cccc" />
    <path
       id="path226"
       style="fill:#52c1cc;fill-opacity:1;stroke:none;stroke-width:0;stroke-dasharray:none;stroke-opacity:1"
       d="m 126.15767,70.108384 a 1.3061171,1.8543636 80.731807 0 0 -0.4811,0.03307 1.3061171,1.8543636 80.731807 0 0 -1.61954,1.588017 1.3061171,1.8543636 80.731807 0 0 0.88573,0.906921 2.7089832,4.9664698 0 0 0 -0.87798,3.647839 2.7089832,4.9664698 0 0 0 1.20509,4.117578 1.8525248,1.2113422 5.9041812 0 0 -1.12551,0.943612 1.8525248,1.2113422 5.9041812 0 0 1.67483,1.417485 1.8525248,1.2113422 5.9041812 0 0 2.00402,-0.983403 1.8525248,1.2113422 5.9041812 0 0 -0.25942,-0.753442 2.7089832,4.9664698 0 0 0 1.91926,-4.74183 2.7089832,4.9664698 0 0 0 -1.80816,-4.682401 1.3061171,1.8543636 80.731807 0 0 0.0424,-0.469739 1.3061171,1.8543636 80.731807 0 0 -1.5596,-1.02371 z" />
    <g
       id="g282"
       transform="rotate(-50.385328,260.20567,117.05944)">
      <path
         id="path264"
         style="color:#000000;fill:#ffe083;-inkscape-stroke:none"
         d="m 167.80164,28.970325 c -6.28929,0.01566 -12.5293,0.393177 -18.06814,3.162597 -3.69254,1.84627 -6.00941,4.549476 -7.65587,6.525183 -1.64646,1.975708 -2.70934,3.173729 -3.58221,3.697449 -1.68619,1.011713 -7.34928,1.597453 -13.74076,1.636593 l -0.67128,0.254765 v 11.467 l 0.78393,0.290938 c 6.45786,0.03681 13.46918,0.440353 19.80396,-3.360518 3.29387,-1.976322 5.14638,-4.528253 6.62492,-6.302458 1.47854,-1.774205 2.49739,-2.820949 3.80494,-3.474723 2.61505,-1.307524 10.64899,-1.86707 18.9823,-1.86707 V 28.99978 c -2.08332,0 -4.18535,-0.03468 -6.28179,-0.02946 z" />
      <path
         id="path266"
         style="fill:#e8ae00;fill-opacity:1"
         d="m 174.08343,38.867912 c -0.69906,0.0065 -1.41157,0.01485 -2.10271,0.03617 -1.2745,0.03371 -2.55258,0.06128 -3.83026,0.100253 -0.63884,0.01948 -1.27764,0.0417 -1.91616,0.06925 -0.63852,0.02755 -1.27664,0.06066 -1.9141,0.100769 -0.63745,0.04011 -1.27431,0.08752 -1.90996,0.144694 -0.63565,0.05717 -1.27014,0.123842 -1.90324,0.202572 -0.6331,0.07873 -1.26465,0.169614 -1.89446,0.274402 -0.6298,0.104785 -1.25784,0.22329 -1.88361,0.358634 -0.17873,0.02433 -0.35511,0.05515 -0.52916,0.09198 -0.17406,0.03684 -0.3458,0.08007 -0.51522,0.128674 -0.16942,0.04861 -0.33643,0.102635 -0.50126,0.162264 -0.16482,0.05963 -0.32755,0.124915 -0.48782,0.19482 -0.32055,0.139815 -0.63171,0.29896 -0.93431,0.475424 -0.30261,0.176462 -0.59661,0.370067 -0.8816,0.577225 -0.285,0.20716 -0.56117,0.428008 -0.82889,0.659908 -0.26772,0.231903 -0.52694,0.474846 -0.77773,0.725538 -0.25079,0.250689 -0.49289,0.509036 -0.72709,0.772562 -0.2342,0.263527 -0.46057,0.532126 -0.67851,0.802535 -0.29388,0.391619 -0.59648,0.780026 -0.90847,1.162203 -0.312,0.382179 -0.63315,0.758409 -0.96429,1.12603 -0.33113,0.367619 -0.67187,0.726408 -1.02319,1.074353 -0.35132,0.347942 -0.71318,0.685058 -1.08572,1.008207 -0.37254,0.323149 -0.75604,0.632289 -1.15084,0.925525 -0.39477,0.293234 -0.80096,0.570169 -1.21904,0.828373 -0.20904,0.129102 -0.42108,0.253719 -0.63614,0.373104 -0.21506,0.119384 -0.43302,0.233588 -0.65422,0.342615 -0.22121,0.109024 -0.44587,0.213062 -0.67335,0.311092 -0.22748,0.09803 -0.45806,0.190076 -0.69194,0.276469 -0.29244,0.114246 -0.58593,0.220977 -0.88109,0.32091 -0.29516,0.09993 -0.59169,0.193015 -0.88935,0.27957 -0.29766,0.08656 -0.59667,0.166699 -0.89658,0.240812 -0.29994,0.07411 -0.60082,0.142548 -0.90279,0.205155 -0.60395,0.125214 -1.2119,0.228351 -1.82263,0.31316 -0.61073,0.08481 -1.22451,0.151196 -1.8402,0.203088 -0.61568,0.05189 -1.23327,0.08929 -1.85208,0.115755 -0.61881,0.02647 -1.23871,0.04211 -1.8588,0.05064 -1.24019,0.01706 -2.4812,0.0056 -3.71554,-0.0041 l -2.1177,-0.02481 v 1.840198 l 0.78393,0.290938 c 1.42106,0.0081 2.85663,0.03176 4.31912,0.02687 0.86397,-0.0029 1.73244,-0.01667 2.60346,-0.05116 0.43551,-0.01724 0.8717,-0.03981 1.30793,-0.06873 0.43623,-0.02891 0.87269,-0.06439 1.30896,-0.107487 0.43627,-0.0431 0.87232,-0.09369 1.30793,-0.153479 0.43562,-0.0598 0.87108,-0.128735 1.30535,-0.20774 0.43428,-0.079 0.86742,-0.167989 1.29966,-0.268717 0.43225,-0.100728 0.86343,-0.213 1.29295,-0.337964 0.42952,-0.124964 0.85753,-0.262731 1.28364,-0.414445 0.42611,-0.151714 0.85026,-0.317703 1.27227,-0.498677 0.42201,-0.180977 0.84162,-0.376876 1.25884,-0.589629 0.41722,-0.212751 0.83212,-0.442321 1.24385,-0.689363 0.41174,-0.247041 0.80066,-0.502936 1.16944,-0.765328 0.36878,-0.262392 0.71749,-0.531113 1.04748,-0.803569 0.32999,-0.272453 0.64152,-0.548559 0.9369,-0.825789 0.29537,-0.27723 0.5743,-0.555793 0.83922,-0.832507 0.26492,-0.276717 0.51583,-0.551775 0.75448,-0.822689 0.23864,-0.270914 0.46508,-0.537546 0.68161,-0.797367 0.43306,-0.519647 0.82616,-1.011657 1.19579,-1.455209 0.36964,-0.44355 0.71072,-0.841576 1.03456,-1.19941 0.32385,-0.357832 0.63027,-0.675504 0.93173,-0.958081 0.15073,-0.141288 0.30058,-0.27399 0.4501,-0.398425 0.14952,-0.124436 0.29887,-0.240443 0.4501,-0.349333 0.15124,-0.10889 0.30405,-0.210755 0.45992,-0.305408 0.15588,-0.09465 0.31508,-0.182344 0.47853,-0.264066 0.16344,-0.08172 0.34789,-0.160238 0.55242,-0.236161 0.20452,-0.07592 0.42868,-0.149407 0.67179,-0.219625 0.24311,-0.07022 0.50525,-0.137449 0.78445,-0.202055 0.2792,-0.06461 0.57553,-0.126436 0.88832,-0.185518 0.62557,-0.11817 1.31594,-0.225308 2.06085,-0.321945 0.74492,-0.09664 1.54474,-0.182543 2.38901,-0.258382 0.84424,-0.07584 1.73307,-0.141627 2.65668,-0.197404 0.92361,-0.05578 1.88198,-0.101527 2.86494,-0.137976 0.98296,-0.03645 1.99043,-0.06379 3.01274,-0.08165 1.02231,-0.01786 2.05944,-0.02636 3.1011,-0.02636 z" />
      <path
         id="path267"
         style="fill:#fff0c1;fill-opacity:1"
         d="m 167.80164,28.970325 c -1.04821,0.0026 -2.09482,0.01543 -3.13727,0.04754 -0.52123,0.01606 -1.04146,0.03661 -1.56011,0.06356 -0.51865,0.02696 -1.03601,0.06005 -1.55133,0.100252 -0.51532,0.0402 -1.02871,0.08786 -1.53996,0.143661 -0.51124,0.0558 -1.02011,0.119518 -1.52652,0.19327 -0.50641,0.07375 -1.0102,0.157098 -1.51102,0.251147 -0.50082,0.09405 -0.99897,0.199046 -1.49345,0.315743 -0.49448,0.116698 -0.98539,0.245362 -1.47278,0.387057 -0.48738,0.141694 -0.97102,0.296562 -1.45055,0.465604 -0.47954,0.169042 -0.95483,0.352132 -1.42576,0.550871 -0.47092,0.198739 -0.93782,0.413104 -1.39939,0.643888 -0.46157,0.230784 -0.9014,0.474681 -1.32137,0.729155 -0.41997,0.254474 -0.81985,0.519193 -1.20096,0.791166 -0.38112,0.271973 -0.74329,0.551294 -1.08831,0.834574 -0.34501,0.283282 -0.67276,0.570981 -0.98443,0.859379 -0.31167,0.2884 -0.60724,0.577737 -0.88832,0.865064 -0.28108,0.287327 -0.54776,0.572598 -0.80098,0.852661 -0.50648,0.560126 -0.95988,1.099258 -1.3715,1.593184 -0.41161,0.493928 -0.78691,0.93959 -1.13171,1.337903 -0.3448,0.398314 -0.65952,0.74929 -0.94981,1.055233 -0.2903,0.305943 -0.55599,0.566599 -0.80409,0.783415 -0.12405,0.108407 -0.24386,0.205755 -0.35967,0.292488 -0.11581,0.08673 -0.22782,0.162945 -0.33693,0.22841 -0.1091,0.06546 -0.23474,0.129293 -0.3762,0.191203 -0.14147,0.06191 -0.2987,0.122067 -0.47077,0.180351 -0.34415,0.116568 -0.748,0.225475 -1.20407,0.327112 -0.45605,0.101635 -0.96427,0.195506 -1.51825,0.281636 -0.55397,0.08613 -1.15375,0.16456 -1.79162,0.234611 -0.63787,0.07005 -1.31383,0.13212 -2.02158,0.185519 -0.70776,0.0534 -1.44709,0.09819 -2.21072,0.134358 -0.76363,0.03617 -1.55148,0.06379 -2.35696,0.08217 -0.58603,0.01337 -1.1893,0.01656 -1.79111,0.02015 l -0.67076,0.254248 v 1.808675 l 2.1177,0.0186 c 0.78839,-0.01479 1.57744,-0.03368 2.36627,-0.06253 0.78882,-0.02885 1.57745,-0.06771 2.36471,-0.12144 0.78726,-0.05373 1.57328,-0.122432 2.35696,-0.211873 0.39184,-0.04472 0.783,-0.0947 1.17357,-0.150379 0.39057,-0.05568 0.7804,-0.117014 1.16944,-0.185001 0.23982,-0.0279 0.48024,-0.06185 0.71985,-0.10232 0.23962,-0.04047 0.47851,-0.08749 0.71572,-0.14211 0.23722,-0.05462 0.47278,-0.116725 0.70539,-0.187068 0.2326,-0.07034 0.46253,-0.149037 0.68833,-0.236679 0.22579,-0.08764 0.44726,-0.184425 0.66404,-0.290938 0.21677,-0.106512 0.42851,-0.222891 0.63407,-0.349849 0.20555,-0.126958 0.40525,-0.264434 0.59738,-0.413412 0.19212,-0.148977 0.37696,-0.309569 0.55345,-0.482141 0.36521,-0.37411 0.72113,-0.759352 1.07229,-1.151351 0.35116,-0.391998 0.69732,-0.790738 1.04231,-1.191142 0.34499,-0.400402 0.6889,-0.80267 1.0356,-1.201993 0.34669,-0.399325 0.69637,-0.795663 1.05265,-1.184424 0.35627,-0.388762 0.71922,-0.769716 1.09295,-1.138432 0.37374,-0.368716 0.75797,-0.724831 1.15704,-1.064018 0.19953,-0.169593 0.40295,-0.335144 0.6103,-0.495577 0.20734,-0.160433 0.41896,-0.316034 0.6351,-0.466121 0.21614,-0.150087 0.43658,-0.294493 0.66249,-0.433049 0.22592,-0.138554 0.45734,-0.271036 0.69402,-0.396875 0.30977,-0.172245 0.62262,-0.335637 0.93896,-0.490409 0.31634,-0.154772 0.63575,-0.301005 0.95808,-0.43925 0.32232,-0.138245 0.64792,-0.268525 0.97565,-0.39119 0.32773,-0.122665 0.65807,-0.237683 0.99064,-0.345716 0.33256,-0.108031 0.66726,-0.208993 1.00407,-0.30334 0.33681,-0.09435 0.67547,-0.181941 1.01596,-0.26355 0.34048,-0.08161 0.68271,-0.157558 1.02629,-0.227376 0.34358,-0.06982 0.68847,-0.133779 1.03456,-0.192753 0.69219,-0.117948 1.38895,-0.215334 2.08773,-0.29559 0.69878,-0.08026 1.39991,-0.14313 2.10065,-0.193269 0.70074,-0.05014 1.40102,-0.08712 2.0991,-0.114722 0.69808,-0.0276 1.39383,-0.04627 2.08462,-0.05891 h 5.2e-4 c 1.89521,-0.0044 3.79025,-0.005 5.68544,0.0078 0.85296,-0.01189 1.43938,-0.01477 2.11615,-0.02067 V 28.99978 c -2.08333,0 -4.18535,-0.03468 -6.28179,-0.02946 z" />
      <g
         id="g270">
        <path
           id="path268"
           style="fill:url(#linearGradient282);fill-opacity:1;fill-rule:evenodd;stroke:none;stroke-width:0.095401px;stroke-linecap:butt;stroke-linejoin:miter;stroke-opacity:1"
           d="m 124.7774,43.987496 c -5.26618,2.004345 -10.53235,4.008724 -15.79852,6.01307 5.26617,1.99565 10.53234,3.991063 15.79852,5.986714 0,0 0.006,-0.03568 0.007,-0.03721 a 1.8525248,1.2113422 5.9041812 0 1 -0.63975,-1.062984 1.8525248,1.2113422 5.9041812 0 1 0.97048,-0.896586 c 0.0115,-0.07419 0.0225,-0.14167 0.0341,-0.218075 a 2.7089832,4.9664698 0 0 1 -1.08417,-3.946529 2.7089832,4.9664698 0 0 1 0.87798,-3.647839 1.3061171,1.8543636 80.731807 0 1 -0.88573,-0.906921 1.3061171,1.8543636 80.731807 0 1 0.72657,-1.25212 c -2.4e-4,-0.0012 -0.006,-0.03152 -0.006,-0.03152 z" />
        <path
           style="fill:url(#linearGradient283);fill-opacity:1;fill-rule:evenodd;stroke:none;stroke-width:0.095401px;stroke-linecap:butt;stroke-linejoin:miter;stroke-opacity:1"
           d="m 108.97853,50.000555 c 2.07169,0.7851 4.14339,1.570202 6.21508,2.355303 0.28027,-0.743026 0.42615,-1.550736 0.42775,-2.368417 -0.002,-0.812435 -0.14648,-1.614974 -0.4237,-2.353934 -2.07304,0.789016 -4.14609,1.578032 -6.21913,2.367048 z"
           id="path269"
           inkscape:connector-curvature="0"
           sodipodi:nodetypes="ccccc" />
        <path
           id="path270"
           style="opacity:0.4;fill:#ffffff;fill-rule:evenodd;stroke:none;stroke-width:1px;stroke-linecap:butt;stroke-linejoin:miter;stroke-opacity:1;filter:url(#filter4377)"
           d="m 317.93475,600.89255 42.06473,-148.52781 c -6.64517,47.95271 -13.29114,95.90156 -19.93631,143.85426 a 53.881344,27.435267 0 0 0 -20.92304,7.10192 14.138656,18.821853 11.542312 0 0 -1.20538,-2.42837 z"
           transform="matrix(0,0.0921742,0.09874091,0,65.370305,16.761574)" />
      </g>
      <g
         id="g281">
        <path
           d="m 131.79167,50.908066 c 0.003,0.1831 -0.036,0.3673 -0.118,0.5528 -0.08,0.1852 -0.27,0.3455 -0.424,0.4754 -0.169,0.1411 -0.364,0.2537 -0.588,0.338 -0.221,0.0842 -0.486,0.1322 -0.796,0.1442 -0.333,0.0128 -0.707,-0.0025 -0.971,-0.0635 -0.261,-0.0609 -0.526,-0.1523 -0.795,-0.2741 l 0.043,-0.7817 0.043,-3e-4 c 0.223,0.1956 0.485,0.3459 0.785,0.4506 0.301,0.1048 0.645,0.1395 0.914,0.1291 0.38,-0.0146 0.678,-0.0986 0.892,-0.2519 0.216,-0.1534 0.327,-0.351 0.333,-0.593 0.005,-0.2083 -0.042,-0.3599 -0.141,-0.4549 -0.097,-0.095 -0.247,-0.1659 -0.45,-0.2127 -0.154,-0.0361 -0.322,-0.0644 -0.503,-0.0847 -0.18,-0.0204 -0.37,-0.0478 -0.572,-0.082 -0.407,-0.0726 -0.708,-0.2208 -0.895,-0.4314 -0.185,-0.2128 -0.268,-0.4905 -0.25,-0.833 0.022,-0.3929 0.203,-0.7157 0.543,-0.9683 0.341,-0.2548 0.69,-0.4001 1.192,-0.4195 0.325,-0.0125 0.622,0.0076 0.891,0.0602 0.27,0.0527 0.424,0.1238 0.634,0.2002 l 0.011,0.7385 -0.044,0.0034 c -0.177,-0.1378 -0.349,-0.2571 -0.634,-0.3449 -0.283,-0.09 -0.574,-0.1292 -0.874,-0.1176 -0.329,0.0126 -0.595,0.0923 -0.799,0.2388 -0.202,0.1465 -0.265,0.3258 -0.277,0.5443 -0.011,0.1954 0.008,0.351 0.104,0.4587 0.097,0.1077 0.27,0.1861 0.519,0.2354 0.131,0.0243 0.319,0.0528 0.562,0.0855 0.243,0.0327 0.448,0.0679 0.617,0.1055 0.341,0.0793 0.6,0.2136 0.776,0.3874 0.176,0.1737 0.267,0.4289 0.272,0.7656 z"
           style="font-size:52.1359px;line-height:1.25;letter-spacing:0px;word-spacing:0px;fill:url(#linearGradient284);stroke:none;stroke-width:0.122847px"
           id="path271" />
        <path
           d="m 133.31267,48.012166 -0.657,0.0511 -0.01,-0.6154 0.657,-0.0512 z m 0.026,4.1184 -0.582,0.0453 -0.055,-3.5253 0.583,-0.0453 z"
           style="font-size:52.1359px;line-height:1.25;letter-spacing:0px;word-spacing:0px;fill:url(#linearGradient285);stroke:none;stroke-width:0.122847px"
           id="path272" />
        <path
           d="m 135.20567,51.917166 -0.578,0.0782 -0.353,-4.8982 0.577,-0.0781 z"
           style="font-size:52.1359px;line-height:1.25;letter-spacing:0px;word-spacing:0px;fill:url(#linearGradient286);stroke:none;stroke-width:0.122847px"
           id="path273" />
        <path
           d="m 139.14967,49.346766 -2.543,0.6378 c 0.028,0.215 0.083,0.3967 0.167,0.5453 0.083,0.1465 0.187,0.2603 0.31,0.3414 0.118,0.0798 0.335,0.1146 0.487,0.13 0.153,0.0149 0.316,0.0015 0.489,-0.0401 0.23,-0.0551 0.549,-0.1853 0.756,-0.3453 0.209,-0.1627 0.351,-0.3035 0.427,-0.4226 l 0.03,-0.0088 0.145,0.6305 c -0.169,0.138 -0.346,0.2639 -0.53,0.3776 -0.183,0.1136 -0.513,0.2244 -0.732,0.2771 -0.559,0.1345 -1.131,0.0867 -1.488,-0.1653 -0.358,-0.254 -0.644,-0.6654 -0.686,-1.2468 -0.041,-0.575 0.057,-1.0564 0.316,-1.4508 0.262,-0.3948 0.585,-0.6349 1.076,-0.7529 0.454,-0.1093 0.768,-0.0642 1.072,0.1346 0.306,0.1982 0.517,0.5464 0.632,1.0447 z m -0.646,-0.2812 c -0.072,-0.3029 -0.201,-0.5156 -0.386,-0.6381 -0.183,-0.1231 -0.388,-0.1572 -0.69,-0.0846 -0.303,0.0731 -0.501,0.2186 -0.66,0.4396 -0.157,0.2206 -0.23,0.471 -0.219,0.7512 z"
           style="font-size:52.1359px;line-height:1.25;letter-spacing:0px;word-spacing:0px;fill:url(#linearGradient287);stroke:none;stroke-width:0.122847px"
           id="path274" />
        <path
           d="m 143.56367,49.070566 -0.487,0.3215 -0.998,-1.7411 c -0.081,-0.1405 -0.164,-0.2668 -0.25,-0.3788 -0.087,-0.1138 -0.171,-0.1918 -0.252,-0.2338 -0.087,-0.0482 -0.181,-0.0638 -0.284,-0.0467 -0.103,0.0152 -0.18,0.0237 -0.316,0.0977 -0.14,0.0761 -0.269,0.1918 -0.388,0.3473 -0.119,0.1555 -0.208,0.296 -0.31,0.4771 l 0.919,2.4665 -0.694,0.2845 -0.998,-3.3811 0.462,-0.207 0.137,0.3667 c 0.112,-0.218 0.173,-0.3706 0.307,-0.5416 0.135,-0.1711 0.292,-0.3055 0.472,-0.4033 0.329,-0.1788 0.525,-0.2006 0.803,-0.1098 0.278,0.0907 0.502,0.3339 0.746,0.6899 z"
           style="font-size:52.1359px;line-height:1.25;letter-spacing:0px;word-spacing:0px;fill:url(#linearGradient288);stroke:none;stroke-width:0.122847px"
           id="path275" />
        <path
           d="m 146.19467,46.705266 c -0.052,0.1028 -0.214,0.3071 -0.293,0.4134 -0.079,0.105 -0.154,0.1932 -0.225,0.2649 -0.25,0.2502 -0.612,0.4462 -0.869,0.417 -0.257,-0.0293 -0.518,-0.2116 -0.782,-0.5471 l -1.161,-1.4724 -0.265,0.2323 -0.281,-0.4117 0.237,-0.2118 -0.627,-0.7957 0.345,-0.3126 0.671,0.7597 0.793,-0.8196 0.351,0.3545 -0.814,0.839 1.02,1.2387 c 0.114,0.1454 0.207,0.2567 0.279,0.3338 0.069,0.0758 0.151,0.1325 0.244,0.1701 0.086,0.0358 0.243,-0.0301 0.325,-0.0557 0.082,-0.0287 0.181,-0.1008 0.297,-0.2164 0.067,-0.0673 0.128,-0.1478 0.183,-0.2414 0.054,-0.0953 0.159,-0.2474 0.176,-0.2948 l 0.021,-0.0231 z"
           style="font-size:52.1359px;line-height:1.25;letter-spacing:0px;word-spacing:0px;fill:url(#linearGradient289);stroke:none;stroke-width:0.122847px"
           id="path276" />
        <path
           d="m 149.03467,43.455966 -0.496,0.5758 -4.397,-1.2812 2.958,2.988 -0.383,0.4287 -3.306,-3.3402 0.576,-0.6611 4.057,1.1227 -2.747,-2.6812 0.375,-0.4348 z"
           style="font-size:52.1359px;line-height:1.25;letter-spacing:0px;word-spacing:0px;fill:url(#linearGradient290);stroke:none;stroke-width:0.122847px"
           id="path277" />
        <path
           d="m 150.61567,39.412466 c 0.321,0.4761 0.536,0.8637 0.521,1.3178 -0.015,0.4542 -0.109,0.7451 -0.457,1.0851 -0.351,0.3429 -0.658,0.4266 -1.084,0.3959 -0.424,-0.0322 -0.834,-0.2575 -1.227,-0.6757 -0.394,-0.4183 -0.607,-0.8534 -0.638,-1.3053 -0.031,-0.455 0.167,-0.8896 0.518,-1.2325 0.348,-0.34 0.845,-0.5486 1.262,-0.4479 0.415,0.0989 0.784,0.3864 1.105,0.8626 z m -0.437,0.3517 c -0.279,-0.3614 -0.552,-0.5715 -0.819,-0.6304 -0.269,-0.0605 -0.554,0.0327 -0.777,0.2511 -0.226,0.2214 -0.329,0.478 -0.31,0.7698 0.021,0.2889 0.194,0.6091 0.507,0.9416 0.303,0.3217 0.594,0.5019 0.871,0.5406 0.276,0.0371 0.47,0.0112 0.695,-0.2087 0.222,-0.217 0.256,-0.3945 0.25,-0.6886 -0.005,-0.2972 -0.144,-0.6223 -0.417,-0.9754 z"
           style="font-size:52.1359px;line-height:1.25;letter-spacing:0px;word-spacing:0px;fill:url(#linearGradient291);stroke:none;stroke-width:0.122847px"
           id="path278" />
        <path
           d="m 153.55067,39.581166 c -0.083,0.0796 -0.178,0.1595 -0.284,0.2396 -0.104,0.0791 -0.2,0.1432 -0.289,0.1922 -0.31,0.171 -0.413,0.1376 -0.663,0.0712 -0.25,-0.0664 -0.482,-0.2848 -0.694,-0.6553 l -0.934,-1.6258 -0.329,0.2174 -0.248,-0.4325 0.329,-0.2175 -0.504,-0.8786 0.634,-0.4017 0.433,0.9156 1.143,-0.6079 0.176,0.4664 -1.147,0.6175 0.8,1.3932 c 0.092,0.1606 0.168,0.2842 0.227,0.3708 0.058,0.0852 0.13,0.1532 0.217,0.204 0.08,0.0479 0.039,0.1467 0.125,0.1448 0.087,-0.0048 0.202,-0.0467 0.345,-0.1257 0.083,-0.046 0.165,-0.1063 0.243,-0.181 0.078,-0.0767 0.133,-0.1345 0.165,-0.1736 l -0.105,0.0529 z"
           style="font-size:52.1359px;line-height:1.25;letter-spacing:0px;word-spacing:0px;fill:url(#linearGradient292);stroke:none;stroke-width:0.122847px"
           id="path279" />
        <path
           d="m 156.05867,36.944266 -2.355,0.7512 c 0.062,0.2077 0.147,0.3782 0.253,0.5114 0.106,0.1311 0.226,0.2268 0.36,0.2871 0.13,0.0597 0.271,0.0885 0.423,0.0862 0.155,-0.0029 0.199,-8e-4 0.37,-0.0517 0.226,-0.0676 0.442,-0.1815 0.649,-0.3419 0.208,-0.163 0.268,-0.2773 0.351,-0.3923 l 0.03,-0.0073 0.113,0.6371 c -0.177,0.1292 -0.238,0.2251 -0.421,0.3391 -0.183,0.114 -0.383,0.2032 -0.599,0.2678 -0.551,0.1647 -0.714,0.0729 -1.12,-0.0896 -0.406,-0.1645 -0.713,-0.5193 -0.919,-1.0645 -0.203,-0.5392 -0.208,-1.0605 -0.016,-1.4914 0.195,-0.4317 0.593,-0.7778 1.077,-0.9223 0.448,-0.1339 0.877,-0.1255 1.171,0.0885 0.295,0.2135 0.488,0.572 0.577,1.0755 z m -0.616,-0.3072 c -0.072,-0.3028 -0.201,-0.5153 -0.387,-0.6374 -0.183,-0.1228 -0.423,-0.1398 -0.721,-0.0509 -0.299,0.0894 -0.545,0.2913 -0.666,0.5349 -0.119,0.243 -0.151,0.5018 -0.095,0.7765 z"
           style="font-size:52.1359px;line-height:1.25;letter-spacing:0px;word-spacing:0px;fill:url(#linearGradient293);stroke:none;stroke-width:0.122847px"
           id="path280" />
        <path
           d="m 159.36367,37.000666 c 0.03,0.3206 -0.076,0.6039 -0.316,0.8498 -0.239,0.2456 -0.489,0.383 -0.934,0.4699 -0.252,0.0493 -0.488,0.0643 -0.707,0.0451 -0.217,-0.0217 -0.301,-0.0694 -0.455,-0.1078 l -0.116,-0.6557 0.031,-0.0075 c 0.203,0.0954 0.346,0.1809 0.578,0.2211 0.232,0.0381 0.45,0.0373 0.653,-0.0024 0.251,-0.0492 0.371,-0.1094 0.507,-0.2156 0.135,-0.1062 0.194,-0.2494 0.178,-0.4296 -0.013,-0.1383 -0.062,-0.237 -0.146,-0.2961 -0.085,-0.0591 -0.239,-0.0965 -0.465,-0.1123 -0.083,-0.0061 -0.157,-0.012 -0.293,-0.0112 -0.133,3e-4 -0.255,-0.0036 -0.367,-0.0117 -0.309,-0.023 -0.537,-0.1005 -0.683,-0.2323 -0.145,-0.1344 -0.226,-0.31 -0.267,-0.5379 -0.025,-0.143 -0.021,-0.2845 0.013,-0.4245 0.036,-0.1406 0.139,-0.2767 0.243,-0.3998 0.101,-0.1203 0.235,-0.2257 0.403,-0.3162 0.169,-0.093 0.406,-0.175 0.624,-0.2092 0.205,-0.0319 0.414,-0.038 0.627,-0.0182 0.215,0.0174 0.396,0.0519 0.542,0.1035 l 0.059,0.6318 -0.032,0.0049 c -0.157,-0.0881 -0.345,-0.1534 -0.562,-0.1959 -0.218,-0.0446 -0.456,-0.0533 -0.657,-0.014 -0.209,0.0409 -0.38,0.1171 -0.513,0.2288 -0.134,0.1096 -0.19,0.2457 -0.168,0.4084 0.018,0.144 0.076,0.244 0.173,0.2999 0.095,0.0563 0.241,0.0888 0.438,0.0974 0.109,0.0044 0.216,0.0062 0.35,0.0109 0.135,0.0044 0.247,0.0102 0.337,0.0174 0.274,0.0211 0.49,0.0967 0.65,0.227 0.159,0.1324 0.251,0.3264 0.275,0.582 z"
           style="font-size:52.1359px;line-height:1.25;letter-spacing:0px;word-spacing:0px;fill:url(#linearGradient294);stroke:none;stroke-width:0.122847px"
           id="path281" />
      </g>
    </g>
  </g>
</svg>
