<?xml version="1.0" encoding="UTF-8" standalone="no"?>
<!-- Created with Inkscape (http://www.inkscape.org/) -->

<svg
   width="456"
   height="456"
   viewBox="0 0 456 456"
   id="svg2"
   version="1.1"
   xmlns:xlink="http://www.w3.org/1999/xlink"
   xmlns="http://www.w3.org/2000/svg"
   xmlns:svg="http://www.w3.org/2000/svg"
   xmlns:rdf="http://www.w3.org/1999/02/22-rdf-syntax-ns#"
   xmlns:cc="http://creativecommons.org/ns#"
   xmlns:dc="http://purl.org/dc/elements/1.1/">
  <defs
     id="defs4">
    <linearGradient
       id="linearGradient13960">
      <stop
         style="stop-color:#68b7e5;stop-opacity:0;"
         offset="0"
         id="stop13956" />
      <stop
         style="stop-color:#bad4e5;stop-opacity:1;"
         offset="1"
         id="stop13958" />
    </linearGradient>
    <linearGradient
       id="linearGradient13952">
      <stop
         style="stop-color:#238fcc;stop-opacity:1;"
         offset="0"
         id="stop13948" />
      <stop
         style="stop-color:#2083bd;stop-opacity:0;"
         offset="1"
         id="stop13950" />
    </linearGradient>
    <linearGradient
       id="linearGradient4211">
      <stop
         style="stop-color:#806600;stop-opacity:1;"
         offset="0"
         id="stop4213" />
      <stop
         style="stop-color:#806600;stop-opacity:0;"
         offset="1"
         id="stop4215" />
    </linearGradient>
    <linearGradient
       id="linearGradient4199">
      <stop
         style="stop-color:#d4d4d4;stop-opacity:1"
         offset="0"
         id="stop4201" />
      <stop
         style="stop-color:#000000;stop-opacity:1"
         offset="1"
         id="stop4203" />
    </linearGradient>
    <linearGradient
       id="linearGradient4165">
      <stop
         style="stop-color:#e1b986;stop-opacity:1;"
         offset="0"
         id="stop4167" />
      <stop
         style="stop-color:#c28231;stop-opacity:1"
         offset="1"
         id="stop4169" />
    </linearGradient>
    <filter
       style="color-interpolation-filters:sRGB"
       id="filter4377-3"
       x="-0.22390179"
       width="1.4478036"
       y="-0.061098214"
       height="1.1221964">
      <feGaussianBlur
         stdDeviation="4.2277418"
         id="feGaussianBlur4379-5" />
    </filter>
    <linearGradient
       xlink:href="#linearGradient4165"
       id="linearGradient7024"
       gradientUnits="userSpaceOnUse"
       gradientTransform="matrix(-0.55970665,-0.99006612,0.99006612,-0.55970665,-160.51006,931.82411)"
       x1="349.34433"
       y1="532.36218"
       x2="420"
       y2="532.36218" />
    <linearGradient
       xlink:href="#linearGradient4199"
       id="linearGradient7026"
       gradientUnits="userSpaceOnUse"
       gradientTransform="matrix(-0.55970665,-0.99006612,0.99006612,-0.55970665,-160.51006,931.82411)"
       x1="336.49805"
       y1="485.99902"
       x2="361.36771"
       y2="488.61685" />
    <linearGradient
       xlink:href="#linearGradient4211"
       id="linearGradient7028"
       gradientUnits="userSpaceOnUse"
       gradientTransform="matrix(0.99006612,-0.55970665,0.49791748,1.0249967,-183.75893,942.51762)"
       x1="792.99518"
       y1="-328.26901"
       x2="792.99518"
       y2="-396.33221" />
    <linearGradient
       xlink:href="#linearGradient4211"
       id="linearGradient7030"
       gradientUnits="userSpaceOnUse"
       gradientTransform="matrix(0.99006612,-0.55970665,0.49791748,1.0249967,-183.75893,942.51762)"
       x1="792.99518"
       y1="-328.26901"
       x2="792.99518"
       y2="-396.33221" />
    <linearGradient
       xlink:href="#linearGradient4211"
       id="linearGradient7032"
       gradientUnits="userSpaceOnUse"
       gradientTransform="matrix(0.99006612,-0.55970665,0.49791748,1.0249967,-183.75893,942.51762)"
       x1="792.99518"
       y1="-328.26901"
       x2="792.99518"
       y2="-396.33221" />
    <linearGradient
       xlink:href="#linearGradient4211"
       id="linearGradient7034"
       gradientUnits="userSpaceOnUse"
       gradientTransform="matrix(0.99006612,-0.55970665,0.49791748,1.0249967,-183.75893,942.51762)"
       x1="792.99518"
       y1="-328.26901"
       x2="792.99518"
       y2="-396.33221" />
    <linearGradient
       xlink:href="#linearGradient4211"
       id="linearGradient7036"
       gradientUnits="userSpaceOnUse"
       gradientTransform="matrix(0.99006612,-0.55970665,0.49791748,1.0249967,-183.75893,942.51762)"
       x1="792.99518"
       y1="-328.26901"
       x2="792.99518"
       y2="-396.33221" />
    <linearGradient
       xlink:href="#linearGradient4211"
       id="linearGradient7038"
       gradientUnits="userSpaceOnUse"
       gradientTransform="matrix(0.99006612,-0.55970665,0.49791748,1.0249967,-183.75893,942.51762)"
       x1="792.99518"
       y1="-328.26901"
       x2="792.99518"
       y2="-396.33221" />
    <linearGradient
       xlink:href="#linearGradient4211"
       id="linearGradient7040"
       gradientUnits="userSpaceOnUse"
       gradientTransform="matrix(0.99006612,-0.55970665,0.49791748,1.0249967,-183.75893,942.51762)"
       x1="792.99518"
       y1="-328.26901"
       x2="792.99518"
       y2="-396.33221" />
    <linearGradient
       xlink:href="#linearGradient4211"
       id="linearGradient7042"
       gradientUnits="userSpaceOnUse"
       gradientTransform="matrix(0.99006612,-0.55970665,0.49791748,1.0249967,-183.75893,942.51762)"
       x1="792.99518"
       y1="-328.26901"
       x2="792.99518"
       y2="-396.33221" />
    <linearGradient
       xlink:href="#linearGradient4211"
       id="linearGradient7044"
       gradientUnits="userSpaceOnUse"
       gradientTransform="matrix(0.99006612,-0.55970665,0.49791748,1.0249967,-183.75893,942.51762)"
       x1="792.99518"
       y1="-328.26901"
       x2="792.99518"
       y2="-396.33221" />
    <linearGradient
       xlink:href="#linearGradient4211"
       id="linearGradient7046"
       gradientUnits="userSpaceOnUse"
       gradientTransform="matrix(0.99006612,-0.55970665,0.49791748,1.0249967,-183.75893,942.51762)"
       x1="792.99518"
       y1="-328.26901"
       x2="792.99518"
       y2="-396.33221" />
    <linearGradient
       xlink:href="#linearGradient13952"
       id="linearGradient13954"
       x1="196.64543"
       y1="655.50751"
       x2="276.58859"
       y2="648.56598"
       gradientUnits="userSpaceOnUse"
       gradientTransform="matrix(1.216,0,0,1.216,-221.16001,-535.80001)" />
    <linearGradient
       xlink:href="#linearGradient13960"
       id="linearGradient13962"
       x1="471.6282"
       y1="635.43494"
       x2="519.05969"
       y2="641.57043"
       gradientUnits="userSpaceOnUse"
       gradientTransform="matrix(1.216,0,0,1.216,-221.16001,-535.80001)" />
  </defs>
  <metadata
     id="metadata7">
    <rdf:RDF>
      <cc:Work
         rdf:about="">
        <dc:format>image/svg+xml</dc:format>
        <dc:type
           rdf:resource="http://purl.org/dc/dcmitype/StillImage" />
      </cc:Work>
    </rdf:RDF>
  </metadata>
  <g
     id="layer4">
    <rect
       style="display:inline;opacity:0;fill:#ffffff;fill-opacity:0.760446;stroke:none;stroke-width:1.57378;stroke-opacity:1;stop-color:#000000"
       id="rect420"
       width="456"
       height="456"
       x="0"
       y="0" />
  </g>
  <g
     id="layer5"
     style="display:inline">
    <path
       d="M 152.18299,40.438822 C 180.27781,32.499084 210.13314,25.366636 228,25.366636 c 17.86658,0 47.72219,7.132448 75.81701,15.072186 28.74198,8.074361 57.71733,17.628972 74.75532,23.415819 14.53657,4.989771 25.04168,18.189049 27.0331,33.966065 15.43272,120.496654 -20.37833,209.799124 -63.82827,268.876844 -18.42493,25.27217 -40.3944,47.52712 -65.17446,66.02127 -8.56849,6.39974 -17.64703,12.02742 -27.13667,16.82169 C 242.21577,453.09323 234.42165,456 228,456 c -6.42165,0 -14.1898,-2.90677 -21.46601,-6.45949 -9.48972,-4.79417 -18.56827,-10.42184 -27.1367,-16.82169 C 154.61763,414.22405 132.64814,391.96921 114.22254,366.69755 70.772915,307.61983 34.961861,218.31736 50.394554,97.820706 52.385986,82.043678 62.891106,68.844412 77.427682,63.854641 102.16119,55.425195 127.08688,47.617648 152.18299,40.438822 Z"
       id="path13060"
       style="fill:#279fe5;fill-opacity:1;stroke-width:26.3992" />
    <path
       id="path783"
       style="fill:#e5e5e5;fill-opacity:0.25;stroke-width:26.3992"
       d="m 220.21593,25.750198 c -18.04325,1.551421 -43.68528,7.80796 -68.03261,14.688636 C 127.08725,47.617648 102.1622,55.426156 77.428715,63.855589 62.892153,68.845348 52.38522,82.044784 50.393788,97.821801 34.961106,218.31834 70.773073,307.61938 114.22266,366.69703 c 18.42557,25.27163 40.39409,47.52729 65.17371,66.02203 8.56843,6.39985 17.64763,12.02753 27.13734,16.82168 6.16342,3.00938 12.63051,5.43921 18.3825,6.14754 -6.43608,-53.69652 -12.3391,-120.53191 -13.66218,-192.76465 -1.55485,-84.88585 3.21821,-177.057055 8.9619,-237.173432 z" />
    <path
       id="path13867"
       style="fill:url(#linearGradient13954);fill-opacity:1;stroke:none;stroke-width:1.14;stroke-dasharray:none"
       d="m 105.18637,66.946503 c -8.515951,2.794867 -17.088678,5.440748 -25.490654,8.565309 -9.66641,4.203056 -16.373039,14.071905 -17.303146,24.500298 -0.72251,5.50614 -1.286138,10.81835 -1.771966,16.34841 -0.412358,4.77436 -0.787117,9.51615 -1.039717,14.19412 -0.558229,10.01198 -0.78353,20.00402 -0.596229,30.06299 0.08148,4.86816 0.251323,9.59485 0.508592,14.47348 1.614349,30.00398 6.821066,60.01584 15.931995,88.73101 1.863058,5.88155 3.942589,11.85819 6.12571,17.61594 11.765299,31.11085 28.260445,60.42381 48.766565,86.61239 8.26121,10.61986 17.27381,20.65089 26.88848,30.0613 5.25581,5.11724 10.82527,10.1843 16.50377,14.943 2.99299,2.5185 5.91521,4.88001 9.02269,7.2839 1.05673,0.94273 -0.0637,-0.38148 -0.36455,-0.85229 -15.57712,-21.89897 -29.77938,-44.86985 -41.03618,-69.30644 -14.35746,-30.95965 -24.222,-64.0181 -28.9413,-97.82498 -4.99786,-34.47804 -5.89196,-69.38574 -6.00719,-104.17585 -0.0255,-27.41537 0.67262,-54.828132 1.87163,-82.215845 -1.02283,0.327749 -2.04566,0.65551 -3.0685,0.983258 z" />
    <path
       id="path13939"
       style="fill:url(#linearGradient13962);fill-opacity:1;stroke:none;stroke-width:1.14;stroke-dasharray:none"
       d="m 372.36675,87.148252 c 1.75202,39.781698 3.63551,79.674348 0.95682,119.459898 -2.08187,31.86359 -6.58338,63.60839 -14.14163,94.64553 -3.07028,12.4192 -6.71853,24.69928 -11.04493,36.7397 6.46693,-10.47653 12.45719,-21.51463 17.73475,-32.73556 1.64056,-3.53042 3.2349,-7.00662 4.71746,-10.50082 2.90149,-6.75768 5.57577,-13.61363 8.05524,-20.64677 3.29884,-9.33801 6.19095,-18.88578 8.67076,-28.56441 1.86384,-7.24882 3.48805,-14.53921 4.88471,-21.95159 0.94392,-4.96268 1.73743,-9.78972 2.47953,-14.80169 0.97963,-6.70449 1.76578,-13.41814 2.369,-20.115 1.33998,-14.78953 1.78873,-29.65989 1.43509,-44.60418 -0.29814,-12.49871 -1.19826,-25.19047 -2.57436,-37.6524 -0.31914,-2.85377 -0.65086,-5.60374 -1.06718,-8.34251 -1.56172,-10.848204 -9.61539,-20.611589 -20.17949,-23.765748 -0.95805,-0.330824 -1.92184,-0.645185 -2.88477,-0.960821 0.19634,4.598789 0.39267,9.19758 0.589,13.796371 z" />
  </g>
  <g
     id="layer1">
    <path
       id="rect4341-6"
       style="display:inline;overflow:visible;fill:#ffe083;fill-rule:evenodd;stroke-width:3.29656;stroke-opacity:0.690476;enable-background:accumulate"
       d="M 456,22.18102 126.61348,208.39067 c -0.11092,0.0627 -0.13528,0.22917 -0.0533,0.37405 l 67.87453,120.06293 c 0.082,0.14471 0.23646,0.20971 0.34736,0.14696 L 456,181.30231 Z" />
    <path
       id="rect4466-7"
       style="display:inline;overflow:visible;fill:#e8ae00;fill-opacity:1;fill-rule:evenodd;stroke-width:4.01473;stroke-opacity:0.690476;enable-background:accumulate"
       d="M 456,22.18102 126.61348,208.39067 c -0.11092,0.0627 -0.10374,0.28608 0.0178,0.50097 l 16.85508,29.81144 c 0.12148,0.21492 0.3077,0.33662 0.4186,0.27388 L 456,62.54192 Z" />
    <path
       id="rect4464-8"
       style="display:inline;overflow:visible;fill:#fff0c1;fill-rule:evenodd;stroke-width:2.6986;stroke-opacity:0.690476;enable-background:accumulate"
       d="M 456,155.50535 183.73149,309.42539 c -0.11093,0.0627 -0.15739,0.19229 -0.10238,0.28946 l 10.8545,19.19741 c 0.0548,0.097 0.18748,0.1251 0.29837,0.0624 L 456,181.30231 Z" />
    <path
       style="fill:url(#linearGradient7024);fill-opacity:1;fill-rule:evenodd;stroke:none;stroke-width:1.09885px;stroke-linecap:butt;stroke-linejoin:miter;stroke-opacity:1"
       d="M 194.43433,328.82657 2.0870695,358.34893 126.41307,208.50366 c 0,0 29.2487,33.83993 40.29895,53.13527 12.04289,21.02862 27.72231,67.18764 27.72231,67.18764 z"
       id="path4348-4" />
    <path
       style="fill:url(#linearGradient7026);fill-opacity:1;fill-rule:evenodd;stroke:none;stroke-width:1.09885px;stroke-linecap:butt;stroke-linejoin:miter;stroke-opacity:1"
       d="M 2.086206,358.34942 77.755187,346.73603 A 65.724597,53.963588 60.519547 0 0 68.618953,320.56345 65.724597,53.963588 60.519547 0 0 51.027434,299.3625 Z"
       id="path4392-2" />
    <path
       d="m 234.05326,247.85595 q 1.07342,2.20967 1.1311,4.9288 0.0819,2.70547 -0.95472,5.2015 -1.1441,2.71869 -3.28629,5.09516 -2.11801,2.36281 -5.74374,4.41252 -3.89163,2.20002 -7.37989,3.20081 -3.4641,0.98713 -7.40684,1.30602 l -3.05982,-6.29883 0.3384,-0.19131 q 3.89115,0.84335 8.09778,0.11625 4.20663,-0.72705 7.34892,-2.50348 4.44758,-2.51431 6.06174,-5.6606 1.63836,-3.15997 0.21949,-6.08079 -1.22146,-2.51446 -2.98576,-3.03861 -1.74011,-0.53783 -4.45388,0.15461 -2.05963,0.51689 -4.34712,1.38921 -2.26331,0.85864 -4.87888,1.68981 -5.30415,1.63888 -8.87075,0.38544 -3.55478,-1.2925 -5.56586,-5.43246 -2.3072,-4.74952 0.0437,-9.93098 2.33855,-5.20685 8.21224,-8.52736 3.79492,-2.14537 7.33153,-3.17349 3.53661,-1.02812 6.5208,-1.29073 l 2.8871,5.94327 -0.33841,0.19131 q -2.94291,-0.66721 -6.88265,0.0384 -3.92789,0.6666 -7.43276,2.64799 -3.84327,2.17268 -5.37361,5.17446 -1.50616,2.98812 -0.22301,5.62957 1.14742,2.36206 2.96157,3.05227 1.81414,0.69023 5.08437,-0.25205 1.7197,-0.51896 4.8187,-1.62343 3.09901,-1.10445 5.34017,-1.69159 4.55534,-1.15082 7.68384,-0.0382 3.12849,1.11264 5.10256,5.1764 z"
       style="font-size:52.1359px;line-height:1.25;letter-spacing:0px;word-spacing:0px;fill:url(#linearGradient7028);stroke-width:1.09885px"
       id="path806-4" />
    <path
       d="m 235.41482,218.62998 -5.12437,2.89693 -2.4059,-4.95274 5.12436,-2.89691 z m 15.79865,33.28364 -4.54426,2.56898 -13.78149,-28.37016 4.54424,-2.56897 z"
       style="font-size:52.1359px;line-height:1.25;letter-spacing:0px;word-spacing:0px;fill:url(#linearGradient7030);stroke-width:1.09885px"
       id="path808-3" />
    <path
       d="m 264.79787,244.23407 -4.54425,2.56895 -19.19786,-39.52009 4.54424,-2.56898 z"
       style="font-size:52.1359px;line-height:1.25;letter-spacing:0px;word-spacing:0px;fill:url(#linearGradient7032);stroke-width:1.09885px"
       id="path810-3" />
    <path
       d="m 289.7399,212.68448 -19.89317,11.24605 q 1.27082,2.61605 2.97015,4.14813 1.68699,1.50668 3.59683,2.01332 1.84914,0.50855 3.86142,0.14793 2.03648,-0.3743 4.11523,-1.54947 2.75555,-1.55776 4.98007,-4.27215 2.23635,-2.75344 2.87788,-4.54055 l 0.24172,-0.13664 2.52928,5.2067 q -1.80277,2.31407 -3.86264,4.35265 -2.05985,2.03858 -4.69455,3.52803 -6.71969,3.79879 -12.34115,2.12071 -5.63379,-1.70349 -9.05141,-8.73888 -3.3806,-6.95919 -1.76545,-13.0844 1.63932,-6.13888 7.53717,-9.47306 5.46278,-3.08823 10.04032,-1.4027 4.60171,1.67183 7.59983,7.84366 z m -6.20006,-1.15676 q -1.85014,-3.74534 -4.63825,-4.7914 -2.76389,-1.05975 -6.38963,0.98995 -3.6499,2.06338 -4.72726,5.55366 -1.05319,3.47663 0.28537,6.99321 z"
       style="font-size:52.1359px;line-height:1.25;letter-spacing:0px;word-spacing:0px;fill:url(#linearGradient7034);stroke-width:1.09885px"
       id="path812-3" />
    <path
       d="m 325.85518,209.71699 -4.54425,2.56895 -7.84693,-16.15345 q -0.95003,-1.95569 -1.99423,-3.5344 -1.05651,-1.60412 -2.10547,-2.24131 -1.12249,-0.72513 -2.50531,-0.59085 -1.39517,0.10887 -3.20803,1.13372 -1.86121,1.05219 -3.42277,3.16516 -1.56156,2.11299 -2.69484,4.66368 l 10.28986,21.18238 -4.54424,2.56895 -13.78151,-28.37014 4.54424,-2.56897 1.52991,3.14942 q 1.22643,-3.0566 2.9927,-5.38241 1.76626,-2.32583 4.15925,-3.67864 4.37504,-2.47332 8.01619,-1.00301 3.64113,1.47029 6.17041,6.67699 z"
       style="font-size:52.1359px;line-height:1.25;letter-spacing:0px;word-spacing:0px;fill:url(#linearGradient7036);stroke-width:1.09885px"
       id="path814-2" />
    <path
       d="m 348.5014,196.59085 q -1.10837,1.0798 -2.52013,2.16927 -1.38759,1.07579 -2.57201,1.74535 -4.13334,2.33667 -7.41968,1.21617 -3.28636,-1.1205 -5.79097,-6.2764 l -7.32874,-15.08673 -3.0698,1.73542 -1.9494,-4.01297 3.0698,-1.73541 -3.96049,-8.15293 4.54425,-2.56897 3.96048,8.15292 9.37856,-5.3019 1.94939,4.01296 -9.37856,5.3019 6.28003,12.92786 q 1.08574,2.23507 1.79933,3.45034 0.70124,1.18986 1.81189,1.95405 1.0253,0.71532 2.17824,0.67864 1.16477,-0.0758 3.07433,-1.15527 1.11188,-0.62858 2.16007,-1.64199 1.03584,-1.03881 1.45658,-1.56802 l 0.24171,-0.13666 z"
       style="font-size:52.1359px;line-height:1.25;letter-spacing:0px;word-spacing:0px;fill:url(#linearGradient7038);stroke-width:1.09885px"
       id="path816-8" />
    <path
       d="m 381.93315,178.01485 -5.92204,3.34785 -33.49926,-24.18354 16.43416,33.83084 -4.47173,2.52796 -18.37123,-37.81839 7.42066,-4.19508 30.56943,22.08454 -15.00296,-30.88462 4.47173,-2.52796 z"
       style="font-size:52.1359px;line-height:1.25;letter-spacing:0px;word-spacing:0px;fill:url(#linearGradient7040);stroke-width:1.09885px"
       id="path818-1" />
    <path
       d="m 407.26924,145.6274 q 3.36826,6.9338 1.93363,12.85982 -1.43461,5.92603 -7.11492,9.13725 -5.72866,3.23854 -11.06207,1.13861 -5.30923,-2.11356 -8.67751,-9.04737 -3.36825,-6.93379 -1.95781,-12.84615 1.42228,-5.95144 7.15092,-9.18997 5.68032,-3.2112 11.02607,-1.0859 5.33342,2.09992 8.70169,9.03371 z m -4.68929,2.65096 q -2.67733,-5.51149 -6.02739,-7.01682 -3.36241,-1.53075 -7.01231,0.53262 -3.69824,2.0907 -4.445,5.94445 -0.73492,3.81468 1.94241,9.32616 2.59097,5.33368 5.99039,6.94062 3.38708,1.58155 7.06114,-0.49549 3.62574,-2.04971 4.36016,-5.92885 0.74624,-3.9182 -1.8694,-9.30269 z"
       style="font-size:52.1359px;line-height:1.25;letter-spacing:0px;word-spacing:0px;fill:url(#linearGradient7042);stroke-width:1.09885px"
       id="path820-0" />
    <path
       d="m 435.08384,147.64383 q -1.10836,1.07982 -2.52012,2.16928 -1.3876,1.07579 -2.572,1.74536 -4.13334,2.33666 -7.41969,1.21616 -3.28637,-1.1205 -5.79097,-6.2764 l -7.32875,-15.08672 -3.0698,1.73541 -1.94938,-4.01296 3.06979,-1.73543 -3.96049,-8.15291 4.54424,-2.56897 3.96048,8.15293 9.37857,-5.30191 1.94938,4.01296 -9.37855,5.30191 6.28003,12.92785 q 1.08573,2.23507 1.79932,3.45033 0.70125,1.18988 1.8119,1.95406 1.02529,0.71531 2.17824,0.67864 1.16477,-0.0758 3.07432,-1.15528 1.11189,-0.62857 2.16008,-1.64199 1.03584,-1.03881 1.45657,-1.56803 l 0.24172,-0.13664 z"
       style="font-size:52.1359px;line-height:1.25;letter-spacing:0px;word-spacing:0px;fill:url(#linearGradient7044);stroke-width:1.09885px"
       id="path822-7" />
    <path
       id="path824-2"
       style="font-size:52.1359px;line-height:1.25;letter-spacing:0px;word-spacing:0px;fill:url(#linearGradient7046);stroke-width:1.09885px"
       d="m 444.22817,107.3025 c -2.04563,0.0435 -4.20537,0.70824 -6.48152,1.995 -3.93191,2.2228 -6.44627,5.38144 -7.53915,9.47403 -1.07676,4.08345 -0.48807,8.44382 1.76567,13.08328 2.2784,4.69025 5.29734,7.60361 9.0532,8.73926 3.74764,1.11871 7.85982,0.41284 12.3396,-2.1197 0.9324,-0.5271 1.80963,-1.10869 2.63403,-1.73894 v -6.35239 c -1.4132,1.65584 -2.97915,2.97666 -4.70472,3.95215 -1.38583,0.78345 -2.75706,1.30016 -4.1147,1.5497 -1.34151,0.2404 -2.63032,0.19208 -3.86308,-0.14696 -1.27321,-0.33775 -2.47124,-1.01058 -3.5959,-2.01504 -1.1329,-1.02138 -2.12302,-2.40406 -2.97024,-4.14808 L 456,118.69359 v -1.68772 l -0.61453,-1.26691 c -1.99874,-4.11457 -4.53146,-6.72963 -7.59926,-7.84419 -1.14439,-0.42138 -2.33067,-0.61842 -3.55804,-0.59227 z m -0.61677,4.72031 c 0.77177,-0.0265 1.50443,0.0935 2.19539,0.35848 1.85869,0.69742 3.40445,2.29471 4.63793,4.79156 l -15.47015,8.74594 c -0.89236,-2.34439 -0.98713,-4.67588 -0.28499,-6.99364 0.71824,-2.32685 2.29373,-4.17746 4.72699,-5.55304 1.51073,-0.85404 2.90855,-1.305 4.19483,-1.3493 z" />
    <path
       style="opacity:0.4;fill:#ffffff;fill-rule:evenodd;stroke:none;stroke-width:1px;stroke-linecap:butt;stroke-linejoin:miter;stroke-opacity:1;filter:url(#filter4377-3)"
       d="m 359.99998,452.3622 -23.01359,166.06999 -22.30351,-6.07001 z"
       id="path4235-0"
       transform="matrix(-0.48216927,-0.85327891,0.91367344,-0.51674351,-221.9457,890.99385)" />
  </g>
</svg>
