<?xml version="1.0" encoding="UTF-8" standalone="no"?>
<!-- Created with Inkscape (http://www.inkscape.org/) -->

<svg
   width="55mm"
   height="55mm"
   viewBox="0 0 55 55"
   version="1.1"
   id="svg1"
   xmlns:xlink="http://www.w3.org/1999/xlink"
   xmlns="http://www.w3.org/2000/svg"
   xmlns:svg="http://www.w3.org/2000/svg">
  <defs
     id="defs1">
    <linearGradient
       id="linearGradient4211-1">
      <stop
         style="stop-color:#806600;stop-opacity:0;"
         offset="0"
         id="stop4213-2" />
      <stop
         style="stop-color:#806600;stop-opacity:1;"
         offset="1"
         id="stop4215-6" />
    </linearGradient>
    <radialGradient
       xlink:href="#linearGradient4211-1"
       id="radialGradient1"
       cx="74.261223"
       cy="205.63583"
       fx="74.261223"
       fy="205.63583"
       r="15.358513"
       gradientTransform="matrix(1.8807521,-0.25355285,0.24022262,1.7818739,-115.6527,-142.09606)"
       gradientUnits="userSpaceOnUse" />
    <radialGradient
       xlink:href="#linearGradient4211-1"
       id="radialGradient2"
       cx="74.261223"
       cy="205.63583"
       fx="74.261223"
       fy="205.63583"
       r="15.358513"
       gradientTransform="matrix(1.8807521,-0.25355285,0.24022262,1.7818739,-115.6527,-142.09606)"
       gradientUnits="userSpaceOnUse" />
    <radialGradient
       xlink:href="#linearGradient4211-1"
       id="radialGradient4"
       cx="74.261223"
       cy="205.63583"
       fx="74.261223"
       fy="205.63583"
       r="15.358513"
       gradientTransform="matrix(1.8807521,-0.25355285,0.24022262,1.7818739,-115.6527,-142.09606)"
       gradientUnits="userSpaceOnUse" />
    <radialGradient
       xlink:href="#linearGradient4211-1"
       id="radialGradient6"
       cx="74.261223"
       cy="205.63583"
       fx="74.261223"
       fy="205.63583"
       r="15.358513"
       gradientTransform="matrix(1.8807521,-0.25355285,0.24022262,1.7818739,-115.6527,-142.09606)"
       gradientUnits="userSpaceOnUse" />
    <radialGradient
       xlink:href="#linearGradient4211-1"
       id="radialGradient8"
       cx="74.261223"
       cy="205.63583"
       fx="74.261223"
       fy="205.63583"
       r="15.358513"
       gradientTransform="matrix(1.8807521,-0.25355285,0.24022262,1.7818739,-115.6527,-142.09606)"
       gradientUnits="userSpaceOnUse" />
    <radialGradient
       xlink:href="#linearGradient4211-1"
       id="radialGradient11"
       cx="74.261223"
       cy="205.63583"
       fx="74.261223"
       fy="205.63583"
       r="15.358513"
       gradientTransform="matrix(1.8807521,-0.25355285,0.24022262,1.7818739,-115.6527,-142.09606)"
       gradientUnits="userSpaceOnUse" />
    <radialGradient
       xlink:href="#linearGradient4211-1"
       id="radialGradient12"
       cx="74.261223"
       cy="205.63583"
       fx="74.261223"
       fy="205.63583"
       r="15.358513"
       gradientTransform="matrix(1.8807521,-0.25355285,0.24022262,1.7818739,-115.6527,-142.09606)"
       gradientUnits="userSpaceOnUse" />
    <radialGradient
       xlink:href="#linearGradient4211-1"
       id="radialGradient14"
       cx="74.261223"
       cy="205.63583"
       fx="74.261223"
       fy="205.63583"
       r="15.358513"
       gradientTransform="matrix(1.8807521,-0.25355285,0.24022262,1.7818739,-115.6527,-142.09606)"
       gradientUnits="userSpaceOnUse" />
    <radialGradient
       xlink:href="#linearGradient4211-1"
       id="radialGradient16"
       cx="74.261223"
       cy="205.63583"
       fx="74.261223"
       fy="205.63583"
       r="15.358513"
       gradientTransform="matrix(1.8807521,-0.25355285,0.24022262,1.7818739,-115.6527,-142.09606)"
       gradientUnits="userSpaceOnUse" />
    <radialGradient
       xlink:href="#linearGradient4211-1"
       id="radialGradient18"
       cx="74.261223"
       cy="205.63583"
       fx="74.261223"
       fy="205.63583"
       r="15.358513"
       gradientTransform="matrix(1.8807521,-0.25355285,0.24022262,1.7818739,-115.6527,-142.09606)"
       gradientUnits="userSpaceOnUse" />
    <radialGradient
       xlink:href="#linearGradient4211-1"
       id="radialGradient20"
       cx="74.261223"
       cy="205.63583"
       fx="74.261223"
       fy="205.63583"
       r="15.358513"
       gradientTransform="matrix(1.8807521,-0.25355285,0.24022262,1.7818739,-115.6527,-142.09606)"
       gradientUnits="userSpaceOnUse" />
    <linearGradient
       id="linearGradient4199">
      <stop
         style="stop-color:#d4d4d4;stop-opacity:1"
         offset="0"
         id="stop4201" />
      <stop
         style="stop-color:#000000;stop-opacity:1"
         offset="1"
         id="stop4203" />
    </linearGradient>
    <radialGradient
       xlink:href="#linearGradient4211-1"
       id="radialGradient1-4"
       cx="74.261223"
       cy="205.63583"
       fx="74.261223"
       fy="205.63583"
       r="15.358513"
       gradientTransform="matrix(1.8807521,-0.25355285,0.24022262,1.7818739,-115.6527,-142.09606)"
       gradientUnits="userSpaceOnUse" />
    <radialGradient
       xlink:href="#linearGradient4211-1"
       id="radialGradient2-2"
       cx="74.261223"
       cy="205.63583"
       fx="74.261223"
       fy="205.63583"
       r="15.358513"
       gradientTransform="matrix(1.8807521,-0.25355285,0.24022262,1.7818739,-115.6527,-142.09606)"
       gradientUnits="userSpaceOnUse" />
    <radialGradient
       xlink:href="#linearGradient4211-1"
       id="radialGradient4-8"
       cx="74.261223"
       cy="205.63583"
       fx="74.261223"
       fy="205.63583"
       r="15.358513"
       gradientTransform="matrix(1.8807521,-0.25355285,0.24022262,1.7818739,-115.6527,-142.09606)"
       gradientUnits="userSpaceOnUse" />
    <radialGradient
       xlink:href="#linearGradient4211-1"
       id="radialGradient6-1"
       cx="74.261223"
       cy="205.63583"
       fx="74.261223"
       fy="205.63583"
       r="15.358513"
       gradientTransform="matrix(1.8807521,-0.25355285,0.24022262,1.7818739,-115.6527,-142.09606)"
       gradientUnits="userSpaceOnUse" />
    <radialGradient
       xlink:href="#linearGradient4211-1"
       id="radialGradient8-6"
       cx="74.261223"
       cy="205.63583"
       fx="74.261223"
       fy="205.63583"
       r="15.358513"
       gradientTransform="matrix(1.8807521,-0.25355285,0.24022262,1.7818739,-115.6527,-142.09606)"
       gradientUnits="userSpaceOnUse" />
    <radialGradient
       xlink:href="#linearGradient4211-1"
       id="radialGradient11-7"
       cx="74.261223"
       cy="205.63583"
       fx="74.261223"
       fy="205.63583"
       r="15.358513"
       gradientTransform="matrix(1.8807521,-0.25355285,0.24022262,1.7818739,-115.6527,-142.09606)"
       gradientUnits="userSpaceOnUse" />
    <radialGradient
       xlink:href="#linearGradient4211-1"
       id="radialGradient12-0"
       cx="74.261223"
       cy="205.63583"
       fx="74.261223"
       fy="205.63583"
       r="15.358513"
       gradientTransform="matrix(1.8807521,-0.25355285,0.24022262,1.7818739,-115.6527,-142.09606)"
       gradientUnits="userSpaceOnUse" />
    <radialGradient
       xlink:href="#linearGradient4211-1"
       id="radialGradient14-6"
       cx="74.261223"
       cy="205.63583"
       fx="74.261223"
       fy="205.63583"
       r="15.358513"
       gradientTransform="matrix(1.8807521,-0.25355285,0.24022262,1.7818739,-115.6527,-142.09606)"
       gradientUnits="userSpaceOnUse" />
    <radialGradient
       xlink:href="#linearGradient4211-1"
       id="radialGradient16-1"
       cx="74.261223"
       cy="205.63583"
       fx="74.261223"
       fy="205.63583"
       r="15.358513"
       gradientTransform="matrix(1.8807521,-0.25355285,0.24022262,1.7818739,-115.6527,-142.09606)"
       gradientUnits="userSpaceOnUse" />
    <radialGradient
       xlink:href="#linearGradient4211-1"
       id="radialGradient18-7"
       cx="74.261223"
       cy="205.63583"
       fx="74.261223"
       fy="205.63583"
       r="15.358513"
       gradientTransform="matrix(1.8807521,-0.25355285,0.24022262,1.7818739,-115.6527,-142.09606)"
       gradientUnits="userSpaceOnUse" />
    <radialGradient
       xlink:href="#linearGradient4211-1"
       id="radialGradient20-3"
       cx="74.261223"
       cy="205.63583"
       fx="74.261223"
       fy="205.63583"
       r="15.358513"
       gradientTransform="matrix(1.8807521,-0.25355285,0.24022262,1.7818739,-115.6527,-142.09606)"
       gradientUnits="userSpaceOnUse" />
    <linearGradient
       xlink:href="#linearGradient49"
       id="linearGradient9-3"
       gradientUnits="userSpaceOnUse"
       gradientTransform="matrix(-0.01607195,-0.10180301,0.10180301,-0.01607195,80.662788,231.32463)"
       x1="312.56305"
       y1="553.90613"
       x2="366.26276"
       y2="557.1507" />
    <linearGradient
       id="linearGradient49">
      <stop
         style="stop-color:#c28231;stop-opacity:1"
         offset="0"
         id="stop49" />
      <stop
         style="stop-color:#e1b986;stop-opacity:1;"
         offset="1"
         id="stop48" />
    </linearGradient>
    <filter
       style="color-interpolation-filters:sRGB"
       id="filter4377-0-0-2"
       x="-0.24121349"
       width="1.482427"
       y="-0.067215401"
       height="1.1344308">
      <feGaussianBlur
         stdDeviation="4.2277418"
         id="feGaussianBlur4379-3-9-5" />
    </filter>
    <radialGradient
       xlink:href="#linearGradient4211-1"
       id="radialGradient35"
       gradientUnits="userSpaceOnUse"
       gradientTransform="matrix(1.5712796,0.27950483,-0.26481022,1.4886715,58.801018,-153.78938)"
       cx="74.261223"
       cy="205.63583"
       fx="74.261223"
       fy="205.63583"
       r="15.358513" />
    <radialGradient
       xlink:href="#linearGradient4211-1"
       id="radialGradient36"
       gradientUnits="userSpaceOnUse"
       gradientTransform="matrix(1.5712796,0.27950483,-0.26481022,1.4886715,58.801018,-153.78938)"
       cx="74.261223"
       cy="205.63583"
       fx="74.261223"
       fy="205.63583"
       r="15.358513" />
    <radialGradient
       xlink:href="#linearGradient4211-1"
       id="radialGradient37"
       gradientUnits="userSpaceOnUse"
       gradientTransform="matrix(1.5712796,0.27950483,-0.26481022,1.4886715,58.801018,-153.78938)"
       cx="74.261223"
       cy="205.63583"
       fx="74.261223"
       fy="205.63583"
       r="15.358513" />
    <radialGradient
       xlink:href="#linearGradient4211-1"
       id="radialGradient38"
       gradientUnits="userSpaceOnUse"
       gradientTransform="matrix(1.5712796,0.27950483,-0.26481022,1.4886715,58.801018,-153.78938)"
       cx="74.261223"
       cy="205.63583"
       fx="74.261223"
       fy="205.63583"
       r="15.358513" />
    <radialGradient
       xlink:href="#linearGradient4211-1"
       id="radialGradient39"
       gradientUnits="userSpaceOnUse"
       gradientTransform="matrix(1.5712796,0.27950483,-0.26481022,1.4886715,58.801018,-153.78938)"
       cx="74.261223"
       cy="205.63583"
       fx="74.261223"
       fy="205.63583"
       r="15.358513" />
    <radialGradient
       xlink:href="#linearGradient4211-1"
       id="radialGradient40"
       gradientUnits="userSpaceOnUse"
       gradientTransform="matrix(1.5712796,0.27950483,-0.26481022,1.4886715,58.801018,-153.78938)"
       cx="74.261223"
       cy="205.63583"
       fx="74.261223"
       fy="205.63583"
       r="15.358513" />
    <radialGradient
       xlink:href="#linearGradient4211-1"
       id="radialGradient41"
       gradientUnits="userSpaceOnUse"
       gradientTransform="matrix(1.5712796,0.27950483,-0.26481022,1.4886715,58.801018,-153.78938)"
       cx="74.261223"
       cy="205.63583"
       fx="74.261223"
       fy="205.63583"
       r="15.358513" />
    <radialGradient
       xlink:href="#linearGradient4211-1"
       id="radialGradient42"
       gradientUnits="userSpaceOnUse"
       gradientTransform="matrix(1.5712796,0.27950483,-0.26481022,1.4886715,58.801018,-153.78938)"
       cx="74.261223"
       cy="205.63583"
       fx="74.261223"
       fy="205.63583"
       r="15.358513" />
    <radialGradient
       xlink:href="#linearGradient4211-1"
       id="radialGradient43"
       gradientUnits="userSpaceOnUse"
       gradientTransform="matrix(1.5712796,0.27950483,-0.26481022,1.4886715,58.801018,-153.78938)"
       cx="74.261223"
       cy="205.63583"
       fx="74.261223"
       fy="205.63583"
       r="15.358513" />
    <radialGradient
       xlink:href="#linearGradient4211-1"
       id="radialGradient44"
       gradientUnits="userSpaceOnUse"
       gradientTransform="matrix(1.5712796,0.27950483,-0.26481022,1.4886715,58.801018,-153.78938)"
       cx="74.261223"
       cy="205.63583"
       fx="74.261223"
       fy="205.63583"
       r="15.358513" />
    <radialGradient
       xlink:href="#linearGradient4211-1"
       id="radialGradient45"
       gradientUnits="userSpaceOnUse"
       gradientTransform="matrix(1.5712796,0.27950483,-0.26481022,1.4886715,58.801018,-153.78938)"
       cx="74.261223"
       cy="205.63583"
       fx="74.261223"
       fy="205.63583"
       r="15.358513" />
    <linearGradient
       xlink:href="#linearGradient4199"
       id="linearGradient1"
       gradientUnits="userSpaceOnUse"
       gradientTransform="matrix(-0.01607195,-0.10180301,0.10180301,-0.01607195,80.662788,231.32463)"
       x1="336.49805"
       y1="485.99902"
       x2="361.36771"
       y2="488.61685" />
  </defs>
  <g
     id="layer2">
    <rect
       style="fill:#57b0e3;fill-opacity:1;stroke:none;stroke-width:0"
       id="rect1"
       width="55"
       height="55"
       x="0"
       y="0" />
  </g>
  <g
     id="layer1"
     transform="translate(-100.7027,-137.91892)"
     style="display:inline">
    <path
       id="path36-7"
       style="color:#000000;fill:#ffe083;stroke-width:0.84096;-inkscape-stroke:none"
       d="m 136.68203,139.44584 -1.3e-4,4.1e-4 c -8.98314,-2.87803 -19.16166,1.39534 -22.06516,10.4559 l -0.002,0.006 -0.002,0.006 c -2.37253,7.45788 0.74397,16.2779 8.59899,19.86759 l 5.17504,2.36531 c 1.65921,0.75825 2.32476,2.97404 1.82409,4.56184 -0.29788,0.92428 -1.06763,1.73371 -2.14368,2.19862 l -0.008,0.0179 -2.2821,2.98389 0.72303,5.76519 -0.0508,2.09428 3.48585,1.60417 1.19813,-0.23722 4.1e-4,1.4e-4 c 5.08032,-1.50947 9.36898,-5.20135 11.09295,-10.58107 l 0.002,-0.006 0.002,-0.006 c 2.3725,-7.45789 -0.7452,-16.2783 -8.60023,-19.86799 l -5.17546,-2.36543 c -1.65922,-0.75825 -2.32271,-2.97474 -1.82204,-4.56256 0.59888,-1.85798 3.07259,-3.28884 6.19862,-2.28813 0.41823,0.1341 0.80983,0.30961 1.17148,0.51542 l 2.56373,-1.37316 2.1247,-7.48497 -1.82349,-3.60516 c -0.0624,-0.0207 -0.12325,-0.0448 -0.18593,-0.0649 z" />
    <path
       id="path37-1"
       style="fill:#f6c73b;fill-opacity:1;stroke-width:0.84096"
       d="m 133.412,148.9204 c -0.23077,-0.0677 -0.46436,-0.12705 -0.69954,-0.1767 -0.23521,-0.0496 -0.47208,-0.0901 -0.71017,-0.12073 -0.23808,-0.0306 -0.47717,-0.0513 -0.71649,-0.0625 -0.23931,-0.0112 -0.47898,-0.0127 -0.71787,-0.004 -0.2389,0.009 -0.47706,0.0271 -0.71387,0.056 -0.23681,0.029 -0.47196,0.0685 -0.70503,0.1182 -0.23307,0.0497 -0.46399,0.10955 -0.69166,0.18043 -0.22768,0.0709 -0.45255,0.15272 -0.67318,0.24523 -0.22063,0.0925 -0.43699,0.19592 -0.64891,0.31051 -0.21192,0.11458 -0.41908,0.24041 -0.62063,0.37751 -0.11831,0.0757 -0.23323,0.15554 -0.34422,0.23973 -0.11099,0.0842 -0.21814,0.17269 -0.32166,0.26475 -0.20704,0.18412 -0.39908,0.38316 -0.57535,0.59509 -0.17628,0.21193 -0.33683,0.43656 -0.48114,0.67137 -0.1443,0.23481 -0.27239,0.48 -0.38352,0.73275 -0.11114,0.25276 -0.20522,0.51321 -0.28198,0.77899 -0.0768,0.26577 -0.13597,0.53687 -0.17715,0.81074 -0.0412,0.27386 -0.0645,0.5506 -0.0689,0.82761 -0.004,0.27702 0.0101,0.55421 0.0437,0.82946 0.019,0.19635 0.0468,0.39275 0.0832,0.58794 0.0364,0.19519 0.0814,0.38917 0.13503,0.58128 0.0537,0.19212 0.11637,0.38216 0.18725,0.56927 0.0709,0.1871 0.15016,0.37117 0.23817,0.55135 0.088,0.18016 0.18449,0.35635 0.28957,0.52765 0.10507,0.17131 0.21884,0.33797 0.3409,0.49848 0.12206,0.16051 0.25263,0.31491 0.3916,0.46269 0.13897,0.14779 0.28631,0.28871 0.44212,0.42185 0.23921,0.17378 0.4844,0.33678 0.73443,0.49083 0.25,0.1541 0.50479,0.29912 0.76334,0.43761 0.25856,0.13846 0.52104,0.27028 0.78584,0.39733 0.2648,0.12704 0.53199,0.24947 0.80075,0.36926 0.53755,0.23951 1.08061,0.46866 1.62036,0.70395 0.53975,0.23527 1.07604,0.47691 1.59976,0.74115 0.296,0.13449 0.58802,0.27847 0.87515,0.43189 0.28713,0.15346 0.56938,0.31604 0.84572,0.48817 0.27631,0.17216 0.54674,0.35382 0.81036,0.54438 0.26363,0.19057 0.52061,0.39014 0.76964,0.59887 0.24901,0.20873 0.49007,0.42652 0.72258,0.65316 0.2325,0.22663 0.45635,0.462 0.67042,0.70627 0.21409,0.24426 0.41875,0.49725 0.6125,0.75889 0.19375,0.26163 0.37645,0.53204 0.54796,0.81077 0.16704,0.2558 0.32496,0.51694 0.47328,0.7832 0.14832,0.2663 0.28723,0.5375 0.41673,0.81301 0.12953,0.27551 0.24937,0.55563 0.36001,0.83909 0.11064,0.28342 0.21209,0.57065 0.30377,0.86077 0.0917,0.29012 0.1739,0.58297 0.24653,0.87848 0.0726,0.29552 0.13589,0.59341 0.18939,0.89304 0.0535,0.29964 0.097,0.60114 0.13125,0.90361 0.0343,0.30247 0.0594,0.60602 0.0744,0.91005 0.015,0.30404 0.0204,0.60847 0.016,0.91279 -0.004,0.30433 -0.0187,0.6085 -0.0425,0.91184 -0.0238,0.30333 -0.0574,0.60579 -0.10071,0.90687 -0.0433,0.30109 -0.0961,0.60067 -0.15908,0.89821 -0.0629,0.29755 -0.13594,0.59327 -0.2186,0.88599 -0.0827,0.29273 -0.17517,0.58275 -0.27764,0.86936 -0.10243,0.28664 -0.2145,0.56978 -0.33681,0.84903 -0.12224,0.27929 -0.25453,0.55463 -0.39674,0.82527 -0.11718,0.22656 -0.24105,0.44896 -0.37152,0.66679 -0.13046,0.21783 -0.26776,0.43121 -0.41086,0.64003 -0.14311,0.20881 -0.29217,0.41288 -0.4472,0.61242 -0.15503,0.19953 -0.31576,0.39438 -0.48202,0.58438 -0.16626,0.19 -0.3384,0.37529 -0.5152,0.55549 -0.17679,0.18021 -0.3582,0.35533 -0.54483,0.52547 -0.18662,0.17014 -0.37814,0.33534 -0.5739,0.49516 -0.19576,0.15982 -0.39647,0.31408 -0.60067,0.46331 -0.20419,0.14924 -0.41192,0.29331 -0.62385,0.4317 -0.21193,0.1384 -0.42755,0.27115 -0.6465,0.39844 -0.21897,0.12728 -0.44153,0.24908 -0.66683,0.36499 -0.22529,0.11592 -0.45307,0.22601 -0.684,0.33029 -0.23093,0.10429 -0.46517,0.20278 -0.70104,0.29517 -0.23586,0.0924 -0.47345,0.17852 -0.71355,0.25876 -0.24011,0.0802 -0.48286,0.15439 -0.7265,0.22221 -0.24363,0.0678 -0.48843,0.12924 -0.7349,0.18438 -0.32746,0.0786 -0.65725,0.14593 -0.98827,0.20177 -0.33104,0.0558 -0.66364,0.10017 -0.99704,0.13372 -0.3334,0.0336 -0.66738,0.0561 -1.00193,0.0678 -0.33456,0.0117 -0.66901,0.0128 -1.00352,0.003 l 4.49884,2.07017 1.19813,-0.23721 c 0.26738,-0.0794 0.53262,-0.16481 0.79536,-0.25628 0.26274,-0.0915 0.52281,-0.18879 0.78037,-0.2921 0.25759,-0.10335 0.51253,-0.21273 0.76443,-0.3278 0.2519,-0.11507 0.50072,-0.23612 0.74642,-0.36277 0.24571,-0.12667 0.48834,-0.25908 0.72734,-0.39718 0.23898,-0.13811 0.47455,-0.2819 0.70631,-0.43129 0.23176,-0.1494 0.45979,-0.30444 0.6838,-0.46497 0.22401,-0.16055 0.44401,-0.32666 0.65976,-0.49823 0.21576,-0.17156 0.42714,-0.3482 0.63411,-0.53063 0.20696,-0.18243 0.40952,-0.3703 0.60719,-0.56345 0.19768,-0.19315 0.39036,-0.39181 0.57823,-0.59554 0.18785,-0.20371 0.37105,-0.41277 0.54859,-0.62694 0.17752,-0.21415 0.34937,-0.43344 0.51606,-0.65789 0.16668,-0.22444 0.3281,-0.45384 0.48341,-0.68843 0.15534,-0.23458 0.30458,-0.47436 0.44801,-0.71895 0.14345,-0.24459 0.28089,-0.4943 0.41193,-0.74875 0.13105,-0.25443 0.25568,-0.51371 0.37379,-0.77786 0.1181,-0.26417 0.23005,-0.53309 0.3347,-0.80682 0.10465,-0.27373 0.20242,-0.55204 0.29313,-0.83518 l 0.002,-0.006 0.002,-0.006 c 0.0741,-0.23306 0.14267,-0.46737 0.20603,-0.70291 0.0634,-0.23553 0.12168,-0.47226 0.17449,-0.70984 0.1056,-0.47514 0.18976,-0.95392 0.25299,-1.43489 0.0632,-0.48098 0.1057,-0.96388 0.12696,-1.44744 0.0213,-0.48355 0.0215,-0.96784 0.001,-1.45078 -0.0203,-0.48295 -0.0613,-0.96487 -0.12286,-1.44397 -0.0616,-0.47911 -0.1439,-0.95536 -0.24635,-1.4274 -0.10246,-0.47202 -0.22528,-0.93989 -0.36824,-1.40165 -0.14295,-0.46176 -0.30567,-0.91762 -0.48876,-1.36588 -0.0915,-0.22413 -0.1883,-0.44631 -0.28982,-0.66647 -0.1015,-0.22014 -0.20793,-0.43825 -0.31935,-0.65403 -0.11144,-0.21576 -0.228,-0.42935 -0.3493,-0.64034 -0.1213,-0.21099 -0.24726,-0.41922 -0.37839,-0.62503 -0.13113,-0.2058 -0.26725,-0.40879 -0.40816,-0.60901 -0.14091,-0.20021 -0.28673,-0.39768 -0.43737,-0.5919 -0.15065,-0.19422 -0.30624,-0.38558 -0.46657,-0.57341 -0.16033,-0.18783 -0.32549,-0.37198 -0.49547,-0.55301 -0.16998,-0.18104 -0.34478,-0.35877 -0.52436,-0.53261 -0.17957,-0.17384 -0.36384,-0.34406 -0.55296,-0.51029 -0.18913,-0.16623 -0.38292,-0.32836 -0.58155,-0.48659 -0.19863,-0.15823 -0.40217,-0.31265 -0.61026,-0.46247 -0.20809,-0.14986 -0.42077,-0.29529 -0.63827,-0.43631 -0.2175,-0.14103 -0.43967,-0.2775 -0.66654,-0.40931 -0.22687,-0.13185 -0.4586,-0.25876 -0.6948,-0.38095 -0.23618,-0.12221 -0.47703,-0.23929 -0.72248,-0.35149 l -5.17545,-2.36544 c -0.10372,-0.0473 -0.20325,-0.10052 -0.29914,-0.1588 -0.0959,-0.0583 -0.188,-0.1216 -0.27599,-0.18972 -0.088,-0.0681 -0.17186,-0.14107 -0.25186,-0.21805 -0.08,-0.077 -0.15603,-0.15798 -0.22796,-0.24279 -0.14386,-0.16962 -0.27162,-0.35402 -0.38272,-0.54884 -0.11109,-0.19481 -0.20545,-0.39998 -0.28313,-0.61184 -0.0777,-0.21186 -0.13843,-0.43036 -0.18202,-0.6511 -0.0436,-0.22074 -0.07,-0.44402 -0.0788,-0.6655 -0.009,-0.22147 -5.3e-4,-0.44114 0.026,-0.65519 0.0265,-0.21405 0.071,-0.42222 0.13361,-0.6207 0.0374,-0.11613 0.0823,-0.23081 0.13411,-0.3431 0.0518,-0.11227 0.11037,-0.22222 0.1759,-0.32971 0.0655,-0.10749 0.13794,-0.21267 0.21663,-0.31437 0.0787,-0.10171 0.16395,-0.20023 0.2552,-0.29517 0.0912,-0.0949 0.18839,-0.18627 0.2916,-0.27347 0.1032,-0.0872 0.21237,-0.16999 0.32693,-0.24847 0.11457,-0.0785 0.23449,-0.1527 0.35983,-0.22149 0.12533,-0.0688 0.25588,-0.13229 0.39138,-0.19039 0.13551,-0.0581 0.27625,-0.11062 0.42133,-0.15707 0.14508,-0.0464 0.29477,-0.0866 0.44883,-0.12043 0.15406,-0.0338 0.31227,-0.0614 0.4747,-0.0816 0.16244,-0.0202 0.32918,-0.0334 0.4994,-0.039 0.17022,-0.006 0.34396,-0.004 0.52137,0.006 0.1774,0.01 0.35799,0.0281 0.54199,0.0545 0.18398,0.0265 0.37131,0.0614 0.56127,0.10547 0.19,0.044 0.38264,0.0975 0.578,0.1601 0.23257,0.0746 0.45724,0.16133 0.67304,0.25943 0.17161,0.078 0.33334,0.16755 0.49353,0.25851 l 2.56919,-1.37597 c -0.18311,-0.15408 -0.37296,-0.30003 -0.56889,-0.43781 -0.1959,-0.13782 -0.39818,-0.26728 -0.60527,-0.38831 -0.20709,-0.12101 -0.41913,-0.23355 -0.63574,-0.33739 -0.21659,-0.10383 -0.43748,-0.19932 -0.66193,-0.28554 -0.22445,-0.0862 -0.45222,-0.16342 -0.68287,-0.23158 z" />
    <path
       id="path38-0"
       style="font-variation-settings:normal;vector-effect:none;fill:#fff0c1;fill-opacity:1;stroke-width:0.84096;stroke-linecap:butt;stroke-linejoin:miter;stroke-miterlimit:4;stroke-dasharray:none;stroke-dashoffset:0;stroke-opacity:1;-inkscape-stroke:none;stop-color:#000000"
       d="m 136.6819,139.44625 c -0.28073,-0.0899 -0.56237,-0.17311 -0.84525,-0.2489 -0.28281,-0.076 -0.56688,-0.14515 -0.85123,-0.20746 -0.28435,-0.0623 -0.56933,-0.11794 -0.85474,-0.1666 -0.28539,-0.0487 -0.57094,-0.0905 -0.85686,-0.12577 -0.28594,-0.0352 -0.57198,-0.0636 -0.85791,-0.0855 -0.28592,-0.0219 -0.57189,-0.0373 -0.85731,-0.046 -0.28543,-0.009 -0.57053,-0.0108 -0.85492,-0.006 -0.2844,0.004 -0.56804,0.015 -0.8509,0.0322 -0.28285,0.0172 -0.5647,0.041 -0.84549,0.0709 -0.2808,0.0299 -0.56066,0.0661 -0.83887,0.10863 -0.27822,0.0425 -0.55479,0.0912 -0.82991,0.14618 -0.27513,0.055 -0.54889,0.11617 -0.8204,0.18346 -0.27151,0.0673 -0.54105,0.14071 -0.80843,0.22015 -0.26739,0.0795 -0.53262,0.16481 -0.79536,0.25627 -0.26274,0.0915 -0.5228,0.18878 -0.78038,0.29212 -0.25758,0.10334 -0.51252,0.21272 -0.76442,0.32779 -0.2519,0.11508 -0.50073,0.23611 -0.74643,0.36277 -0.2457,0.12666 -0.48834,0.25907 -0.72733,0.39718 -0.23899,0.13809 -0.47456,0.2819 -0.70632,0.43129 -0.23176,0.1494 -0.45978,0.30443 -0.68379,0.46497 -0.22402,0.16056 -0.44402,0.32667 -0.65977,0.49823 -0.21575,0.17157 -0.42713,0.3482 -0.6341,0.53063 -0.20697,0.18242 -0.40952,0.3703 -0.60719,0.56345 -0.19768,0.19315 -0.39037,0.39181 -0.57823,0.59553 -0.18786,0.20373 -0.37106,0.41278 -0.54859,0.62694 -0.17753,0.21416 -0.34939,0.43346 -0.51607,0.6579 -0.16667,0.22442 -0.3281,0.45385 -0.48341,0.68844 -0.15531,0.23458 -0.30457,0.47435 -0.44801,0.71894 -0.14343,0.24459 -0.28089,0.49431 -0.41192,0.74876 -0.13104,0.25444 -0.25568,0.5137 -0.37379,0.77785 -0.11812,0.26416 -0.2296,0.53323 -0.33428,0.80695 -0.10469,0.27372 -0.20281,0.55191 -0.29355,0.83505 l -0.002,0.006 -0.002,0.006 c -0.0741,0.23307 -0.14259,0.46741 -0.20604,0.70292 -0.0634,0.23552 -0.12168,0.47226 -0.17448,0.70983 -0.10559,0.47516 -0.18974,0.95394 -0.253,1.4349 -0.0633,0.48097 -0.10566,0.96389 -0.12695,1.44744 -0.0213,0.48356 -0.0215,0.96785 -0.001,1.45078 0.0203,0.48293 0.0609,0.96474 0.12245,1.44383 0.0615,0.4791 0.14395,0.95538 0.24636,1.42741 0.1024,0.47202 0.22491,0.93977 0.36782,1.40152 0.14291,0.46174 0.30614,0.91776 0.48917,1.36601 0.0915,0.22411 0.18792,0.44619 0.2894,0.66634 0.10149,0.22014 0.20796,0.43825 0.31936,0.65402 0.11141,0.21576 0.22761,0.42924 0.34888,0.64022 0.12128,0.21098 0.2477,0.41935 0.37881,0.62515 0.1311,0.20579 0.26727,0.4088 0.40816,0.60901 0.14088,0.2002 0.28633,0.39756 0.43696,0.59177 0.15062,0.19422 0.30625,0.38559 0.46657,0.57341 0.16031,0.18782 0.3255,0.372 0.49546,0.55302 0.16996,0.18103 0.34481,0.35877 0.52436,0.5326 0.17956,0.17383 0.36385,0.34407 0.55297,0.51029 0.18911,0.16623 0.38293,0.32836 0.58154,0.48659 0.19863,0.15822 0.40177,0.31252 0.60985,0.46234 0.20807,0.14985 0.42119,0.29543 0.63869,0.43644 0.21748,0.14104 0.43967,0.27751 0.66654,0.40932 0.22687,0.13176 0.45819,0.25862 0.69438,0.38081 0.23619,0.12221 0.47744,0.23941 0.7229,0.35162 l 5.17503,2.36531 c 0.10371,0.0473 0.20366,0.10066 0.29955,0.15893 0.0959,0.0583 0.18799,0.1216 0.27599,0.18973 0.088,0.0681 0.17197,0.14066 0.25199,0.21763 0.08,0.077 0.15585,0.15843 0.22783,0.24322 0.14395,0.16957 0.27164,0.35366 0.38285,0.54842 0.11122,0.19476 0.20629,0.3999 0.28409,0.61169 0.0778,0.21177 0.13844,0.43001 0.18216,0.65069 0.0437,0.22068 0.0704,0.44379 0.0794,0.66522 0.009,0.22143 3.3e-4,0.44157 -0.0261,0.65559 -0.0264,0.21403 -0.071,0.42225 -0.13361,0.62071 -0.0374,0.11613 -0.0826,0.23024 -0.13397,0.34268 -0.0518,0.1123 -0.11051,0.22261 -0.17604,0.33012 -0.0655,0.10752 -0.13776,0.21223 -0.2165,0.31396 -0.0787,0.10174 -0.16394,0.2002 -0.25519,0.29517 -0.0913,0.095 -0.18851,0.18666 -0.29174,0.27389 -0.10319,0.0872 -0.21249,0.17035 -0.32707,0.24888 -0.11458,0.0785 -0.23433,0.15225 -0.35969,0.22107 -0.12535,0.0688 -0.25599,0.13266 -0.39151,0.19081 l -2.2821,2.9839 c 0.172,0.005 0.3448,0.003 0.51767,-0.003 0.17287,-0.007 0.34578,-0.0194 0.51852,-0.0374 0.17276,-0.018 0.34526,-0.0416 0.51689,-0.0708 0.17163,-0.0292 0.34245,-0.0636 0.51197,-0.10385 0.1695,-0.0402 0.33761,-0.0862 0.50401,-0.13742 0.16639,-0.0512 0.33118,-0.10785 0.49347,-0.17001 0.1623,-0.0622 0.32215,-0.12982 0.47933,-0.20283 0.15719,-0.073 0.31165,-0.15127 0.46275,-0.23507 0.15109,-0.0838 0.29898,-0.17291 0.44298,-0.26741 0.144,-0.0945 0.28402,-0.19429 0.41993,-0.29943 0.13591,-0.10514 0.26773,-0.21561 0.39455,-0.33131 0.12682,-0.1157 0.24871,-0.23679 0.36545,-0.36298 0.11673,-0.12619 0.22823,-0.25748 0.33389,-0.39408 0.10567,-0.1366 0.20557,-0.27835 0.29917,-0.42529 0.0936,-0.14694 0.18078,-0.29937 0.26128,-0.45659 0.0811,-0.16011 0.15453,-0.32467 0.22045,-0.49296 0.0659,-0.16829 0.12427,-0.34027 0.17512,-0.51523 0.0508,-0.17498 0.0943,-0.35274 0.1301,-0.53284 0.0358,-0.18009 0.0638,-0.36234 0.0846,-0.54606 0.0208,-0.18372 0.0345,-0.36894 0.0404,-0.55474 0.006,-0.18579 0.004,-0.3724 -0.005,-0.55876 -0.009,-0.18636 -0.0256,-0.37257 -0.0494,-0.55796 -0.0238,-0.18539 -0.0549,-0.36999 -0.0935,-0.5529 -0.0386,-0.18291 -0.0844,-0.36402 -0.13775,-0.54291 -0.0533,-0.17889 -0.11436,-0.35556 -0.18237,-0.52892 -0.068,-0.17336 -0.14335,-0.34328 -0.226,-0.50957 -0.0827,-0.1663 -0.17261,-0.32895 -0.26985,-0.48666 -0.0972,-0.15771 -0.20144,-0.31052 -0.31321,-0.45812 -0.11177,-0.14759 -0.23111,-0.28975 -0.35737,-0.42572 -0.12625,-0.13596 -0.25965,-0.26557 -0.40036,-0.38837 -0.1407,-0.12279 -0.28863,-0.23894 -0.44371,-0.34706 -0.23383,-0.15509 -0.47198,-0.30099 -0.71377,-0.43996 -0.2418,-0.13893 -0.48721,-0.27073 -0.73525,-0.3971 -0.49607,-0.25276 -1.00291,-0.48415 -1.51374,-0.70767 -0.51084,-0.22354 -1.02559,-0.43947 -1.53754,-0.6619 -0.51193,-0.22247 -1.02112,-0.45122 -1.52054,-0.70071 -0.37183,-0.16682 -0.73579,-0.3508 -1.09039,-0.55059 -0.3546,-0.19979 -0.69982,-0.41526 -1.03475,-0.64593 -0.33493,-0.23068 -0.65935,-0.47634 -0.97216,-0.73586 -0.31281,-0.25953 -0.61426,-0.53308 -0.90251,-0.81941 -0.28824,-0.28634 -0.56357,-0.58564 -0.8248,-0.89673 -0.26123,-0.31109 -0.50823,-0.63387 -0.74,-0.96768 -0.23177,-0.3338 -0.44801,-0.67861 -0.64786,-1.03308 -0.19986,-0.35448 -0.38328,-0.71858 -0.54878,-1.09168 -0.13807,-0.29589 -0.26468,-0.59667 -0.3797,-0.90153 -0.11501,-0.30486 -0.2185,-0.61416 -0.31058,-0.92639 -0.0921,-0.31221 -0.17267,-0.62749 -0.24196,-0.94547 -0.0693,-0.31799 -0.12707,-0.63842 -0.17369,-0.96056 -0.0466,-0.32215 -0.082,-0.64613 -0.10605,-0.97084 -0.0241,-0.32471 -0.0371,-0.65008 -0.0388,-0.97575 -0.002,-0.32567 0.008,-0.65151 0.0286,-0.97653 0.0206,-0.32503 0.0523,-0.64931 0.0951,-0.97209 0.0428,-0.32279 0.0968,-0.64417 0.16162,-0.96311 0.0648,-0.31894 0.14062,-0.63541 0.22735,-0.94891 0.0867,-0.31349 0.18407,-0.62384 0.29257,-0.93029 0.1085,-0.30645 0.22797,-0.60919 0.35812,-0.90699 0.13015,-0.29781 0.27124,-0.59093 0.42292,-0.87849 0.15167,-0.28756 0.31401,-0.56944 0.48707,-0.84515 0.17306,-0.27571 0.35682,-0.54503 0.55115,-0.80729 0.19434,-0.26227 0.39913,-0.51738 0.6146,-0.7646 0.23195,-0.26864 0.47403,-0.5267 0.72526,-0.77386 0.25123,-0.24718 0.5119,-0.48353 0.78071,-0.70909 0.26882,-0.22556 0.54596,-0.44043 0.83068,-0.64426 0.28472,-0.20382 0.5769,-0.39672 0.87584,-0.57868 0.29894,-0.18197 0.60444,-0.35293 0.91591,-0.51291 0.31147,-0.15997 0.62901,-0.30894 0.95132,-0.4468 0.32231,-0.13786 0.64963,-0.26461 0.9811,-0.38022 0.33146,-0.11559 0.66686,-0.2202 1.00579,-0.31344 0.33894,-0.0933 0.68138,-0.17504 1.0261,-0.24578 0.34472,-0.0707 0.69181,-0.1305 1.04063,-0.17861 0.34882,-0.0481 0.69941,-0.0848 1.05064,-0.11016 0.35123,-0.0254 0.7032,-0.0392 1.05515,-0.0416 0.35195,-0.002 0.70359,0.007 1.05458,0.0271 0.35099,0.0205 0.70101,0.0525 1.04935,0.0961 0.34833,0.0437 0.69529,0.099 1.0393,0.16596 0.344,0.0669 0.68524,0.14572 1.02321,0.2361 0.25053,0.0662 0.4993,0.13841 0.74647,0.21681 0.24719,0.0783 0.49309,0.16239 0.73632,0.25277 0.24331,0.0901 0.48439,0.18618 0.72324,0.28788 0.23886,0.10169 0.47526,0.20913 0.70909,0.32209 0.23386,0.11289 0.46512,0.23149 0.6934,0.3554 l -1.82293,-3.60407 c -0.0627,-0.0208 -0.12354,-0.0458 -0.1865,-0.0659 z" />
    <path
       id="path4348-0-3-4"
       style="fill:url(#linearGradient9-3);fill-opacity:1;fill-rule:evenodd;stroke:none;stroke-width:0.0995781px;stroke-linecap:butt;stroke-linejoin:miter;stroke-opacity:1"
       d="m 127.98068,179.04159 c -5.10325,2.92368 -10.20648,5.84738 -15.30972,8.77106 5.75431,1.20036 11.50859,2.40049 17.26291,3.60086 0,0 3.8e-4,-0.0378 10e-4,-0.0395 -0.51126,-0.21599 -0.82113,-0.58508 -0.83261,-0.99181 -0.003,-0.42346 -0.0416,-0.965 0.49382,-1.33892 -2.1e-4,-0.0784 0.35741,-0.19636 0.35693,-0.27702 -0.85102,-0.85059 -1.49883,-1.98779 -1.75661,-3.58925 -0.22388,-1.43074 -0.0117,-2.65336 0.41075,-3.71097 -0.53572,-0.0951 -1.02723,-0.58038 -1.16012,-0.98378 -0.14616,-0.45846 0.0611,-0.99403 0.5453,-1.40922 -4.9e-4,-0.001 -0.0113,-0.0315 -0.0113,-0.0315 z" />
    <path
       style="fill:url(#linearGradient1);fill-opacity:1;fill-rule:evenodd;stroke:none;stroke-width:0.0995781px;stroke-linecap:butt;stroke-linejoin:miter;stroke-opacity:1"
       d="m 112.6706,187.81269 c 2.26373,0.47224 4.52746,0.94448 6.79119,1.41672 0.16802,-0.81169 0.18695,-1.66819 0.0555,-2.51149 -0.1343,-0.8373 -0.41389,-1.64121 -0.81999,-2.35797 -2.0089,1.15092 -4.01781,2.30183 -6.02671,3.45274 z"
       id="path4392-3-8-1" />
    <path
       id="path4235-4-6-9"
       style="opacity:0.4;fill:#ffffff;fill-rule:evenodd;stroke:none;stroke-width:1px;stroke-linecap:butt;stroke-linejoin:miter;stroke-opacity:1;filter:url(#filter4377-0-0-2)"
       d="m 317.93475,600.89255 42.06473,-148.52781 c -6.64517,47.95271 -13.29114,95.90156 -19.93631,143.85426 a 53.881344,27.435267 0 0 0 -20.92304,7.10192 14.138656,18.821853 11.542312 0 0 -1.20538,-2.42837 z"
       transform="matrix(0.01500309,0.09503265,0.10180301,-0.01607195,62.299748,160.64098)" />
    <path
       d="m 134.71882,182.68205 c 0.10875,0.10902 0.15158,0.29229 0.20032,0.45714 0.05,0.16351 0.0639,0.33132 0.0418,0.50262 -0.0251,0.1871 -0.16168,0.43741 -0.26348,0.61762 -0.10041,0.17888 -0.41443,0.4942 -0.63077,0.65625 -0.23219,0.17375 -0.58485,0.39192 -0.80616,0.47025 -0.21994,0.0779 -0.45584,0.13478 -0.70805,0.1723 l -0.31791,-0.57606 0.0319,-0.0207 c 0.25172,0.0365 0.51156,0.0226 0.77991,-0.0424 0.26818,-0.0642 0.66074,-0.28813 0.84093,-0.43792 0.25489,-0.21152 0.47494,-0.48188 0.5334,-0.70158 0.0599,-0.22101 0.067,-0.4545 -0.069,-0.6058 -0.11679,-0.13103 -0.25698,-0.16976 -0.37419,-0.17464 -0.11589,-0.006 -0.25399,0.0334 -0.41395,0.11817 -0.1218,0.0643 -0.26671,0.14503 -0.4023,0.22787 -0.13405,0.0816 -0.29369,0.16641 -0.45421,0.24215 -0.32612,0.1516 -0.62512,0.17944 -0.85727,0.11654 -0.23127,-0.0661 -0.41659,-0.22531 -0.55569,-0.47827 -0.15977,-0.28962 -0.17062,-0.60305 -0.0325,-0.9403 0.13731,-0.33926 0.17858,-0.49647 0.51538,-0.77623 0.21766,-0.18106 0.28062,-0.19179 0.48121,-0.32092 0.20059,-0.12913 0.32819,-0.15889 0.50356,-0.24046 l 0.43863,0.43988 -0.0249,0.0282 c -0.1914,0.0252 -0.30494,3.2e-4 -0.54158,0.10554 -0.23609,0.10186 -0.39112,0.18994 -0.59183,0.35612 -0.22053,0.18367 -0.31307,0.32092 -0.38919,0.52348 -0.0745,0.20132 -0.003,0.32046 0.0859,0.48141 0.0795,0.1438 0.17829,0.23373 0.29629,0.26977 0.11817,0.0352 0.25387,0.0248 0.45541,-0.0643 0.10579,-0.0482 0.24072,-0.11715 0.42503,-0.22412 0.18422,-0.107 0.33246,-0.19373 0.46462,-0.2653 0.26882,-0.14171 0.50014,-0.21683 0.71121,-0.2075 0.21124,0.009 0.42772,0.0902 0.62757,0.29114 z"
       style="font-size:52.1359px;line-height:1.25;letter-spacing:0px;word-spacing:0px;fill:url(#radialGradient35);stroke-width:0.105107px"
       id="path4201-7" />
    <path
       d="m 134.17827,179.41814 -0.24188,0.43027 -0.41991,-0.30232 0.22589,-0.40713 z m 2.89835,1.8973 -0.31611,0.53188 -2.40445,-1.73553 0.22434,-0.39704 z"
       style="font-size:52.1359px;line-height:1.25;letter-spacing:0px;word-spacing:0px;fill:url(#radialGradient36);stroke-width:0.105107px"
       id="path3180-3" />
    <path
       d="m 138.15286,178.61632 -0.13181,0.49026 -3.91084,-1.32714 0.13181,-0.49026 z"
       style="font-size:52.1359px;line-height:1.25;letter-spacing:0px;word-spacing:0px;fill:url(#radialGradient37);stroke-width:0.105107px"
       id="path8598-5" />
    <path
       d="m 136.93262,173.50539 0.18454,2.31094 c 0.18202,0.0115 0.34089,-0.006 0.47703,-0.0529 0.13421,-0.0471 0.24449,-0.11595 0.33111,-0.20741 0.0849,-0.0885 0.14864,-0.19522 0.19109,-0.32026 0.0425,-0.1268 0.047,-0.40704 0.0341,-0.5613 -0.0173,-0.20423 -0.0752,-0.54597 -0.1889,-0.74224 -0.11605,-0.19702 -0.22006,-0.33543 -0.31229,-0.41443 l -0.004,-0.027 0.54122,-0.0562 c 0.099,0.16152 0.21774,0.49098 0.28052,0.6674 0.0625,0.17722 0.10225,0.36302 0.11851,0.55897 0.0418,0.49908 -0.10371,1.05825 -0.36891,1.32209 -0.26681,0.26333 -0.68075,0.46716 -1.16517,0.39321 -0.47928,-0.0732 -0.83651,-0.2371 -1.12056,-0.52414 -0.28401,-0.2888 -0.41354,-0.56696 -0.45019,-1.00522 -0.0339,-0.40561 0.053,-0.64269 0.24844,-0.88295 0.19546,-0.24292 0.50684,-0.386 0.93466,-0.43085 z m -0.2974,0.5264 c -0.26019,0.0288 -0.44453,0.0942 -0.57684,0.23023 -0.13219,0.13338 -0.18701,0.33481 -0.16455,0.60428 0.0227,0.2713 0.0998,0.44172 0.25686,0.6139 0.15707,0.17042 0.35203,0.27438 0.58514,0.3111 z"
       style="font-size:52.1359px;line-height:1.25;letter-spacing:0px;word-spacing:0px;fill:url(#radialGradient38);stroke-width:0.105107px"
       id="path1240-0" />
    <path
       d="m 136.49721,168.6724 0.36526,0.58593 -1.5212,0.73215 c -0.12292,0.0595 -0.23347,0.12124 -0.33233,0.1867 -0.10057,0.0667 -0.17062,0.13343 -0.20997,0.2003 -0.0448,0.0713 -0.0624,0.15134 -0.0528,0.24094 0.008,0.0892 0.0454,0.19292 0.11151,0.31124 0.0681,0.12072 0.13918,0.19648 0.26443,0.31078 0.12516,0.11428 0.26506,0.2165 0.41993,0.30585 l 2.07193,-0.78 0.235,0.64133 -2.85464,0.79946 -0.15512,-0.39674 0.30805,-0.11589 c -0.18628,-0.0985 -0.34819,-0.21223 -0.48574,-0.34107 -0.13754,-0.12884 -0.21468,-0.18711 -0.30219,-0.34231 -0.15987,-0.28434 -0.15075,-0.47128 -0.0826,-0.71083 0.0685,-0.24032 0.25825,-0.45328 0.56947,-0.63968 z"
       style="font-size:52.1359px;line-height:1.25;letter-spacing:0px;word-spacing:0px;fill:url(#radialGradient39);stroke-width:0.105107px"
       id="path5484-9" />
    <path
       d="m 133.5624,165.664 c 0.0945,0.0329 0.34903,0.20631 0.44797,0.26627 0.0975,0.0586 0.18074,0.1153 0.24939,0.17085 0.23955,0.19331 0.50009,0.54435 0.49276,0.76542 -0.007,0.22107 -0.14494,0.45073 -0.41291,0.68985 l -1.1764,1.04925 0.24439,0.24078 -0.31303,0.27943 -0.24439,-0.24078 -0.63571,0.56725 -0.24173,-0.22757 0.57712,-0.62664 -0.75261,-0.58551 0.25195,-0.33521 0.785,0.61179 0.97519,-0.93887 c 0.11608,-0.10322 0.20482,-0.18782 0.26562,-0.25135 0.0598,-0.0621 0.003,-0.2233 0.0204,-0.30606 0.0174,-0.0774 0.0106,-0.14938 -0.0198,-0.2174 -0.0329,-0.0679 -0.10501,-0.14579 -0.21565,-0.2351 -0.0643,-0.0524 -0.13923,-0.0985 -0.22478,-0.13825 -0.0869,-0.0384 -0.27698,-0.15585 -0.31966,-0.16511 l -0.0228,-0.0144 z"
       style="font-size:52.1359px;line-height:1.25;letter-spacing:0px;word-spacing:0px;fill:url(#radialGradient40);stroke-width:0.105107px"
       id="path5006-6" />
    <path
       d="m 128.7705,163.21567 0.60217,0.27505 0.0608,3.90851 1.67418,-3.1151 0.45479,0.20752 -1.87145,3.48195 -0.75476,-0.34425 -0.0543,-3.56731 -1.52839,2.8439 -0.45479,-0.20752 z"
       style="font-size:52.1359px;line-height:1.25;letter-spacing:0px;word-spacing:0px;fill:url(#radialGradient41);stroke-width:0.105107px"
       id="path8440-0" />
    <path
       d="m 124.20361,162.5049 c 0.32725,-0.35523 0.56853,-0.63646 0.94731,-0.72174 0.37887,-0.0853 0.55781,-0.11182 0.93323,0.0835 0.37878,0.19642 0.52183,0.42328 0.61899,0.77407 0.0954,0.35024 0.0286,0.73857 -0.20017,1.16422 -0.22882,0.42562 -0.52316,0.70927 -0.88335,0.85173 -0.3627,0.14342 -0.77498,0.0846 -1.15376,-0.11179 -0.37542,-0.19534 -0.64735,-0.57034 -0.68918,-0.93344 -0.0429,-0.36167 0.0997,-0.75134 0.42693,-1.10657 z m 0.38212,0.27255 c -0.23063,0.30671 -0.33772,0.57617 -0.32117,0.80842 0.0151,0.23442 0.18244,0.46555 0.42382,0.59056 0.24449,0.1269 0.483,0.14592 0.71598,0.0554 0.23013,-0.0888 0.4401,-0.30672 0.62186,-0.64498 0.17583,-0.32692 0.29139,-0.57601 0.25542,-0.81183 -0.0369,-0.23436 -0.17695,-0.41434 -0.41976,-0.54069 -0.23969,-0.12448 -0.32969,-0.0765 -0.57168,-0.008 -0.24423,0.0675 -0.47894,0.251 -0.70447,0.5514 z"
       style="font-size:52.1359px;line-height:1.25;letter-spacing:0px;word-spacing:0px;fill:url(#radialGradient42);stroke-width:0.105107px"
       id="path3934-7" />
    <path
       d="m 123.35735,159.49097 c 0.0755,0.0657 0.15213,0.14146 0.2303,0.22656 0.077,0.0838 0.14072,0.16164 0.1906,0.23502 0.17503,0.253 0.16463,0.30972 0.13631,0.52848 -0.0285,0.21958 -0.18751,0.43532 -0.47704,0.64722 l -1.27139,0.93228 0.26835,0.28643 -0.31303,0.27943 -0.29363,-0.31749 -0.68689,0.50317 -0.32614,-0.38884 0.68707,-0.50399 -0.66561,-0.91882 0.35994,-0.21583 0.64398,0.88628 1.08923,-0.79813 c 0.12562,-0.0922 0.22184,-0.16736 0.28858,-0.22545 0.0655,-0.0558 0.11509,-0.12385 0.14846,-0.20235 0.0315,-0.072 0.0388,-0.14385 0.022,-0.21637 -0.0194,-0.0725 0.0197,-0.0431 -0.0608,-0.16077 -0.0471,-0.0681 -0.10621,-0.13293 -0.17707,-0.19537 -0.0724,-0.0612 -0.12664,-0.10416 -0.16276,-0.12897 l -0.0156,-0.0218 z"
       style="font-size:52.1359px;line-height:1.25;letter-spacing:0px;word-spacing:0px;fill:url(#radialGradient43);stroke-width:0.105107px"
       id="path5472-7" />
    <path
       d="m 120.76686,156.71652 0.58744,1.98171 c 0.1707,-0.0645 0.30821,-0.14587 0.41285,-0.2448 0.10268,-0.0978 0.21779,-0.10154 0.26908,-0.21669 0.0506,-0.11093 0.0754,-0.23282 0.0739,-0.36487 -0.002,-0.13399 -0.0287,-0.2741 -0.0799,-0.42034 -0.0682,-0.19316 -0.10523,-0.25448 -0.23519,-0.44006 -0.13211,-0.18714 -0.2193,-0.2036 -0.31144,-0.28257 l -0.005,-0.0263 0.5413,-0.0562 c 0.0989,0.1615 0.17079,0.16068 0.26225,0.32421 0.0913,0.16436 0.1,0.17332 0.16509,0.35844 0.1658,0.47257 0.10944,0.71767 -0.0233,1.06722 -0.13428,0.34994 -0.43094,0.61166 -0.88966,0.78436 -0.45384,0.17074 -0.86906,0.18341 -1.24624,0.0396 -0.37795,-0.14581 -0.65369,-0.51585 -0.79921,-0.93071 -0.13481,-0.38406 -0.12184,-0.87353 0.0739,-1.1146 0.1952,-0.24212 0.50683,-0.386 0.93439,-0.43005 z m -0.28518,0.50646 c -0.25672,0.0502 -0.43886,0.15346 -0.54658,0.30969 -0.10775,0.15358 -0.13044,0.41652 -0.0412,0.67207 0.0903,0.25588 0.23786,0.44003 0.44334,0.55002 0.20471,0.10885 0.43204,0.14018 0.65942,0.0779 z"
       style="font-size:52.1359px;line-height:1.25;letter-spacing:0px;word-spacing:0px;fill:url(#radialGradient44);stroke-width:0.105107px"
       id="path7418-2" />
    <path
       d="m 121.31848,153.24618 c 0.26331,0.0632 0.45931,0.2284 0.58817,0.49487 0.12947,0.26401 0.22148,0.41535 0.18751,0.80803 -0.0193,0.22253 -0.023,0.24784 -0.0744,0.43182 -0.053,0.18171 -0.11754,0.17339 -0.16888,0.3 l -0.55987,0.0105 -0.002,-0.0264 c 0.10525,-0.16232 0.21284,-0.21616 0.28368,-0.40805 0.069,-0.1916 0.0928,-0.23518 0.10842,-0.41474 0.0194,-0.22251 -5.9e-4,-0.40199 -0.0599,-0.53754 -0.059,-0.13635 -0.16388,-0.21587 -0.3141,-0.23927 -0.11552,-0.0176 -0.20607,0.004 -0.27128,0.0623 -0.0655,0.0594 -0.12755,0.18255 -0.18638,0.37034 -0.0219,0.0689 -0.0484,0.16022 -0.0795,0.27388 -0.031,0.11193 -0.0517,0.15297 -0.0765,0.24661 -0.0692,0.2604 -0.16998,0.44182 -0.30258,0.54505 -0.13424,0.10093 -0.29835,0.1446 -0.49251,0.13185 -0.12208,-0.007 -0.23667,-0.0405 -0.34436,-0.098 -0.10766,-0.0592 -0.20381,-0.14388 -0.28845,-0.25401 -0.0829,-0.10605 -0.14816,-0.23821 -0.19565,-0.39648 -0.0493,-0.15974 -0.052,-0.42111 -0.0353,-0.61357 0.0157,-0.17954 0.0536,-0.44378 0.12823,-0.61415 0.0733,-0.17255 0.15066,-0.31202 0.23207,-0.4184 l 0.51825,0.1263 -0.004,0.026 c -0.11355,0.10579 -0.23694,0.27732 -0.31584,0.45249 -0.0809,0.17541 -0.129,0.35164 -0.14439,0.5295 -0.016,0.18473 0.004,0.39328 0.0744,0.52542 0.0687,0.13239 0.17185,0.20342 0.30961,0.21223 0.12182,0.008 0.21362,-0.0243 0.27557,-0.098 0.062,-0.072 0.10641,-0.17254 0.15964,-0.33564 0.0289,-0.0896 0.0589,-0.19042 0.0899,-0.30235 0.0312,-0.11363 0.0587,-0.20725 0.0828,-0.28165 0.0729,-0.22742 0.19215,-0.3473 0.33983,-0.44304 0.14937,-0.0952 0.32887,-0.11717 0.53851,-0.0659 z"
       style="font-size:52.1359px;line-height:1.25;letter-spacing:0px;word-spacing:0px;fill:url(#radialGradient45);stroke-width:0.105107px"
       id="path6654-2" />
  </g>
</svg>
